%TF.GenerationSoftware,KiCad,Pcbnew,9.0.7*%
%TF.CreationDate,2026-02-25T20:58:53+00:00*%
%TF.ProjectId,Warehouse Robot Schematic NEW.pdf,57617265-686f-4757-9365-20526f626f74,rev?*%
%TF.SameCoordinates,Original*%
%TF.FileFunction,Legend,Bot*%
%TF.FilePolarity,Positive*%
%FSLAX46Y46*%
G04 Gerber Fmt 4.6, Leading zero omitted, Abs format (unit mm)*
G04 Created by KiCad (PCBNEW 9.0.7) date 2026-02-25 20:58:53*
%MOMM*%
%LPD*%
G01*
G04 APERTURE LIST*
%ADD10C,0.100000*%
%ADD11C,0.000000*%
G04 APERTURE END LIST*
D10*
X167724687Y-113767236D02*
X167772306Y-113814856D01*
X167772306Y-113814856D02*
X167915163Y-113862475D01*
X167915163Y-113862475D02*
X168010401Y-113862475D01*
X168010401Y-113862475D02*
X168153258Y-113814856D01*
X168153258Y-113814856D02*
X168248496Y-113719617D01*
X168248496Y-113719617D02*
X168296115Y-113624379D01*
X168296115Y-113624379D02*
X168343734Y-113433903D01*
X168343734Y-113433903D02*
X168343734Y-113291046D01*
X168343734Y-113291046D02*
X168296115Y-113100570D01*
X168296115Y-113100570D02*
X168248496Y-113005332D01*
X168248496Y-113005332D02*
X168153258Y-112910094D01*
X168153258Y-112910094D02*
X168010401Y-112862475D01*
X168010401Y-112862475D02*
X167915163Y-112862475D01*
X167915163Y-112862475D02*
X167772306Y-112910094D01*
X167772306Y-112910094D02*
X167724687Y-112957713D01*
X167296115Y-113862475D02*
X167296115Y-112862475D01*
X167296115Y-113338665D02*
X166724687Y-113338665D01*
X166724687Y-113862475D02*
X166724687Y-112862475D01*
X166248496Y-113862475D02*
X166248496Y-112862475D01*
X165772306Y-113862475D02*
X165772306Y-112862475D01*
X165772306Y-112862475D02*
X165534211Y-112862475D01*
X165534211Y-112862475D02*
X165391354Y-112910094D01*
X165391354Y-112910094D02*
X165296116Y-113005332D01*
X165296116Y-113005332D02*
X165248497Y-113100570D01*
X165248497Y-113100570D02*
X165200878Y-113291046D01*
X165200878Y-113291046D02*
X165200878Y-113433903D01*
X165200878Y-113433903D02*
X165248497Y-113624379D01*
X165248497Y-113624379D02*
X165296116Y-113719617D01*
X165296116Y-113719617D02*
X165391354Y-113814856D01*
X165391354Y-113814856D02*
X165534211Y-113862475D01*
X165534211Y-113862475D02*
X165772306Y-113862475D01*
X164772306Y-112862475D02*
X164772306Y-113671998D01*
X164772306Y-113671998D02*
X164724687Y-113767236D01*
X164724687Y-113767236D02*
X164677068Y-113814856D01*
X164677068Y-113814856D02*
X164581830Y-113862475D01*
X164581830Y-113862475D02*
X164391354Y-113862475D01*
X164391354Y-113862475D02*
X164296116Y-113814856D01*
X164296116Y-113814856D02*
X164248497Y-113767236D01*
X164248497Y-113767236D02*
X164200878Y-113671998D01*
X164200878Y-113671998D02*
X164200878Y-112862475D01*
X163724687Y-113862475D02*
X163724687Y-112862475D01*
X163724687Y-112862475D02*
X163391354Y-113576760D01*
X163391354Y-113576760D02*
X163058021Y-112862475D01*
X163058021Y-112862475D02*
X163058021Y-113862475D01*
X162629449Y-113576760D02*
X162153259Y-113576760D01*
X162724687Y-113862475D02*
X162391354Y-112862475D01*
X162391354Y-112862475D02*
X162058021Y-113862475D01*
X161724687Y-113862475D02*
X161724687Y-112862475D01*
X161724687Y-112862475D02*
X161391354Y-113576760D01*
X161391354Y-113576760D02*
X161058021Y-112862475D01*
X161058021Y-112862475D02*
X161058021Y-113862475D01*
X159867544Y-113576760D02*
X159391354Y-113576760D01*
X159962782Y-113862475D02*
X159629449Y-112862475D01*
X159629449Y-112862475D02*
X159296116Y-113862475D01*
X158962782Y-113862475D02*
X158962782Y-112862475D01*
X158962782Y-112862475D02*
X158629449Y-113576760D01*
X158629449Y-113576760D02*
X158296116Y-112862475D01*
X158296116Y-112862475D02*
X158296116Y-113862475D01*
X157867544Y-113576760D02*
X157391354Y-113576760D01*
X157962782Y-113862475D02*
X157629449Y-112862475D01*
X157629449Y-112862475D02*
X157296116Y-113862475D01*
X156962782Y-113862475D02*
X156962782Y-112862475D01*
X156962782Y-112862475D02*
X156724687Y-112862475D01*
X156724687Y-112862475D02*
X156581830Y-112910094D01*
X156581830Y-112910094D02*
X156486592Y-113005332D01*
X156486592Y-113005332D02*
X156438973Y-113100570D01*
X156438973Y-113100570D02*
X156391354Y-113291046D01*
X156391354Y-113291046D02*
X156391354Y-113433903D01*
X156391354Y-113433903D02*
X156438973Y-113624379D01*
X156438973Y-113624379D02*
X156486592Y-113719617D01*
X156486592Y-113719617D02*
X156581830Y-113814856D01*
X156581830Y-113814856D02*
X156724687Y-113862475D01*
X156724687Y-113862475D02*
X156962782Y-113862475D01*
X155962782Y-113862475D02*
X155962782Y-112862475D01*
X155486592Y-113481522D02*
X154724688Y-113481522D01*
X154058021Y-112862475D02*
X153867545Y-112862475D01*
X153867545Y-112862475D02*
X153772307Y-112910094D01*
X153772307Y-112910094D02*
X153677069Y-113005332D01*
X153677069Y-113005332D02*
X153629450Y-113195808D01*
X153629450Y-113195808D02*
X153629450Y-113529141D01*
X153629450Y-113529141D02*
X153677069Y-113719617D01*
X153677069Y-113719617D02*
X153772307Y-113814856D01*
X153772307Y-113814856D02*
X153867545Y-113862475D01*
X153867545Y-113862475D02*
X154058021Y-113862475D01*
X154058021Y-113862475D02*
X154153259Y-113814856D01*
X154153259Y-113814856D02*
X154248497Y-113719617D01*
X154248497Y-113719617D02*
X154296116Y-113529141D01*
X154296116Y-113529141D02*
X154296116Y-113195808D01*
X154296116Y-113195808D02*
X154248497Y-113005332D01*
X154248497Y-113005332D02*
X154153259Y-112910094D01*
X154153259Y-112910094D02*
X154058021Y-112862475D01*
X152867545Y-113338665D02*
X152724688Y-113386284D01*
X152724688Y-113386284D02*
X152677069Y-113433903D01*
X152677069Y-113433903D02*
X152629450Y-113529141D01*
X152629450Y-113529141D02*
X152629450Y-113671998D01*
X152629450Y-113671998D02*
X152677069Y-113767236D01*
X152677069Y-113767236D02*
X152724688Y-113814856D01*
X152724688Y-113814856D02*
X152819926Y-113862475D01*
X152819926Y-113862475D02*
X153200878Y-113862475D01*
X153200878Y-113862475D02*
X153200878Y-112862475D01*
X153200878Y-112862475D02*
X152867545Y-112862475D01*
X152867545Y-112862475D02*
X152772307Y-112910094D01*
X152772307Y-112910094D02*
X152724688Y-112957713D01*
X152724688Y-112957713D02*
X152677069Y-113052951D01*
X152677069Y-113052951D02*
X152677069Y-113148189D01*
X152677069Y-113148189D02*
X152724688Y-113243427D01*
X152724688Y-113243427D02*
X152772307Y-113291046D01*
X152772307Y-113291046D02*
X152867545Y-113338665D01*
X152867545Y-113338665D02*
X153200878Y-113338665D01*
X152200878Y-113862475D02*
X152200878Y-112862475D01*
X167962782Y-114948609D02*
X167819925Y-114996228D01*
X167819925Y-114996228D02*
X167772306Y-115043847D01*
X167772306Y-115043847D02*
X167724687Y-115139085D01*
X167724687Y-115139085D02*
X167724687Y-115281942D01*
X167724687Y-115281942D02*
X167772306Y-115377180D01*
X167772306Y-115377180D02*
X167819925Y-115424800D01*
X167819925Y-115424800D02*
X167915163Y-115472419D01*
X167915163Y-115472419D02*
X168296115Y-115472419D01*
X168296115Y-115472419D02*
X168296115Y-114472419D01*
X168296115Y-114472419D02*
X167962782Y-114472419D01*
X167962782Y-114472419D02*
X167867544Y-114520038D01*
X167867544Y-114520038D02*
X167819925Y-114567657D01*
X167819925Y-114567657D02*
X167772306Y-114662895D01*
X167772306Y-114662895D02*
X167772306Y-114758133D01*
X167772306Y-114758133D02*
X167819925Y-114853371D01*
X167819925Y-114853371D02*
X167867544Y-114900990D01*
X167867544Y-114900990D02*
X167962782Y-114948609D01*
X167962782Y-114948609D02*
X168296115Y-114948609D01*
X167105639Y-114472419D02*
X167010401Y-114472419D01*
X167010401Y-114472419D02*
X166915163Y-114520038D01*
X166915163Y-114520038D02*
X166867544Y-114567657D01*
X166867544Y-114567657D02*
X166819925Y-114662895D01*
X166819925Y-114662895D02*
X166772306Y-114853371D01*
X166772306Y-114853371D02*
X166772306Y-115091466D01*
X166772306Y-115091466D02*
X166819925Y-115281942D01*
X166819925Y-115281942D02*
X166867544Y-115377180D01*
X166867544Y-115377180D02*
X166915163Y-115424800D01*
X166915163Y-115424800D02*
X167010401Y-115472419D01*
X167010401Y-115472419D02*
X167105639Y-115472419D01*
X167105639Y-115472419D02*
X167200877Y-115424800D01*
X167200877Y-115424800D02*
X167248496Y-115377180D01*
X167248496Y-115377180D02*
X167296115Y-115281942D01*
X167296115Y-115281942D02*
X167343734Y-115091466D01*
X167343734Y-115091466D02*
X167343734Y-114853371D01*
X167343734Y-114853371D02*
X167296115Y-114662895D01*
X167296115Y-114662895D02*
X167248496Y-114567657D01*
X167248496Y-114567657D02*
X167200877Y-114520038D01*
X167200877Y-114520038D02*
X167105639Y-114472419D01*
X166153258Y-114472419D02*
X166058020Y-114472419D01*
X166058020Y-114472419D02*
X165962782Y-114520038D01*
X165962782Y-114520038D02*
X165915163Y-114567657D01*
X165915163Y-114567657D02*
X165867544Y-114662895D01*
X165867544Y-114662895D02*
X165819925Y-114853371D01*
X165819925Y-114853371D02*
X165819925Y-115091466D01*
X165819925Y-115091466D02*
X165867544Y-115281942D01*
X165867544Y-115281942D02*
X165915163Y-115377180D01*
X165915163Y-115377180D02*
X165962782Y-115424800D01*
X165962782Y-115424800D02*
X166058020Y-115472419D01*
X166058020Y-115472419D02*
X166153258Y-115472419D01*
X166153258Y-115472419D02*
X166248496Y-115424800D01*
X166248496Y-115424800D02*
X166296115Y-115377180D01*
X166296115Y-115377180D02*
X166343734Y-115281942D01*
X166343734Y-115281942D02*
X166391353Y-115091466D01*
X166391353Y-115091466D02*
X166391353Y-114853371D01*
X166391353Y-114853371D02*
X166343734Y-114662895D01*
X166343734Y-114662895D02*
X166296115Y-114567657D01*
X166296115Y-114567657D02*
X166248496Y-114520038D01*
X166248496Y-114520038D02*
X166153258Y-114472419D01*
X164867544Y-115472419D02*
X165438972Y-115472419D01*
X165153258Y-115472419D02*
X165153258Y-114472419D01*
X165153258Y-114472419D02*
X165248496Y-114615276D01*
X165248496Y-114615276D02*
X165343734Y-114710514D01*
X165343734Y-114710514D02*
X165438972Y-114758133D01*
X164010401Y-114472419D02*
X164200877Y-114472419D01*
X164200877Y-114472419D02*
X164296115Y-114520038D01*
X164296115Y-114520038D02*
X164343734Y-114567657D01*
X164343734Y-114567657D02*
X164438972Y-114710514D01*
X164438972Y-114710514D02*
X164486591Y-114900990D01*
X164486591Y-114900990D02*
X164486591Y-115281942D01*
X164486591Y-115281942D02*
X164438972Y-115377180D01*
X164438972Y-115377180D02*
X164391353Y-115424800D01*
X164391353Y-115424800D02*
X164296115Y-115472419D01*
X164296115Y-115472419D02*
X164105639Y-115472419D01*
X164105639Y-115472419D02*
X164010401Y-115424800D01*
X164010401Y-115424800D02*
X163962782Y-115377180D01*
X163962782Y-115377180D02*
X163915163Y-115281942D01*
X163915163Y-115281942D02*
X163915163Y-115043847D01*
X163915163Y-115043847D02*
X163962782Y-114948609D01*
X163962782Y-114948609D02*
X164010401Y-114900990D01*
X164010401Y-114900990D02*
X164105639Y-114853371D01*
X164105639Y-114853371D02*
X164296115Y-114853371D01*
X164296115Y-114853371D02*
X164391353Y-114900990D01*
X164391353Y-114900990D02*
X164438972Y-114948609D01*
X164438972Y-114948609D02*
X164486591Y-115043847D01*
X163581829Y-114472419D02*
X162915163Y-114472419D01*
X162915163Y-114472419D02*
X163343734Y-115472419D01*
X162486591Y-115472419D02*
X162296115Y-115472419D01*
X162296115Y-115472419D02*
X162200877Y-115424800D01*
X162200877Y-115424800D02*
X162153258Y-115377180D01*
X162153258Y-115377180D02*
X162058020Y-115234323D01*
X162058020Y-115234323D02*
X162010401Y-115043847D01*
X162010401Y-115043847D02*
X162010401Y-114662895D01*
X162010401Y-114662895D02*
X162058020Y-114567657D01*
X162058020Y-114567657D02*
X162105639Y-114520038D01*
X162105639Y-114520038D02*
X162200877Y-114472419D01*
X162200877Y-114472419D02*
X162391353Y-114472419D01*
X162391353Y-114472419D02*
X162486591Y-114520038D01*
X162486591Y-114520038D02*
X162534210Y-114567657D01*
X162534210Y-114567657D02*
X162581829Y-114662895D01*
X162581829Y-114662895D02*
X162581829Y-114900990D01*
X162581829Y-114900990D02*
X162534210Y-114996228D01*
X162534210Y-114996228D02*
X162486591Y-115043847D01*
X162486591Y-115043847D02*
X162391353Y-115091466D01*
X162391353Y-115091466D02*
X162200877Y-115091466D01*
X162200877Y-115091466D02*
X162105639Y-115043847D01*
X162105639Y-115043847D02*
X162058020Y-114996228D01*
X162058020Y-114996228D02*
X162010401Y-114900990D01*
X161677067Y-114472419D02*
X161058020Y-114472419D01*
X161058020Y-114472419D02*
X161391353Y-114853371D01*
X161391353Y-114853371D02*
X161248496Y-114853371D01*
X161248496Y-114853371D02*
X161153258Y-114900990D01*
X161153258Y-114900990D02*
X161105639Y-114948609D01*
X161105639Y-114948609D02*
X161058020Y-115043847D01*
X161058020Y-115043847D02*
X161058020Y-115281942D01*
X161058020Y-115281942D02*
X161105639Y-115377180D01*
X161105639Y-115377180D02*
X161153258Y-115424800D01*
X161153258Y-115424800D02*
X161248496Y-115472419D01*
X161248496Y-115472419D02*
X161534210Y-115472419D01*
X161534210Y-115472419D02*
X161629448Y-115424800D01*
X161629448Y-115424800D02*
X161677067Y-115377180D01*
X160724686Y-114472419D02*
X160058020Y-114472419D01*
X160058020Y-114472419D02*
X160486591Y-115472419D01*
D11*
%TO.C,G\u002A\u002A\u002A*%
G36*
X161455357Y-96844222D02*
G01*
X161424827Y-97095157D01*
X161371313Y-97371064D01*
X161301308Y-97640839D01*
X161221306Y-97873377D01*
X161186946Y-97954307D01*
X160954944Y-98383561D01*
X160653642Y-98785324D01*
X160289681Y-99154249D01*
X159869698Y-99484986D01*
X159400331Y-99772189D01*
X158888219Y-100010510D01*
X158340000Y-100194599D01*
X158162471Y-100243444D01*
X158001765Y-100287661D01*
X157883288Y-100320260D01*
X157824493Y-100336438D01*
X157793958Y-100363738D01*
X157783092Y-100437246D01*
X157791787Y-100572638D01*
X157805327Y-100669093D01*
X157889132Y-100940048D01*
X158031325Y-101160883D01*
X158226083Y-101326156D01*
X158467583Y-101430424D01*
X158750000Y-101468244D01*
X158940000Y-101470000D01*
X158940000Y-101670000D01*
X158940000Y-101870000D01*
X156780000Y-101870000D01*
X154620000Y-101870000D01*
X154620000Y-101670000D01*
X154620000Y-101470000D01*
X154785360Y-101470000D01*
X154970414Y-101453993D01*
X155222092Y-101373763D01*
X155433872Y-101233893D01*
X155596683Y-101043184D01*
X155701456Y-100810436D01*
X155739122Y-100544451D01*
X155740000Y-100318903D01*
X155590000Y-100292553D01*
X155461283Y-100266421D01*
X155131758Y-100175768D01*
X154776695Y-100051082D01*
X154422266Y-99902923D01*
X154094644Y-99741851D01*
X153820000Y-99578424D01*
X153387570Y-99254916D01*
X152992520Y-98880080D01*
X152671213Y-98477157D01*
X152422401Y-98044292D01*
X152244831Y-97579629D01*
X152137253Y-97081312D01*
X152132249Y-97006085D01*
X153951347Y-97006085D01*
X153968469Y-97248353D01*
X154043628Y-97709727D01*
X154177540Y-98133691D01*
X154376340Y-98537297D01*
X154646163Y-98937600D01*
X154743897Y-99055348D01*
X154935728Y-99251316D01*
X155152707Y-99441755D01*
X155371311Y-99606557D01*
X155568014Y-99725615D01*
X155584083Y-99733611D01*
X155670985Y-99773683D01*
X155718014Y-99790000D01*
X155718022Y-99789999D01*
X155721575Y-99750865D01*
X155724950Y-99637965D01*
X155728101Y-99457521D01*
X155730981Y-99215754D01*
X155733545Y-98918883D01*
X155735746Y-98573131D01*
X155737538Y-98184718D01*
X155737760Y-98114035D01*
X157786900Y-98114035D01*
X157787231Y-98514571D01*
X157788525Y-98850839D01*
X157790843Y-99127413D01*
X157794247Y-99348870D01*
X157798801Y-99519784D01*
X157804565Y-99644731D01*
X157811602Y-99728285D01*
X157819974Y-99775022D01*
X157829743Y-99789518D01*
X157867064Y-99781712D01*
X157973825Y-99733355D01*
X158117930Y-99649010D01*
X158283646Y-99538211D01*
X158455241Y-99410492D01*
X158754663Y-99133107D01*
X159038791Y-98773745D01*
X159277901Y-98360189D01*
X159465405Y-97902276D01*
X159472202Y-97881865D01*
X159523978Y-97714948D01*
X159559772Y-97566310D01*
X159583455Y-97411380D01*
X159598893Y-97225590D01*
X159609958Y-96984372D01*
X159614413Y-96799858D01*
X159605433Y-96462036D01*
X159568455Y-96159801D01*
X159499268Y-95865252D01*
X159393665Y-95550490D01*
X159366717Y-95482025D01*
X159198113Y-95143246D01*
X158979112Y-94810970D01*
X158724491Y-94503455D01*
X158449028Y-94238953D01*
X158167498Y-94035721D01*
X158125997Y-94009936D01*
X158062448Y-93967514D01*
X158007658Y-93931412D01*
X157960964Y-93906542D01*
X157921706Y-93897815D01*
X157889222Y-93910142D01*
X157862850Y-93948435D01*
X157841928Y-94017605D01*
X157825796Y-94122564D01*
X157813790Y-94268223D01*
X157805251Y-94459494D01*
X157799515Y-94701287D01*
X157795922Y-94998515D01*
X157793810Y-95356089D01*
X157792517Y-95778920D01*
X157791382Y-96271920D01*
X157789952Y-96767636D01*
X157789743Y-96840000D01*
X157788878Y-97101857D01*
X157787470Y-97644655D01*
X157786900Y-98114035D01*
X155737760Y-98114035D01*
X155738875Y-97759864D01*
X155739712Y-97304791D01*
X155740000Y-96825720D01*
X155740000Y-96767636D01*
X155739905Y-96217098D01*
X155739559Y-95740755D01*
X155738836Y-95333323D01*
X155737611Y-94989513D01*
X155735757Y-94704039D01*
X155733149Y-94471616D01*
X155729660Y-94286957D01*
X155725164Y-94144775D01*
X155719536Y-94039783D01*
X155712649Y-93966696D01*
X155704379Y-93920227D01*
X155694598Y-93895089D01*
X155683180Y-93885996D01*
X155670000Y-93887661D01*
X155507712Y-93964533D01*
X155273244Y-94118758D01*
X155030922Y-94319381D01*
X154796351Y-94551916D01*
X154585134Y-94801876D01*
X154412877Y-95054772D01*
X154344589Y-95174952D01*
X154149547Y-95598209D01*
X154021261Y-96034891D01*
X153956329Y-96499387D01*
X153951347Y-97006085D01*
X152132249Y-97006085D01*
X152111162Y-96689086D01*
X152152266Y-96236414D01*
X152266495Y-95791576D01*
X152450195Y-95360476D01*
X152699709Y-94949017D01*
X153011379Y-94563102D01*
X153381549Y-94208634D01*
X153806563Y-93891517D01*
X154282763Y-93617654D01*
X154294364Y-93611901D01*
X154481824Y-93527601D01*
X154709486Y-93437159D01*
X154954742Y-93348420D01*
X155194985Y-93269232D01*
X155407607Y-93207440D01*
X155570000Y-93170891D01*
X155637764Y-93159019D01*
X155709156Y-93133533D01*
X155735646Y-93081075D01*
X155739122Y-92976484D01*
X155706432Y-92762867D01*
X155605595Y-92544438D01*
X155448971Y-92354164D01*
X155249122Y-92203797D01*
X155018611Y-92105092D01*
X154770000Y-92069802D01*
X154620000Y-92070000D01*
X154620000Y-91869652D01*
X154620000Y-91669305D01*
X156770000Y-91679652D01*
X158920000Y-91690000D01*
X158932192Y-91880000D01*
X158944384Y-92070000D01*
X158789318Y-92070000D01*
X158631988Y-92082679D01*
X158381592Y-92158032D01*
X158162691Y-92292149D01*
X157986948Y-92474614D01*
X157866026Y-92695015D01*
X157811591Y-92942938D01*
X157800000Y-93115876D01*
X158220000Y-93227568D01*
X158527645Y-93314857D01*
X158792311Y-93404232D01*
X159042253Y-93506687D01*
X159309929Y-93634338D01*
X159564955Y-93773386D01*
X160000415Y-94066211D01*
X160392987Y-94403353D01*
X160733466Y-94775406D01*
X161012641Y-95172964D01*
X161221306Y-95586622D01*
X161265378Y-95705751D01*
X161340785Y-95962270D01*
X161402687Y-96239221D01*
X161444590Y-96505499D01*
X161460000Y-96729999D01*
X161457160Y-96799858D01*
X161455357Y-96844222D01*
G37*
G36*
X166540000Y-96809097D02*
G01*
X166540000Y-97908195D01*
X165812944Y-97919097D01*
X165085888Y-97930000D01*
X164996888Y-98350000D01*
X164950643Y-98560910D01*
X164854700Y-98949031D01*
X164749133Y-99306650D01*
X164624566Y-99666931D01*
X164597526Y-99741211D01*
X164549774Y-99877412D01*
X164518784Y-99973125D01*
X164510265Y-100011158D01*
X164530957Y-100023419D01*
X164611004Y-100069704D01*
X164740284Y-100144034D01*
X164907162Y-100239721D01*
X165100000Y-100350078D01*
X165238349Y-100429699D01*
X165421493Y-100536809D01*
X165573562Y-100627764D01*
X165681694Y-100694837D01*
X165733024Y-100730304D01*
X165734115Y-100731362D01*
X165743008Y-100758966D01*
X165732423Y-100810940D01*
X165698750Y-100894660D01*
X165638379Y-101017497D01*
X165547700Y-101186826D01*
X165423102Y-101410020D01*
X165260976Y-101694452D01*
X165127200Y-101927016D01*
X164997142Y-102151672D01*
X164884572Y-102344621D01*
X164795029Y-102496417D01*
X164734051Y-102597616D01*
X164707178Y-102638773D01*
X164706697Y-102639149D01*
X164662120Y-102627205D01*
X164560640Y-102580042D01*
X164413400Y-102503445D01*
X164231543Y-102403201D01*
X164026210Y-102285098D01*
X163373966Y-101902650D01*
X163229755Y-102076325D01*
X163209751Y-102099949D01*
X163092997Y-102229004D01*
X162935769Y-102393678D01*
X162753063Y-102579081D01*
X162559879Y-102770323D01*
X162371214Y-102952517D01*
X162202065Y-103110772D01*
X162067432Y-103230201D01*
X161854864Y-103410000D01*
X162238129Y-104067302D01*
X162245628Y-104080178D01*
X162362623Y-104285421D01*
X162461341Y-104466585D01*
X162536070Y-104612535D01*
X162581093Y-104712138D01*
X162590698Y-104754260D01*
X162548612Y-104782189D01*
X162448315Y-104843313D01*
X162301355Y-104930890D01*
X162119183Y-105038271D01*
X161913253Y-105158806D01*
X161695019Y-105285844D01*
X161475933Y-105412735D01*
X161267448Y-105532830D01*
X161081019Y-105639478D01*
X160928097Y-105726028D01*
X160820136Y-105785832D01*
X160768590Y-105812238D01*
X160766286Y-105812937D01*
X160730042Y-105796775D01*
X160673031Y-105732167D01*
X160591313Y-105613430D01*
X160480953Y-105434881D01*
X160338010Y-105190836D01*
X160220753Y-104988909D01*
X160114386Y-104808847D01*
X160027297Y-104664667D01*
X159966261Y-104567579D01*
X159938048Y-104528793D01*
X159936213Y-104528139D01*
X159881602Y-104535913D01*
X159768423Y-104564804D01*
X159612045Y-104610587D01*
X159427841Y-104669035D01*
X159243769Y-104726043D01*
X158966418Y-104803880D01*
X158679854Y-104877114D01*
X158423237Y-104935364D01*
X157900000Y-105043627D01*
X157900000Y-105837446D01*
X157900000Y-106631265D01*
X156790000Y-106620632D01*
X155680000Y-106610000D01*
X155669171Y-105824801D01*
X155658341Y-105039602D01*
X155289171Y-104970930D01*
X155100198Y-104933996D01*
X154528528Y-104796780D01*
X153997101Y-104626968D01*
X153938057Y-104605716D01*
X153798800Y-104556776D01*
X153697091Y-104522753D01*
X153651698Y-104510000D01*
X153650546Y-104510498D01*
X153620448Y-104551239D01*
X153558251Y-104649825D01*
X153470350Y-104795666D01*
X153363139Y-104978174D01*
X153243012Y-105186761D01*
X152856831Y-105863522D01*
X151908416Y-105319581D01*
X151891594Y-105309933D01*
X151643644Y-105167672D01*
X151419892Y-105039199D01*
X151229378Y-104929715D01*
X151081146Y-104844417D01*
X150984236Y-104788505D01*
X150947691Y-104767177D01*
X150947496Y-104766479D01*
X150966706Y-104724142D01*
X151019697Y-104624548D01*
X151100565Y-104478382D01*
X151203409Y-104296327D01*
X151322326Y-104089066D01*
X151709270Y-103419417D01*
X151514635Y-103259275D01*
X151511897Y-103257012D01*
X151420264Y-103175843D01*
X151285787Y-103049978D01*
X151120984Y-102891453D01*
X150938376Y-102712304D01*
X150750478Y-102524566D01*
X150711699Y-102485483D01*
X150541956Y-102315372D01*
X150393647Y-102168270D01*
X150275448Y-102052674D01*
X150196031Y-101977085D01*
X150164071Y-101950000D01*
X150129885Y-101966887D01*
X150036938Y-102018058D01*
X149896690Y-102097238D01*
X149720379Y-102198078D01*
X149519250Y-102314227D01*
X149293957Y-102443582D01*
X149122748Y-102538064D01*
X149001182Y-102599102D01*
X148919918Y-102630962D01*
X148869618Y-102637915D01*
X148840941Y-102624227D01*
X148838921Y-102621878D01*
X148801490Y-102566271D01*
X148733052Y-102455516D01*
X148640136Y-102300883D01*
X148529275Y-102113638D01*
X148406997Y-101905049D01*
X148279835Y-101686384D01*
X148154319Y-101468909D01*
X148036980Y-101263893D01*
X147934347Y-101082603D01*
X147852953Y-100936307D01*
X147799327Y-100836272D01*
X147780000Y-100793766D01*
X147809485Y-100767957D01*
X147898108Y-100708641D01*
X148035033Y-100623126D01*
X148209312Y-100518238D01*
X148410000Y-100400806D01*
X148571699Y-100305745D01*
X148762373Y-100188246D01*
X148908097Y-100091560D01*
X149000379Y-100021399D01*
X149030724Y-99983471D01*
X149028406Y-99973656D01*
X149005439Y-99897791D01*
X148962750Y-99766467D01*
X148905390Y-99595040D01*
X148838411Y-99398866D01*
X148763419Y-99168153D01*
X148684096Y-98899420D01*
X148614115Y-98638479D01*
X148562906Y-98418866D01*
X148470439Y-97970000D01*
X147725220Y-97959117D01*
X146980000Y-97948234D01*
X146980000Y-96976607D01*
X150514690Y-96976607D01*
X150522394Y-97304056D01*
X150538169Y-97606672D01*
X150562008Y-97866655D01*
X150593901Y-98066209D01*
X150613740Y-98153736D01*
X150812761Y-98840619D01*
X151078310Y-99490797D01*
X151406317Y-100100367D01*
X151792713Y-100665430D01*
X152233427Y-101182084D01*
X152724389Y-101646428D01*
X153261529Y-102054561D01*
X153840777Y-102402582D01*
X154458064Y-102686590D01*
X155109317Y-102902683D01*
X155790469Y-103046962D01*
X155888035Y-103061280D01*
X156603557Y-103122011D01*
X157307883Y-103104042D01*
X157997731Y-103008192D01*
X158669815Y-102835278D01*
X159320852Y-102586120D01*
X159947557Y-102261533D01*
X160546645Y-101862338D01*
X160801705Y-101662014D01*
X161318960Y-101184150D01*
X161772749Y-100657642D01*
X162162921Y-100082732D01*
X162489323Y-99459661D01*
X162751801Y-98788670D01*
X162950205Y-98070000D01*
X162956403Y-98041967D01*
X162985240Y-97895974D01*
X163006423Y-97750335D01*
X163021106Y-97588984D01*
X163030439Y-97395856D01*
X163035575Y-97154883D01*
X163037665Y-96850000D01*
X163037839Y-96645607D01*
X163035884Y-96393329D01*
X163030199Y-96193625D01*
X163019587Y-96030019D01*
X163002852Y-95886033D01*
X162978797Y-95745188D01*
X162946226Y-95591008D01*
X162838561Y-95168472D01*
X162601951Y-94479867D01*
X162300777Y-93836197D01*
X161936997Y-93239865D01*
X161512569Y-92693272D01*
X161029452Y-92198822D01*
X160489603Y-91758918D01*
X159894980Y-91375962D01*
X159247541Y-91052357D01*
X159022996Y-90960237D01*
X158385236Y-90755125D01*
X157725604Y-90620715D01*
X157053233Y-90556628D01*
X156377257Y-90562483D01*
X155706812Y-90637902D01*
X155051031Y-90782506D01*
X154419049Y-90995915D01*
X153820000Y-91277749D01*
X153747186Y-91318189D01*
X153270836Y-91618158D01*
X152805131Y-91969682D01*
X152367289Y-92357683D01*
X151974530Y-92767088D01*
X151644073Y-93182820D01*
X151579306Y-93276333D01*
X151266824Y-93796044D01*
X150993327Y-94369548D01*
X150766172Y-94979860D01*
X150592716Y-95610000D01*
X150564761Y-95774429D01*
X150540093Y-96023234D01*
X150523531Y-96318398D01*
X150515066Y-96642121D01*
X150514690Y-96976607D01*
X146980000Y-96976607D01*
X146980000Y-96850019D01*
X146980000Y-95751804D01*
X147709657Y-95740902D01*
X148439313Y-95730000D01*
X148471228Y-95510000D01*
X148484557Y-95425241D01*
X148534278Y-95162577D01*
X148599988Y-94863762D01*
X148674803Y-94557508D01*
X148751840Y-94272526D01*
X148824217Y-94037527D01*
X148848234Y-93965448D01*
X148895251Y-93817408D01*
X148927822Y-93704887D01*
X148940000Y-93647896D01*
X148921510Y-93625504D01*
X148843991Y-93566856D01*
X148716558Y-93482376D01*
X148550673Y-93379582D01*
X148357795Y-93265992D01*
X148252757Y-93205245D01*
X148059345Y-93090238D01*
X147924975Y-93004037D01*
X147841474Y-92940744D01*
X147800671Y-92894458D01*
X147794393Y-92859281D01*
X147795638Y-92855148D01*
X147826628Y-92787226D01*
X147889916Y-92667042D01*
X147978995Y-92505683D01*
X148087361Y-92314236D01*
X148208506Y-92103790D01*
X148335925Y-91885431D01*
X148463111Y-91670246D01*
X148583558Y-91469324D01*
X148690760Y-91293750D01*
X148778210Y-91154614D01*
X148839404Y-91063001D01*
X148867834Y-91029999D01*
X148888634Y-91037390D01*
X148970585Y-91078074D01*
X149101131Y-91148298D01*
X149267664Y-91241219D01*
X149457578Y-91349999D01*
X149576662Y-91418511D01*
X149753244Y-91518033D01*
X149898484Y-91597333D01*
X149999849Y-91649620D01*
X150044807Y-91668107D01*
X150046739Y-91667747D01*
X150090990Y-91632632D01*
X150167173Y-91551620D01*
X150260000Y-91440855D01*
X150309768Y-91379079D01*
X150581528Y-91062145D01*
X150869108Y-90763927D01*
X151199712Y-90455911D01*
X151201715Y-90454122D01*
X151341813Y-90327790D01*
X151458141Y-90220551D01*
X151538632Y-90143690D01*
X151571218Y-90108491D01*
X151564638Y-90086296D01*
X151525342Y-90003902D01*
X151456585Y-89872871D01*
X151364766Y-89705298D01*
X151256286Y-89513278D01*
X151184608Y-89385894D01*
X151087317Y-89204116D01*
X151014611Y-89056584D01*
X150972019Y-88954748D01*
X150965068Y-88910056D01*
X150965120Y-88910006D01*
X151008308Y-88881333D01*
X151109436Y-88819608D01*
X151257071Y-88731481D01*
X151439777Y-88623603D01*
X151646120Y-88502624D01*
X151864666Y-88375196D01*
X152083979Y-88247967D01*
X152292626Y-88127589D01*
X152479171Y-88020712D01*
X152632180Y-87933987D01*
X152740219Y-87874063D01*
X152791852Y-87847591D01*
X152810163Y-87847690D01*
X152868957Y-87895147D01*
X152938089Y-87998804D01*
X152982487Y-88078299D01*
X153064466Y-88222801D01*
X153163950Y-88396559D01*
X153268282Y-88577396D01*
X153504312Y-88984792D01*
X153772156Y-88882512D01*
X154025387Y-88792620D01*
X154342101Y-88693578D01*
X154674349Y-88601071D01*
X154999702Y-88520951D01*
X155295729Y-88459070D01*
X155540000Y-88421280D01*
X155640000Y-88410000D01*
X155660000Y-87739851D01*
X155666050Y-87570044D01*
X155676010Y-87370785D01*
X155687305Y-87212282D01*
X155698960Y-87107613D01*
X155710000Y-87069851D01*
X155753216Y-87069889D01*
X155866334Y-87069925D01*
X156038279Y-87069955D01*
X156258247Y-87069979D01*
X156515433Y-87069994D01*
X156799033Y-87070000D01*
X157858066Y-87070000D01*
X157869033Y-87740000D01*
X157880000Y-88410000D01*
X158000000Y-88420881D01*
X158084753Y-88431337D01*
X158282881Y-88466499D01*
X158524744Y-88518587D01*
X158789701Y-88582517D01*
X159057110Y-88653204D01*
X159306330Y-88725563D01*
X159516720Y-88794509D01*
X159679260Y-88851272D01*
X159832289Y-88902360D01*
X159943700Y-88936892D01*
X159996720Y-88949452D01*
X160014364Y-88935318D01*
X160068901Y-88863240D01*
X160149761Y-88740511D01*
X160249332Y-88578856D01*
X160360000Y-88389999D01*
X160432359Y-88265009D01*
X160535104Y-88092613D01*
X160620803Y-87954944D01*
X160682106Y-87863692D01*
X160711665Y-87830547D01*
X160716995Y-87831758D01*
X160750938Y-87847122D01*
X160817747Y-87882175D01*
X160921953Y-87939488D01*
X161068089Y-88021637D01*
X161260686Y-88131193D01*
X161504278Y-88270730D01*
X161803396Y-88442822D01*
X162162573Y-88650042D01*
X162586340Y-88894963D01*
X162581507Y-88919161D01*
X162543652Y-89002689D01*
X162475798Y-89134504D01*
X162383946Y-89303043D01*
X162274095Y-89496742D01*
X162170867Y-89676205D01*
X162077263Y-89842639D01*
X162016108Y-89959717D01*
X161982990Y-90038277D01*
X161973499Y-90089158D01*
X161983225Y-90123200D01*
X162007756Y-90151242D01*
X162064473Y-90203021D01*
X162166911Y-90295051D01*
X162300226Y-90414036D01*
X162449821Y-90546910D01*
X162575151Y-90662743D01*
X162776292Y-90862377D01*
X162976756Y-91074659D01*
X163147563Y-91269575D01*
X163222877Y-91359828D01*
X163338330Y-91494010D01*
X163419414Y-91578601D01*
X163476258Y-91622297D01*
X163518992Y-91633797D01*
X163557743Y-91621799D01*
X163575493Y-91612233D01*
X163662009Y-91563674D01*
X163797055Y-91486592D01*
X163965937Y-91389398D01*
X164153966Y-91280501D01*
X164241906Y-91230171D01*
X164414009Y-91136357D01*
X164555988Y-91065243D01*
X164655052Y-91023041D01*
X164698414Y-91015965D01*
X164706470Y-91027610D01*
X164749342Y-91097436D01*
X164821940Y-91219446D01*
X164917887Y-91382622D01*
X165030808Y-91575941D01*
X165154324Y-91788384D01*
X165282060Y-92008930D01*
X165407639Y-92226559D01*
X165524685Y-92430250D01*
X165626821Y-92608983D01*
X165707670Y-92751738D01*
X165760855Y-92847494D01*
X165780001Y-92885230D01*
X165761591Y-92899068D01*
X165684323Y-92947051D01*
X165557277Y-93022526D01*
X165391881Y-93118725D01*
X165199568Y-93228881D01*
X165057637Y-93310270D01*
X164880165Y-93414096D01*
X164736460Y-93500606D01*
X164638531Y-93562534D01*
X164598383Y-93592617D01*
X164599935Y-93629840D01*
X164622762Y-93729635D01*
X164664119Y-93873899D01*
X164719522Y-94045854D01*
X164721426Y-94051499D01*
X164807100Y-94327432D01*
X164892466Y-94640242D01*
X164970707Y-94961936D01*
X165035004Y-95264519D01*
X165078541Y-95520000D01*
X165104902Y-95710000D01*
X165822451Y-95710000D01*
X166540000Y-95710000D01*
X166540000Y-96645607D01*
X166540000Y-96809097D01*
G37*
%TD*%
M02*
