M48
; DRILL file {KiCad 9.0.7} date 2026-02-25T20:58:49+0000
; FORMAT={-:-/ absolute / metric / decimal}
; #@! TF.CreationDate,2026-02-25T20:58:49+00:00
; #@! TF.GenerationSoftware,Kicad,Pcbnew,9.0.7
; #@! TF.FileFunction,Plated,1,2,PTH
FMAT,2
METRIC
; #@! TA.AperFunction,Plated,PTH,ViaDrill
T1C0.300
; #@! TA.AperFunction,Plated,PTH,ComponentDrill
T2C0.700
; #@! TA.AperFunction,Plated,PTH,ComponentDrill
T3C0.800
; #@! TA.AperFunction,Plated,PTH,ComponentDrill
T4C0.950
; #@! TA.AperFunction,Plated,PTH,ComponentDrill
T5C1.000
; #@! TA.AperFunction,Plated,PTH,ComponentDrill
T6C1.100
; #@! TA.AperFunction,Plated,PTH,ComponentDrill
T7C1.400
%
G90
G05
T1
X152.6Y-75.4
T2
X137.395Y-72.25
X137.395Y-74.75
X140.12Y-80.0
X140.15Y-113.6
X142.62Y-80.0
X142.65Y-113.6
X156.62Y-63.5
X159.12Y-63.5
X162.338Y-79.75
X164.838Y-79.75
T3
X131.145Y-72.0
X131.145Y-74.5
X161.72Y-63.4
X170.72Y-114.2
X170.72Y-117.8
X171.88Y-63.4
X172.2Y-66.92
X172.2Y-77.08
X180.88Y-114.2
X180.88Y-117.8
T4
X118.62Y-124.475
X121.12Y-124.475
X123.62Y-124.475
X147.87Y-124.5
X150.37Y-124.5
X152.87Y-124.5
X159.22Y-124.5
X161.72Y-124.5
X164.22Y-124.5
X170.37Y-124.5
X172.87Y-124.5
X175.37Y-124.5
X177.87Y-124.5
T5
X118.145Y-86.75
X118.145Y-89.25
X118.395Y-66.025
X120.895Y-66.025
X122.37Y-106.7
X122.37Y-114.3
X130.12Y-124.5
X131.045Y-66.0
X132.62Y-124.5
X133.545Y-66.0
X138.87Y-124.5
X140.21Y-83.75
X140.21Y-109.75
X141.37Y-124.5
X142.588Y-69.388
X142.75Y-83.75
X142.75Y-109.75
X145.088Y-69.388
X145.29Y-83.75
X145.29Y-109.75
X147.83Y-83.75
X147.83Y-109.75
X150.37Y-83.75
X150.37Y-109.75
X150.69Y-66.92
X151.96Y-72.0
X152.91Y-83.75
X152.91Y-109.75
X153.23Y-66.92
X154.5Y-72.0
X155.45Y-83.75
X155.45Y-109.75
X155.77Y-66.92
X157.04Y-72.0
X157.99Y-83.75
X157.99Y-109.75
X158.31Y-66.92
X159.58Y-72.0
X160.53Y-83.75
X160.53Y-109.75
X160.85Y-66.92
X162.12Y-72.0
X163.07Y-83.75
X163.07Y-109.75
X163.39Y-66.92
X164.66Y-72.0
X165.61Y-83.75
X165.61Y-109.75
X165.93Y-66.92
X167.2Y-72.0
X168.15Y-83.75
X168.15Y-109.75
X168.47Y-66.92
X170.69Y-83.75
X170.69Y-109.75
X173.23Y-83.75
X173.23Y-109.75
X175.77Y-83.75
X175.77Y-109.75
X177.29Y-69.388
X179.79Y-69.388
T6
X118.355Y-72.55
X120.895Y-72.55
X123.435Y-72.55
T7
X116.37Y-80.25
X116.37Y-95.5
X122.464Y-80.25
X128.87Y-80.25
M30
