%TF.GenerationSoftware,KiCad,Pcbnew,9.0.7*%
%TF.CreationDate,2026-02-25T20:58:53+00:00*%
%TF.ProjectId,Warehouse Robot Schematic NEW.pdf,57617265-686f-4757-9365-20526f626f74,rev?*%
%TF.SameCoordinates,Original*%
%TF.FileFunction,Copper,L2,Bot*%
%TF.FilePolarity,Positive*%
%FSLAX46Y46*%
G04 Gerber Fmt 4.6, Leading zero omitted, Abs format (unit mm)*
G04 Created by KiCad (PCBNEW 9.0.7) date 2026-02-25 20:58:53*
%MOMM*%
%LPD*%
G01*
G04 APERTURE LIST*
G04 Aperture macros list*
%AMRoundRect*
0 Rectangle with rounded corners*
0 $1 Rounding radius*
0 $2 $3 $4 $5 $6 $7 $8 $9 X,Y pos of 4 corners*
0 Add a 4 corners polygon primitive as box body*
4,1,4,$2,$3,$4,$5,$6,$7,$8,$9,$2,$3,0*
0 Add four circle primitives for the rounded corners*
1,1,$1+$1,$2,$3*
1,1,$1+$1,$4,$5*
1,1,$1+$1,$6,$7*
1,1,$1+$1,$8,$9*
0 Add four rect primitives between the rounded corners*
20,1,$1+$1,$2,$3,$4,$5,0*
20,1,$1+$1,$4,$5,$6,$7,0*
20,1,$1+$1,$6,$7,$8,$9,0*
20,1,$1+$1,$8,$9,$2,$3,0*%
G04 Aperture macros list end*
%TA.AperFunction,ComponentPad*%
%ADD10C,1.600000*%
%TD*%
%TA.AperFunction,ComponentPad*%
%ADD11C,1.400000*%
%TD*%
%TA.AperFunction,ComponentPad*%
%ADD12RoundRect,0.250000X-0.750000X0.600000X-0.750000X-0.600000X0.750000X-0.600000X0.750000X0.600000X0*%
%TD*%
%TA.AperFunction,ComponentPad*%
%ADD13O,2.000000X1.700000*%
%TD*%
%TA.AperFunction,ComponentPad*%
%ADD14R,1.800000X1.800000*%
%TD*%
%TA.AperFunction,ComponentPad*%
%ADD15C,1.800000*%
%TD*%
%TA.AperFunction,ComponentPad*%
%ADD16RoundRect,0.250000X-0.600000X-0.725000X0.600000X-0.725000X0.600000X0.725000X-0.600000X0.725000X0*%
%TD*%
%TA.AperFunction,ComponentPad*%
%ADD17O,1.700000X1.950000*%
%TD*%
%TA.AperFunction,ComponentPad*%
%ADD18C,2.800000*%
%TD*%
%TA.AperFunction,ComponentPad*%
%ADD19RoundRect,0.250000X-0.600000X-0.750000X0.600000X-0.750000X0.600000X0.750000X-0.600000X0.750000X0*%
%TD*%
%TA.AperFunction,ComponentPad*%
%ADD20O,1.700000X2.000000*%
%TD*%
%TA.AperFunction,ComponentPad*%
%ADD21R,1.700000X1.700000*%
%TD*%
%TA.AperFunction,ComponentPad*%
%ADD22C,1.700000*%
%TD*%
%TA.AperFunction,ComponentPad*%
%ADD23RoundRect,0.250000X0.600000X0.750000X-0.600000X0.750000X-0.600000X-0.750000X0.600000X-0.750000X0*%
%TD*%
%TA.AperFunction,ComponentPad*%
%ADD24R,1.905000X2.000000*%
%TD*%
%TA.AperFunction,ComponentPad*%
%ADD25O,1.905000X2.000000*%
%TD*%
%TA.AperFunction,ComponentPad*%
%ADD26R,2.000000X2.000000*%
%TD*%
%TA.AperFunction,ComponentPad*%
%ADD27C,2.000000*%
%TD*%
%TA.AperFunction,ViaPad*%
%ADD28C,0.600000*%
%TD*%
%TA.AperFunction,Conductor*%
%ADD29C,0.350000*%
%TD*%
%TA.AperFunction,Conductor*%
%ADD30C,0.200000*%
%TD*%
G04 APERTURE END LIST*
D10*
%TO.P,R4,1*%
%TO.N,5v*%
X171880000Y-63400000D03*
%TO.P,R4,2*%
%TO.N,Net-(U2-EnB)*%
X161720000Y-63400000D03*
%TD*%
%TO.P,C6,1*%
%TO.N,VIN*%
X131145000Y-72000000D03*
%TO.P,C6,2*%
%TO.N,GND*%
X131145000Y-74500000D03*
%TD*%
%TO.P,R3,1*%
%TO.N,5v*%
X172200000Y-77080000D03*
%TO.P,R3,2*%
%TO.N,Net-(U2-EnA)*%
X172200000Y-66920000D03*
%TD*%
D11*
%TO.P,C5,1*%
%TO.N,5v*%
X137395000Y-72250000D03*
%TO.P,C5,2*%
%TO.N,GND*%
X137395000Y-74750000D03*
%TD*%
D12*
%TO.P,J12,1,Pin_1*%
%TO.N,3v3*%
X118145000Y-86750000D03*
D13*
%TO.P,J12,2,Pin_2*%
%TO.N,GND*%
X118145000Y-89250000D03*
%TD*%
D14*
%TO.P,U2,1,SENSE_A*%
%TO.N,unconnected-(U2-SENSE_A-Pad1)*%
X168470000Y-66920000D03*
D15*
%TO.P,U2,2,OUT1*%
%TO.N,Net-(J3-Pin_1)*%
X167200000Y-72000000D03*
%TO.P,U2,3,OUT2*%
%TO.N,Net-(J3-Pin_2)*%
X165930000Y-66920000D03*
%TO.P,U2,4,Vs*%
%TO.N,VIN*%
X164660000Y-72000000D03*
%TO.P,U2,5,IN1*%
%TO.N,IN1*%
X163390000Y-66920000D03*
%TO.P,U2,6,EnA*%
%TO.N,Net-(U2-EnA)*%
X162120000Y-72000000D03*
%TO.P,U2,7,IN2*%
%TO.N,IN2*%
X160850000Y-66920000D03*
%TO.P,U2,8,GND*%
%TO.N,GND*%
X159580000Y-72000000D03*
%TO.P,U2,9,Vss*%
%TO.N,5v*%
X158310000Y-66920000D03*
%TO.P,U2,10,IN3*%
%TO.N,IN3*%
X157040000Y-72000000D03*
%TO.P,U2,11,EnB*%
%TO.N,Net-(U2-EnB)*%
X155770000Y-66920000D03*
%TO.P,U2,12,IN4*%
%TO.N,IN4*%
X154500000Y-72000000D03*
%TO.P,U2,13,OUT3*%
%TO.N,Net-(J4-Pin_1)*%
X153230000Y-66920000D03*
%TO.P,U2,14,OUT4*%
%TO.N,Net-(J4-Pin_2)*%
X151960000Y-72000000D03*
%TO.P,U2,15,SENSE_B*%
%TO.N,unconnected-(U2-SENSE_B-Pad15)*%
X150690000Y-66920000D03*
%TD*%
D11*
%TO.P,C3,1*%
%TO.N,5v*%
X140120000Y-80000000D03*
%TO.P,C3,2*%
%TO.N,GND*%
X142620000Y-80000000D03*
%TD*%
%TO.P,C4,1*%
%TO.N,GND*%
X162337500Y-79750000D03*
%TO.P,C4,2*%
%TO.N,VIN*%
X164837500Y-79750000D03*
%TD*%
D16*
%TO.P,J9,1,Pin_1*%
%TO.N,GND*%
X170370000Y-124500000D03*
D17*
%TO.P,J9,2,Pin_2*%
%TO.N,Net-(J9-Pin_2)*%
X172870000Y-124500000D03*
%TO.P,J9,3,Pin_3*%
%TO.N,TRIG*%
X175370000Y-124500000D03*
%TO.P,J9,4,Pin_4*%
%TO.N,5v*%
X177870000Y-124500000D03*
%TD*%
D18*
%TO.P,TP4,1,1*%
%TO.N,GND*%
X128870000Y-80250000D03*
%TD*%
%TO.P,TP2,1,1*%
%TO.N,5v*%
X116370000Y-80250000D03*
%TD*%
D10*
%TO.P,R2,1*%
%TO.N,ECHO*%
X170720000Y-117800000D03*
%TO.P,R2,2*%
%TO.N,GND*%
X180880000Y-117800000D03*
%TD*%
D19*
%TO.P,J8,1,Pin_1*%
%TO.N,Net-(J2-Pin_7)*%
X138870000Y-124500000D03*
D20*
%TO.P,J8,2,Pin_2*%
%TO.N,GND*%
X141370000Y-124500000D03*
%TD*%
D18*
%TO.P,TP3,1,1*%
%TO.N,VIN*%
X122464286Y-80250000D03*
%TD*%
D19*
%TO.P,J3,1,Pin_1*%
%TO.N,Net-(J3-Pin_1)*%
X177290000Y-69387500D03*
D20*
%TO.P,J3,2,Pin_2*%
%TO.N,Net-(J3-Pin_2)*%
X179790000Y-69387500D03*
%TD*%
D11*
%TO.P,C7,1*%
%TO.N,3v3*%
X140150000Y-113600000D03*
%TO.P,C7,2*%
%TO.N,GND*%
X142650000Y-113600000D03*
%TD*%
D21*
%TO.P,J2,1,Pin_1*%
%TO.N,TRIG*%
X175770000Y-109750000D03*
D22*
%TO.P,J2,2,Pin_2*%
%TO.N,ECHO*%
X173230000Y-109750000D03*
%TO.P,J2,3,Pin_3*%
%TO.N,unconnected-(J2-Pin_3-Pad3)*%
X170690000Y-109750000D03*
%TO.P,J2,4,Pin_4*%
%TO.N,unconnected-(J2-Pin_4-Pad4)*%
X168150000Y-109750000D03*
%TO.P,J2,5,Pin_5*%
%TO.N,BB_OUT*%
X165610000Y-109750000D03*
%TO.P,J2,6,Pin_6*%
%TO.N,Net-(BZ1-+)*%
X163070000Y-109750000D03*
%TO.P,J2,7,Pin_7*%
%TO.N,Net-(J2-Pin_7)*%
X160530000Y-109750000D03*
%TO.P,J2,8,Pin_8*%
%TO.N,unconnected-(J2-Pin_8-Pad8)*%
X157990000Y-109750000D03*
%TO.P,J2,9,Pin_9*%
%TO.N,unconnected-(J2-Pin_9-Pad9)*%
X155450000Y-109750000D03*
%TO.P,J2,10,Pin_10*%
%TO.N,LF_R_OUT*%
X152910000Y-109750000D03*
%TO.P,J2,11,Pin_11*%
%TO.N,LF_L_OUT*%
X150370000Y-109750000D03*
%TO.P,J2,12,Pin_12*%
%TO.N,unconnected-(J2-Pin_12-Pad12)*%
X147830000Y-109750000D03*
%TO.P,J2,13,Pin_13*%
%TO.N,unconnected-(J2-Pin_13-Pad13)*%
X145290000Y-109750000D03*
%TO.P,J2,14,Pin_14*%
%TO.N,GND*%
X142750000Y-109750000D03*
%TO.P,J2,15,Pin_15*%
%TO.N,3v3*%
X140210000Y-109750000D03*
%TD*%
D23*
%TO.P,J5,1,Pin_1*%
%TO.N,GND*%
X120895000Y-66025000D03*
D20*
%TO.P,J5,2,Pin_2*%
%TO.N,Net-(J5-Pin_2)*%
X118395000Y-66025000D03*
%TD*%
D16*
%TO.P,J13,1,Pin_1*%
%TO.N,3v3*%
X118620000Y-124475000D03*
D17*
%TO.P,J13,2,Pin_2*%
%TO.N,GND*%
X121120000Y-124475000D03*
%TO.P,J13,3,Pin_3*%
%TO.N,BB_OUT*%
X123620000Y-124475000D03*
%TD*%
D19*
%TO.P,J7,1,Pin_1*%
%TO.N,Net-(J2-Pin_7)*%
X130120000Y-124500000D03*
D20*
%TO.P,J7,2,Pin_2*%
%TO.N,GND*%
X132620000Y-124500000D03*
%TD*%
D24*
%TO.P,U1,1,VI*%
%TO.N,VIN*%
X123435000Y-72550000D03*
D25*
%TO.P,U1,2,GND*%
%TO.N,GND*%
X120895000Y-72550000D03*
%TO.P,U1,3,VO*%
%TO.N,5v*%
X118355000Y-72550000D03*
%TD*%
D19*
%TO.P,J4,1,Pin_1*%
%TO.N,Net-(J4-Pin_1)*%
X142587500Y-69387500D03*
D20*
%TO.P,J4,2,Pin_2*%
%TO.N,Net-(J4-Pin_2)*%
X145087500Y-69387500D03*
%TD*%
D16*
%TO.P,J11,1,Pin_1*%
%TO.N,5v*%
X147870000Y-124500000D03*
D17*
%TO.P,J11,2,Pin_2*%
%TO.N,GND*%
X150370000Y-124500000D03*
%TO.P,J11,3,Pin_3*%
%TO.N,LF_R_OUT*%
X152870000Y-124500000D03*
%TD*%
D23*
%TO.P,J6,1,Pin_1*%
%TO.N,VIN*%
X133545000Y-66000000D03*
D20*
%TO.P,J6,2,Pin_2*%
%TO.N,Net-(J5-Pin_2)*%
X131045000Y-66000000D03*
%TD*%
D21*
%TO.P,J1,1,Pin_1*%
%TO.N,unconnected-(J1-Pin_1-Pad1)*%
X175770000Y-83750000D03*
D22*
%TO.P,J1,2,Pin_2*%
%TO.N,unconnected-(J1-Pin_2-Pad2)*%
X173230000Y-83750000D03*
%TO.P,J1,3,Pin_3*%
%TO.N,unconnected-(J1-Pin_3-Pad3)*%
X170690000Y-83750000D03*
%TO.P,J1,4,Pin_4*%
%TO.N,unconnected-(J1-Pin_4-Pad4)*%
X168150000Y-83750000D03*
%TO.P,J1,5,Pin_5*%
%TO.N,unconnected-(J1-Pin_5-Pad5)*%
X165610000Y-83750000D03*
%TO.P,J1,6,Pin_6*%
%TO.N,IN3*%
X163070000Y-83750000D03*
%TO.P,J1,7,Pin_7*%
%TO.N,IN4*%
X160530000Y-83750000D03*
%TO.P,J1,8,Pin_8*%
%TO.N,IN1*%
X157990000Y-83750000D03*
%TO.P,J1,9,Pin_9*%
%TO.N,IN2*%
X155450000Y-83750000D03*
%TO.P,J1,10,Pin_10*%
%TO.N,unconnected-(J1-Pin_10-Pad10)*%
X152910000Y-83750000D03*
%TO.P,J1,11,Pin_11*%
%TO.N,unconnected-(J1-Pin_11-Pad11)*%
X150370000Y-83750000D03*
%TO.P,J1,12,Pin_12*%
%TO.N,unconnected-(J1-Pin_12-Pad12)*%
X147830000Y-83750000D03*
%TO.P,J1,13,Pin_13*%
%TO.N,unconnected-(J1-Pin_13-Pad13)*%
X145290000Y-83750000D03*
%TO.P,J1,14,Pin_14*%
%TO.N,GND*%
X142750000Y-83750000D03*
%TO.P,J1,15,Pin_15*%
%TO.N,5v*%
X140210000Y-83750000D03*
%TD*%
D16*
%TO.P,J10,1,Pin_1*%
%TO.N,5v*%
X159220000Y-124500000D03*
D17*
%TO.P,J10,2,Pin_2*%
%TO.N,GND*%
X161720000Y-124500000D03*
%TO.P,J10,3,Pin_3*%
%TO.N,LF_L_OUT*%
X164220000Y-124500000D03*
%TD*%
D18*
%TO.P,TP1,1,1*%
%TO.N,3v3*%
X116370000Y-95500000D03*
%TD*%
D10*
%TO.P,R1,1*%
%TO.N,Net-(J9-Pin_2)*%
X180880000Y-114200000D03*
%TO.P,R1,2*%
%TO.N,ECHO*%
X170720000Y-114200000D03*
%TD*%
D11*
%TO.P,C2,1*%
%TO.N,GND*%
X159120000Y-63500000D03*
%TO.P,C2,2*%
%TO.N,5v*%
X156620000Y-63500000D03*
%TD*%
D26*
%TO.P,BZ1,1,+*%
%TO.N,Net-(BZ1-+)*%
X122370000Y-106700000D03*
D27*
%TO.P,BZ1,2,-*%
%TO.N,GND*%
X122370000Y-114300000D03*
%TD*%
D28*
%TO.N,VIN*%
X152600000Y-75400000D03*
%TD*%
D29*
%TO.N,5v*%
X144820000Y-72800000D02*
X137945000Y-72800000D01*
X137945000Y-72800000D02*
X137395000Y-72250000D01*
X156370000Y-68750000D02*
X148870000Y-68750000D01*
X148870000Y-68750000D02*
X144820000Y-72800000D01*
X158310000Y-66920000D02*
X158200000Y-66920000D01*
X158200000Y-66920000D02*
X156370000Y-68750000D01*
D30*
%TO.N,Net-(BZ1-+)*%
X160020000Y-106700000D02*
X163070000Y-109750000D01*
X122370000Y-106700000D02*
X160020000Y-106700000D01*
D29*
%TO.N,5v*%
X183250000Y-119120000D02*
X183250000Y-95380000D01*
X183250000Y-95380000D02*
X177620000Y-89750000D01*
X171950000Y-63500000D02*
X171950000Y-63580000D01*
X174620000Y-66250000D02*
X174620000Y-74697500D01*
X177870000Y-124500000D02*
X183250000Y-119120000D01*
X177620000Y-89750000D02*
X146210000Y-89750000D01*
X171950000Y-63580000D02*
X174620000Y-66250000D01*
X146210000Y-89750000D02*
X140210000Y-83750000D01*
X174620000Y-74697500D02*
X172237500Y-77080000D01*
%TO.N,VIN*%
X160487500Y-75400000D02*
X152600000Y-75400000D01*
X164837500Y-79750000D02*
X160487500Y-75400000D01*
D30*
%TO.N,IN1*%
X150120000Y-75880000D02*
X157990000Y-83750000D01*
X151620000Y-70250000D02*
X150120000Y-71750000D01*
X160060000Y-70250000D02*
X151620000Y-70250000D01*
X163390000Y-66920000D02*
X160060000Y-70250000D01*
X150120000Y-71750000D02*
X150120000Y-75880000D01*
%TO.N,IN2*%
X148620000Y-76920000D02*
X155450000Y-83750000D01*
X160850000Y-66920000D02*
X158270000Y-69500000D01*
X148620000Y-71250000D02*
X148620000Y-76920000D01*
X158270000Y-69500000D02*
X150370000Y-69500000D01*
X150370000Y-69500000D02*
X148620000Y-71250000D01*
%TO.N,TRIG*%
X175770000Y-124100000D02*
X175370000Y-124500000D01*
X175770000Y-109750000D02*
X175770000Y-124100000D01*
%TO.N,LF_R_OUT*%
X153000000Y-109750000D02*
X152910000Y-109750000D01*
%TO.N,LF_L_OUT*%
X160200000Y-111800000D02*
X152420000Y-111800000D01*
X164220000Y-115820000D02*
X160200000Y-111800000D01*
X152420000Y-111800000D02*
X150370000Y-109750000D01*
X164220000Y-124500000D02*
X164220000Y-115820000D01*
%TO.N,BB_OUT*%
X163200000Y-129000000D02*
X167600000Y-124600000D01*
X167600000Y-124600000D02*
X167600000Y-111800000D01*
X165600000Y-109760000D02*
X165610000Y-109750000D01*
X127600000Y-129000000D02*
X163200000Y-129000000D01*
X123620000Y-124475000D02*
X123620000Y-124250000D01*
X123620000Y-124475000D02*
X123620000Y-125020000D01*
X165620000Y-109760000D02*
X165610000Y-109750000D01*
X123620000Y-125020000D02*
X127600000Y-129000000D01*
X165600000Y-109800000D02*
X165600000Y-109760000D01*
X167600000Y-111800000D02*
X165600000Y-109800000D01*
%TO.N,Net-(J2-Pin_7)*%
X142170000Y-127800000D02*
X163400000Y-127800000D01*
X163400000Y-127800000D02*
X166000000Y-125200000D01*
X166000000Y-115220000D02*
X160530000Y-109750000D01*
X166000000Y-125200000D02*
X166000000Y-115220000D01*
X138870000Y-124500000D02*
X142170000Y-127800000D01*
%TD*%
%TA.AperFunction,Conductor*%
%TO.N,GND*%
G36*
X183965788Y-60269454D02*
G01*
X184046570Y-60323430D01*
X184100546Y-60404212D01*
X184119500Y-60499500D01*
X184119500Y-94834480D01*
X184100546Y-94929768D01*
X184046570Y-95010550D01*
X183965788Y-95064526D01*
X183870500Y-95083480D01*
X183775212Y-95064526D01*
X183694430Y-95010550D01*
X183603365Y-94919485D01*
X182383380Y-93699500D01*
X177973365Y-89289485D01*
X177973362Y-89289483D01*
X177973361Y-89289482D01*
X177909659Y-89252704D01*
X177842135Y-89213719D01*
X177842132Y-89213718D01*
X177842134Y-89213718D01*
X177695766Y-89174500D01*
X146551520Y-89174500D01*
X146456232Y-89155546D01*
X146375450Y-89101570D01*
X142785389Y-85511509D01*
X142731413Y-85430727D01*
X142712459Y-85335439D01*
X142731413Y-85240151D01*
X142785389Y-85159369D01*
X142866171Y-85105393D01*
X142922508Y-85089504D01*
X143066128Y-85066757D01*
X143268219Y-85001094D01*
X143285289Y-84992395D01*
X142442995Y-84150100D01*
X142557007Y-84215925D01*
X142684174Y-84250000D01*
X142815826Y-84250000D01*
X142942993Y-84215925D01*
X143057007Y-84150099D01*
X143150099Y-84057007D01*
X143215925Y-83942993D01*
X143250000Y-83815826D01*
X143250000Y-83684174D01*
X143215925Y-83557007D01*
X143150099Y-83442993D01*
X143057007Y-83349901D01*
X142942993Y-83284075D01*
X142815826Y-83250000D01*
X142684174Y-83250000D01*
X142557007Y-83284075D01*
X142442993Y-83349901D01*
X142349901Y-83442993D01*
X142284075Y-83557007D01*
X142250000Y-83684174D01*
X142250000Y-83815826D01*
X142284075Y-83942993D01*
X142349899Y-84057004D01*
X141502761Y-83209868D01*
X141434045Y-83207169D01*
X141345814Y-83166495D01*
X141304159Y-83128304D01*
X141286106Y-83107513D01*
X141279524Y-83094595D01*
X141163828Y-82935354D01*
X141024646Y-82796172D01*
X140939443Y-82734268D01*
X140865410Y-82680479D01*
X140865407Y-82680477D01*
X140865405Y-82680476D01*
X140690025Y-82591116D01*
X140690024Y-82591115D01*
X140690023Y-82591115D01*
X140690017Y-82591113D01*
X140539262Y-82542130D01*
X140502826Y-82530291D01*
X140502824Y-82530290D01*
X140502822Y-82530290D01*
X140359576Y-82507602D01*
X142214710Y-82507602D01*
X142750000Y-83042892D01*
X143285288Y-82507603D01*
X143268214Y-82498904D01*
X143066123Y-82433241D01*
X142856256Y-82400000D01*
X142643743Y-82400000D01*
X142433874Y-82433241D01*
X142433873Y-82433241D01*
X142231793Y-82498900D01*
X142231779Y-82498906D01*
X142214710Y-82507602D01*
X140359576Y-82507602D01*
X140308428Y-82499501D01*
X140308419Y-82499500D01*
X140308417Y-82499500D01*
X140111583Y-82499500D01*
X140111580Y-82499500D01*
X140111571Y-82499501D01*
X139917177Y-82530290D01*
X139729982Y-82591113D01*
X139729976Y-82591115D01*
X139638740Y-82637602D01*
X139554595Y-82680476D01*
X139554592Y-82680477D01*
X139554590Y-82680479D01*
X139554589Y-82680479D01*
X139395357Y-82796169D01*
X139256169Y-82935357D01*
X139140479Y-83094589D01*
X139140479Y-83094590D01*
X139140477Y-83094592D01*
X139140476Y-83094595D01*
X139140022Y-83095487D01*
X139051115Y-83269976D01*
X139051113Y-83269982D01*
X138990290Y-83457177D01*
X138959501Y-83651571D01*
X138959500Y-83651587D01*
X138959500Y-83848412D01*
X138959501Y-83848428D01*
X138990290Y-84042822D01*
X139046534Y-84215925D01*
X139051116Y-84230025D01*
X139140476Y-84405405D01*
X139140479Y-84405409D01*
X139140479Y-84405410D01*
X139141444Y-84406738D01*
X139256172Y-84564646D01*
X139395354Y-84703828D01*
X139395357Y-84703830D01*
X139454967Y-84747140D01*
X139554595Y-84819524D01*
X139729975Y-84908884D01*
X139917174Y-84969709D01*
X140111583Y-85000500D01*
X140111587Y-85000500D01*
X140308413Y-85000500D01*
X140308417Y-85000500D01*
X140475069Y-84974105D01*
X140572146Y-84977919D01*
X140660377Y-85018593D01*
X140690089Y-85043969D01*
X145749485Y-90103365D01*
X145749484Y-90103365D01*
X145856632Y-90210513D01*
X145856635Y-90210515D01*
X145987865Y-90286281D01*
X146134233Y-90325500D01*
X146134234Y-90325500D01*
X177278480Y-90325500D01*
X177373768Y-90344454D01*
X177454550Y-90398430D01*
X182601570Y-95545450D01*
X182655546Y-95626232D01*
X182674500Y-95721520D01*
X182674500Y-118778479D01*
X182655546Y-118873767D01*
X182601570Y-118954549D01*
X178450356Y-123105762D01*
X178369574Y-123159738D01*
X178274286Y-123178692D01*
X178197344Y-123166506D01*
X178162823Y-123155290D01*
X177968428Y-123124501D01*
X177968419Y-123124500D01*
X177968417Y-123124500D01*
X177771583Y-123124500D01*
X177771580Y-123124500D01*
X177771571Y-123124501D01*
X177577177Y-123155290D01*
X177389982Y-123216113D01*
X177389976Y-123216115D01*
X177318255Y-123252659D01*
X177214595Y-123305476D01*
X177214592Y-123305477D01*
X177214590Y-123305479D01*
X177214589Y-123305479D01*
X177055357Y-123421169D01*
X176916169Y-123560357D01*
X176821444Y-123690734D01*
X176792819Y-123717193D01*
X176766363Y-123745816D01*
X176757371Y-123749961D01*
X176750101Y-123756682D01*
X176713532Y-123770172D01*
X176678133Y-123786493D01*
X176668239Y-123786881D01*
X176658950Y-123790309D01*
X176619996Y-123788778D01*
X176581053Y-123790309D01*
X176571765Y-123786882D01*
X176561870Y-123786494D01*
X176526466Y-123770172D01*
X176489903Y-123756684D01*
X176482633Y-123749964D01*
X176473640Y-123745818D01*
X176418558Y-123690737D01*
X176387093Y-123647431D01*
X176323828Y-123560354D01*
X176323816Y-123560342D01*
X176318058Y-123552417D01*
X176301501Y-123516505D01*
X176282335Y-123481909D01*
X176280689Y-123471363D01*
X176277381Y-123464187D01*
X176276643Y-123445431D01*
X176270500Y-123406054D01*
X176270500Y-119005093D01*
X180382011Y-119005093D01*
X180575588Y-119067991D01*
X180777676Y-119099998D01*
X180777692Y-119100000D01*
X180982308Y-119100000D01*
X180982323Y-119099998D01*
X181184412Y-119067991D01*
X181184414Y-119067990D01*
X181377987Y-119005094D01*
X180879999Y-118507106D01*
X180382011Y-119005093D01*
X176270500Y-119005093D01*
X176270500Y-117697692D01*
X179580000Y-117697692D01*
X179580000Y-117902307D01*
X179580001Y-117902323D01*
X179612009Y-118104414D01*
X179674904Y-118297988D01*
X180172893Y-117800000D01*
X180120232Y-117747339D01*
X180480000Y-117747339D01*
X180480000Y-117852661D01*
X180507259Y-117954394D01*
X180559920Y-118045606D01*
X180634394Y-118120080D01*
X180725606Y-118172741D01*
X180827339Y-118200000D01*
X180932661Y-118200000D01*
X181034394Y-118172741D01*
X181125606Y-118120080D01*
X181200080Y-118045606D01*
X181252741Y-117954394D01*
X181280000Y-117852661D01*
X181280000Y-117799999D01*
X181587106Y-117799999D01*
X182085094Y-118297987D01*
X182147990Y-118104414D01*
X182147991Y-118104412D01*
X182176500Y-117924413D01*
X182176500Y-117675585D01*
X182147991Y-117495588D01*
X182085093Y-117302011D01*
X181587106Y-117799999D01*
X181280000Y-117799999D01*
X181280000Y-117747339D01*
X181252741Y-117645606D01*
X181200080Y-117554394D01*
X181125606Y-117479920D01*
X181034394Y-117427259D01*
X180932661Y-117400000D01*
X180827339Y-117400000D01*
X180725606Y-117427259D01*
X180634394Y-117479920D01*
X180559920Y-117554394D01*
X180507259Y-117645606D01*
X180480000Y-117747339D01*
X180120232Y-117747339D01*
X179674904Y-117302011D01*
X179612012Y-117495576D01*
X179612007Y-117495595D01*
X179580001Y-117697676D01*
X179580000Y-117697692D01*
X176270500Y-117697692D01*
X176270500Y-116594904D01*
X180382011Y-116594904D01*
X180880000Y-117092893D01*
X181377988Y-116594904D01*
X181184414Y-116532009D01*
X180982323Y-116500001D01*
X180982308Y-116500000D01*
X180777692Y-116500000D01*
X180777676Y-116500001D01*
X180575595Y-116532007D01*
X180575576Y-116532012D01*
X180382011Y-116594904D01*
X176270500Y-116594904D01*
X176270500Y-114105523D01*
X179679500Y-114105523D01*
X179679500Y-114294476D01*
X179679501Y-114294492D01*
X179702455Y-114439417D01*
X179709060Y-114481118D01*
X179728591Y-114541229D01*
X179764338Y-114651247D01*
X179767453Y-114660832D01*
X179853240Y-114829199D01*
X179964310Y-114982073D01*
X180097927Y-115115690D01*
X180250801Y-115226760D01*
X180419168Y-115312547D01*
X180598882Y-115370940D01*
X180785519Y-115400500D01*
X180785523Y-115400500D01*
X180974477Y-115400500D01*
X180974481Y-115400500D01*
X181161118Y-115370940D01*
X181340832Y-115312547D01*
X181509199Y-115226760D01*
X181662073Y-115115690D01*
X181795690Y-114982073D01*
X181906760Y-114829199D01*
X181992547Y-114660832D01*
X182050940Y-114481118D01*
X182080500Y-114294481D01*
X182080500Y-114105519D01*
X182050940Y-113918882D01*
X181992547Y-113739168D01*
X181906760Y-113570801D01*
X181795690Y-113417927D01*
X181662073Y-113284310D01*
X181662069Y-113284307D01*
X181662068Y-113284306D01*
X181621005Y-113254472D01*
X181509199Y-113173240D01*
X181340832Y-113087453D01*
X181340829Y-113087452D01*
X181340827Y-113087451D01*
X181240893Y-113054980D01*
X181161118Y-113029060D01*
X181161116Y-113029059D01*
X181161114Y-113029059D01*
X180974492Y-112999501D01*
X180974483Y-112999500D01*
X180974481Y-112999500D01*
X180785519Y-112999500D01*
X180785516Y-112999500D01*
X180785507Y-112999501D01*
X180598885Y-113029059D01*
X180419172Y-113087451D01*
X180419168Y-113087452D01*
X180419168Y-113087453D01*
X180250801Y-113173240D01*
X180239944Y-113181128D01*
X180097931Y-113284306D01*
X179964306Y-113417931D01*
X179875454Y-113540226D01*
X179853240Y-113570801D01*
X179775076Y-113724207D01*
X179767451Y-113739172D01*
X179709059Y-113918885D01*
X179679501Y-114105507D01*
X179679500Y-114105523D01*
X176270500Y-114105523D01*
X176270500Y-111249499D01*
X176289454Y-111154211D01*
X176343430Y-111073429D01*
X176424212Y-111019453D01*
X176519500Y-111000499D01*
X176651516Y-111000499D01*
X176651518Y-111000499D01*
X176745304Y-110985646D01*
X176858342Y-110928050D01*
X176948050Y-110838342D01*
X177005646Y-110725304D01*
X177009048Y-110703828D01*
X177020498Y-110631530D01*
X177020500Y-110631519D01*
X177020499Y-108868482D01*
X177005646Y-108774696D01*
X176948050Y-108661658D01*
X176858342Y-108571950D01*
X176858339Y-108571948D01*
X176745303Y-108514353D01*
X176745299Y-108514352D01*
X176651530Y-108499501D01*
X176651522Y-108499500D01*
X176651519Y-108499500D01*
X176651514Y-108499500D01*
X174888484Y-108499500D01*
X174794695Y-108514354D01*
X174681659Y-108571949D01*
X174591948Y-108661660D01*
X174525458Y-108792156D01*
X174524658Y-108791748D01*
X174487073Y-108858853D01*
X174410772Y-108918997D01*
X174317263Y-108945363D01*
X174220782Y-108933937D01*
X174136018Y-108886460D01*
X174121685Y-108873211D01*
X174044646Y-108796172D01*
X174044642Y-108796169D01*
X173885410Y-108680479D01*
X173885407Y-108680477D01*
X173885405Y-108680476D01*
X173710025Y-108591116D01*
X173710024Y-108591115D01*
X173710023Y-108591115D01*
X173710017Y-108591113D01*
X173543055Y-108536864D01*
X173522826Y-108530291D01*
X173522824Y-108530290D01*
X173522822Y-108530290D01*
X173328428Y-108499501D01*
X173328419Y-108499500D01*
X173328417Y-108499500D01*
X173131583Y-108499500D01*
X173131580Y-108499500D01*
X173131571Y-108499501D01*
X172937177Y-108530290D01*
X172749982Y-108591113D01*
X172749976Y-108591115D01*
X172658740Y-108637602D01*
X172574595Y-108680476D01*
X172574592Y-108680477D01*
X172574590Y-108680479D01*
X172574589Y-108680479D01*
X172415357Y-108796169D01*
X172276169Y-108935357D01*
X172161444Y-109093261D01*
X172090100Y-109159209D01*
X171998950Y-109192836D01*
X171901870Y-109189021D01*
X171813640Y-109148345D01*
X171758556Y-109093261D01*
X171643830Y-108935357D01*
X171643828Y-108935354D01*
X171504646Y-108796172D01*
X171504642Y-108796169D01*
X171345410Y-108680479D01*
X171345407Y-108680477D01*
X171345405Y-108680476D01*
X171170025Y-108591116D01*
X171170024Y-108591115D01*
X171170023Y-108591115D01*
X171170017Y-108591113D01*
X171003055Y-108536864D01*
X170982826Y-108530291D01*
X170982824Y-108530290D01*
X170982822Y-108530290D01*
X170788428Y-108499501D01*
X170788419Y-108499500D01*
X170788417Y-108499500D01*
X170591583Y-108499500D01*
X170591580Y-108499500D01*
X170591571Y-108499501D01*
X170397177Y-108530290D01*
X170209982Y-108591113D01*
X170209976Y-108591115D01*
X170118740Y-108637602D01*
X170034595Y-108680476D01*
X170034592Y-108680477D01*
X170034590Y-108680479D01*
X170034589Y-108680479D01*
X169875357Y-108796169D01*
X169736169Y-108935357D01*
X169621444Y-109093261D01*
X169550100Y-109159209D01*
X169458950Y-109192836D01*
X169361870Y-109189021D01*
X169273640Y-109148345D01*
X169218556Y-109093261D01*
X169103830Y-108935357D01*
X169103828Y-108935354D01*
X168964646Y-108796172D01*
X168964642Y-108796169D01*
X168805410Y-108680479D01*
X168805407Y-108680477D01*
X168805405Y-108680476D01*
X168630025Y-108591116D01*
X168630024Y-108591115D01*
X168630023Y-108591115D01*
X168630017Y-108591113D01*
X168463055Y-108536864D01*
X168442826Y-108530291D01*
X168442824Y-108530290D01*
X168442822Y-108530290D01*
X168248428Y-108499501D01*
X168248419Y-108499500D01*
X168248417Y-108499500D01*
X168051583Y-108499500D01*
X168051580Y-108499500D01*
X168051571Y-108499501D01*
X167857177Y-108530290D01*
X167669982Y-108591113D01*
X167669976Y-108591115D01*
X167578740Y-108637602D01*
X167494595Y-108680476D01*
X167494592Y-108680477D01*
X167494590Y-108680479D01*
X167494589Y-108680479D01*
X167335357Y-108796169D01*
X167196169Y-108935357D01*
X167081444Y-109093261D01*
X167010100Y-109159209D01*
X166918950Y-109192836D01*
X166821870Y-109189021D01*
X166733640Y-109148345D01*
X166678556Y-109093261D01*
X166563830Y-108935357D01*
X166563828Y-108935354D01*
X166424646Y-108796172D01*
X166424642Y-108796169D01*
X166265410Y-108680479D01*
X166265407Y-108680477D01*
X166265405Y-108680476D01*
X166090025Y-108591116D01*
X166090024Y-108591115D01*
X166090023Y-108591115D01*
X166090017Y-108591113D01*
X165923055Y-108536864D01*
X165902826Y-108530291D01*
X165902824Y-108530290D01*
X165902822Y-108530290D01*
X165708428Y-108499501D01*
X165708419Y-108499500D01*
X165708417Y-108499500D01*
X165511583Y-108499500D01*
X165511580Y-108499500D01*
X165511571Y-108499501D01*
X165317177Y-108530290D01*
X165129982Y-108591113D01*
X165129976Y-108591115D01*
X165038740Y-108637602D01*
X164954595Y-108680476D01*
X164954592Y-108680477D01*
X164954590Y-108680479D01*
X164954589Y-108680479D01*
X164795357Y-108796169D01*
X164656169Y-108935357D01*
X164541444Y-109093261D01*
X164470100Y-109159209D01*
X164378950Y-109192836D01*
X164281870Y-109189021D01*
X164193640Y-109148345D01*
X164138556Y-109093261D01*
X164023830Y-108935357D01*
X164023828Y-108935354D01*
X163884646Y-108796172D01*
X163884642Y-108796169D01*
X163725410Y-108680479D01*
X163725407Y-108680477D01*
X163725405Y-108680476D01*
X163550025Y-108591116D01*
X163550024Y-108591115D01*
X163550023Y-108591115D01*
X163550017Y-108591113D01*
X163383055Y-108536864D01*
X163362826Y-108530291D01*
X163362824Y-108530290D01*
X163362822Y-108530290D01*
X163168428Y-108499501D01*
X163168419Y-108499500D01*
X163168417Y-108499500D01*
X162971583Y-108499500D01*
X162971580Y-108499500D01*
X162971571Y-108499501D01*
X162777176Y-108530290D01*
X162777175Y-108530290D01*
X162756942Y-108536864D01*
X162660460Y-108548281D01*
X162566953Y-108521907D01*
X162503933Y-108476119D01*
X161477314Y-107449500D01*
X160327314Y-106299500D01*
X160213186Y-106233608D01*
X160213183Y-106233607D01*
X160213181Y-106233606D01*
X160085892Y-106199500D01*
X124019499Y-106199500D01*
X123924211Y-106180546D01*
X123843429Y-106126570D01*
X123789453Y-106045788D01*
X123770499Y-105950500D01*
X123770499Y-105668484D01*
X123770497Y-105668469D01*
X123755646Y-105574696D01*
X123698050Y-105461658D01*
X123608342Y-105371950D01*
X123608339Y-105371948D01*
X123495303Y-105314353D01*
X123495299Y-105314352D01*
X123401530Y-105299501D01*
X123401522Y-105299500D01*
X123401519Y-105299500D01*
X123401514Y-105299500D01*
X121338484Y-105299500D01*
X121244695Y-105314354D01*
X121131659Y-105371949D01*
X121041948Y-105461660D01*
X120984353Y-105574696D01*
X120984352Y-105574700D01*
X120969501Y-105668469D01*
X120969500Y-105668485D01*
X120969500Y-107731515D01*
X120984353Y-107825299D01*
X120984354Y-107825304D01*
X121041950Y-107938342D01*
X121131658Y-108028050D01*
X121131660Y-108028051D01*
X121244696Y-108085646D01*
X121244700Y-108085647D01*
X121318462Y-108097329D01*
X121338481Y-108100500D01*
X123401518Y-108100499D01*
X123495304Y-108085646D01*
X123608342Y-108028050D01*
X123698050Y-107938342D01*
X123755646Y-107825304D01*
X123770500Y-107731519D01*
X123770500Y-107449500D01*
X123789454Y-107354212D01*
X123843430Y-107273430D01*
X123924212Y-107219454D01*
X124019500Y-107200500D01*
X159709546Y-107200500D01*
X159804834Y-107219454D01*
X159885616Y-107273430D01*
X160686616Y-108074430D01*
X160740592Y-108155212D01*
X160759546Y-108250500D01*
X160740592Y-108345788D01*
X160686616Y-108426570D01*
X160605834Y-108480546D01*
X160510546Y-108499500D01*
X160431583Y-108499500D01*
X160431580Y-108499500D01*
X160431571Y-108499501D01*
X160237177Y-108530290D01*
X160049982Y-108591113D01*
X160049976Y-108591115D01*
X159958740Y-108637602D01*
X159874595Y-108680476D01*
X159874592Y-108680477D01*
X159874590Y-108680479D01*
X159874589Y-108680479D01*
X159715357Y-108796169D01*
X159576169Y-108935357D01*
X159461444Y-109093261D01*
X159390100Y-109159209D01*
X159298950Y-109192836D01*
X159201870Y-109189021D01*
X159113640Y-109148345D01*
X159058556Y-109093261D01*
X158943830Y-108935357D01*
X158943828Y-108935354D01*
X158804646Y-108796172D01*
X158804642Y-108796169D01*
X158645410Y-108680479D01*
X158645407Y-108680477D01*
X158645405Y-108680476D01*
X158470025Y-108591116D01*
X158470024Y-108591115D01*
X158470023Y-108591115D01*
X158470017Y-108591113D01*
X158303055Y-108536864D01*
X158282826Y-108530291D01*
X158282824Y-108530290D01*
X158282822Y-108530290D01*
X158088428Y-108499501D01*
X158088419Y-108499500D01*
X158088417Y-108499500D01*
X157891583Y-108499500D01*
X157891580Y-108499500D01*
X157891571Y-108499501D01*
X157697177Y-108530290D01*
X157509982Y-108591113D01*
X157509976Y-108591115D01*
X157418740Y-108637602D01*
X157334595Y-108680476D01*
X157334592Y-108680477D01*
X157334590Y-108680479D01*
X157334589Y-108680479D01*
X157175357Y-108796169D01*
X157036169Y-108935357D01*
X156921444Y-109093261D01*
X156850100Y-109159209D01*
X156758950Y-109192836D01*
X156661870Y-109189021D01*
X156573640Y-109148345D01*
X156518556Y-109093261D01*
X156403830Y-108935357D01*
X156403828Y-108935354D01*
X156264646Y-108796172D01*
X156264642Y-108796169D01*
X156105410Y-108680479D01*
X156105407Y-108680477D01*
X156105405Y-108680476D01*
X155930025Y-108591116D01*
X155930024Y-108591115D01*
X155930023Y-108591115D01*
X155930017Y-108591113D01*
X155763055Y-108536864D01*
X155742826Y-108530291D01*
X155742824Y-108530290D01*
X155742822Y-108530290D01*
X155548428Y-108499501D01*
X155548419Y-108499500D01*
X155548417Y-108499500D01*
X155351583Y-108499500D01*
X155351580Y-108499500D01*
X155351571Y-108499501D01*
X155157177Y-108530290D01*
X154969982Y-108591113D01*
X154969976Y-108591115D01*
X154878740Y-108637602D01*
X154794595Y-108680476D01*
X154794592Y-108680477D01*
X154794590Y-108680479D01*
X154794589Y-108680479D01*
X154635357Y-108796169D01*
X154496169Y-108935357D01*
X154381444Y-109093261D01*
X154310100Y-109159209D01*
X154218950Y-109192836D01*
X154121870Y-109189021D01*
X154033640Y-109148345D01*
X153978556Y-109093261D01*
X153863830Y-108935357D01*
X153863828Y-108935354D01*
X153724646Y-108796172D01*
X153724642Y-108796169D01*
X153565410Y-108680479D01*
X153565407Y-108680477D01*
X153565405Y-108680476D01*
X153390025Y-108591116D01*
X153390024Y-108591115D01*
X153390023Y-108591115D01*
X153390017Y-108591113D01*
X153223055Y-108536864D01*
X153202826Y-108530291D01*
X153202824Y-108530290D01*
X153202822Y-108530290D01*
X153008428Y-108499501D01*
X153008419Y-108499500D01*
X153008417Y-108499500D01*
X152811583Y-108499500D01*
X152811580Y-108499500D01*
X152811571Y-108499501D01*
X152617177Y-108530290D01*
X152429982Y-108591113D01*
X152429976Y-108591115D01*
X152338740Y-108637602D01*
X152254595Y-108680476D01*
X152254592Y-108680477D01*
X152254590Y-108680479D01*
X152254589Y-108680479D01*
X152095357Y-108796169D01*
X151956169Y-108935357D01*
X151841444Y-109093261D01*
X151770100Y-109159209D01*
X151678950Y-109192836D01*
X151581870Y-109189021D01*
X151493640Y-109148345D01*
X151438556Y-109093261D01*
X151323830Y-108935357D01*
X151323828Y-108935354D01*
X151184646Y-108796172D01*
X151184642Y-108796169D01*
X151025410Y-108680479D01*
X151025407Y-108680477D01*
X151025405Y-108680476D01*
X150850025Y-108591116D01*
X150850024Y-108591115D01*
X150850023Y-108591115D01*
X150850017Y-108591113D01*
X150683055Y-108536864D01*
X150662826Y-108530291D01*
X150662824Y-108530290D01*
X150662822Y-108530290D01*
X150468428Y-108499501D01*
X150468419Y-108499500D01*
X150468417Y-108499500D01*
X150271583Y-108499500D01*
X150271580Y-108499500D01*
X150271571Y-108499501D01*
X150077177Y-108530290D01*
X149889982Y-108591113D01*
X149889976Y-108591115D01*
X149798740Y-108637602D01*
X149714595Y-108680476D01*
X149714592Y-108680477D01*
X149714590Y-108680479D01*
X149714589Y-108680479D01*
X149555357Y-108796169D01*
X149416169Y-108935357D01*
X149301444Y-109093261D01*
X149230100Y-109159209D01*
X149138950Y-109192836D01*
X149041870Y-109189021D01*
X148953640Y-109148345D01*
X148898556Y-109093261D01*
X148783830Y-108935357D01*
X148783828Y-108935354D01*
X148644646Y-108796172D01*
X148644642Y-108796169D01*
X148485410Y-108680479D01*
X148485407Y-108680477D01*
X148485405Y-108680476D01*
X148310025Y-108591116D01*
X148310024Y-108591115D01*
X148310023Y-108591115D01*
X148310017Y-108591113D01*
X148143055Y-108536864D01*
X148122826Y-108530291D01*
X148122824Y-108530290D01*
X148122822Y-108530290D01*
X147928428Y-108499501D01*
X147928419Y-108499500D01*
X147928417Y-108499500D01*
X147731583Y-108499500D01*
X147731580Y-108499500D01*
X147731571Y-108499501D01*
X147537177Y-108530290D01*
X147349982Y-108591113D01*
X147349976Y-108591115D01*
X147258740Y-108637602D01*
X147174595Y-108680476D01*
X147174592Y-108680477D01*
X147174590Y-108680479D01*
X147174589Y-108680479D01*
X147015357Y-108796169D01*
X146876169Y-108935357D01*
X146761444Y-109093261D01*
X146690100Y-109159209D01*
X146598950Y-109192836D01*
X146501870Y-109189021D01*
X146413640Y-109148345D01*
X146358556Y-109093261D01*
X146243830Y-108935357D01*
X146243828Y-108935354D01*
X146104646Y-108796172D01*
X146104642Y-108796169D01*
X145945410Y-108680479D01*
X145945407Y-108680477D01*
X145945405Y-108680476D01*
X145770025Y-108591116D01*
X145770024Y-108591115D01*
X145770023Y-108591115D01*
X145770017Y-108591113D01*
X145603055Y-108536864D01*
X145582826Y-108530291D01*
X145582824Y-108530290D01*
X145582822Y-108530290D01*
X145388428Y-108499501D01*
X145388419Y-108499500D01*
X145388417Y-108499500D01*
X145191583Y-108499500D01*
X145191580Y-108499500D01*
X145191571Y-108499501D01*
X144997177Y-108530290D01*
X144809982Y-108591113D01*
X144809976Y-108591115D01*
X144718740Y-108637602D01*
X144634595Y-108680476D01*
X144634592Y-108680477D01*
X144634590Y-108680479D01*
X144634589Y-108680479D01*
X144475357Y-108796169D01*
X144336169Y-108935357D01*
X144220471Y-109094600D01*
X144220126Y-109095164D01*
X144219826Y-109095487D01*
X144214724Y-109102511D01*
X144213892Y-109101906D01*
X144154173Y-109166503D01*
X144065940Y-109207173D01*
X143997235Y-109209871D01*
X143457106Y-109750000D01*
X143997234Y-110290127D01*
X144065958Y-110292829D01*
X144154188Y-110333506D01*
X144213891Y-110398094D01*
X144214724Y-110397489D01*
X144219837Y-110404527D01*
X144220136Y-110404850D01*
X144220139Y-110404855D01*
X144220479Y-110405410D01*
X144221444Y-110406738D01*
X144336172Y-110564646D01*
X144475354Y-110703828D01*
X144634595Y-110819524D01*
X144809975Y-110908884D01*
X144997174Y-110969709D01*
X145191583Y-111000500D01*
X145191587Y-111000500D01*
X145388413Y-111000500D01*
X145388417Y-111000500D01*
X145582826Y-110969709D01*
X145770025Y-110908884D01*
X145945405Y-110819524D01*
X146104646Y-110703828D01*
X146243828Y-110564646D01*
X146358556Y-110406736D01*
X146429899Y-110340790D01*
X146521049Y-110307163D01*
X146618129Y-110310978D01*
X146706360Y-110351653D01*
X146761443Y-110406736D01*
X146876172Y-110564646D01*
X147015354Y-110703828D01*
X147174595Y-110819524D01*
X147349975Y-110908884D01*
X147537174Y-110969709D01*
X147731583Y-111000500D01*
X147731587Y-111000500D01*
X147928413Y-111000500D01*
X147928417Y-111000500D01*
X148122826Y-110969709D01*
X148310025Y-110908884D01*
X148485405Y-110819524D01*
X148644646Y-110703828D01*
X148783828Y-110564646D01*
X148898556Y-110406736D01*
X148969899Y-110340790D01*
X149061049Y-110307163D01*
X149158129Y-110310978D01*
X149246360Y-110351653D01*
X149301443Y-110406736D01*
X149416172Y-110564646D01*
X149555354Y-110703828D01*
X149714595Y-110819524D01*
X149889975Y-110908884D01*
X150077174Y-110969709D01*
X150271583Y-111000500D01*
X150271587Y-111000500D01*
X150468413Y-111000500D01*
X150468417Y-111000500D01*
X150609929Y-110978087D01*
X150662821Y-110969710D01*
X150662823Y-110969709D01*
X150662826Y-110969709D01*
X150683046Y-110963138D01*
X150779526Y-110951717D01*
X150873034Y-110978087D01*
X150936066Y-111023880D01*
X152112686Y-112200500D01*
X152226814Y-112266392D01*
X152354108Y-112300500D01*
X152485893Y-112300500D01*
X159889546Y-112300500D01*
X159984834Y-112319454D01*
X160065616Y-112373430D01*
X163646570Y-115954384D01*
X163700546Y-116035166D01*
X163719500Y-116130454D01*
X163719500Y-123073960D01*
X163700546Y-123169248D01*
X163646570Y-123250030D01*
X163583547Y-123295819D01*
X163564600Y-123305473D01*
X163564597Y-123305474D01*
X163564595Y-123305476D01*
X163509817Y-123345275D01*
X163405356Y-123421170D01*
X163266170Y-123560356D01*
X163232937Y-123606097D01*
X163161593Y-123672045D01*
X163070442Y-123705670D01*
X162973362Y-123701854D01*
X162885132Y-123661178D01*
X162830049Y-123606094D01*
X162749724Y-123495537D01*
X162599462Y-123345275D01*
X162427553Y-123220376D01*
X162238231Y-123123911D01*
X162238208Y-123123901D01*
X162220000Y-123117984D01*
X162220000Y-125882013D01*
X162238216Y-125876095D01*
X162238230Y-125876088D01*
X162427553Y-125779623D01*
X162599462Y-125654724D01*
X162749727Y-125504459D01*
X162830049Y-125393906D01*
X162901392Y-125327957D01*
X162992542Y-125294330D01*
X163089622Y-125298144D01*
X163177852Y-125338819D01*
X163232938Y-125393904D01*
X163266169Y-125439642D01*
X163266172Y-125439646D01*
X163405354Y-125578828D01*
X163429928Y-125596682D01*
X163547610Y-125682184D01*
X163564595Y-125694524D01*
X163739975Y-125783884D01*
X163927174Y-125844709D01*
X163971592Y-125851744D01*
X164066316Y-125866747D01*
X164157466Y-125900373D01*
X164228809Y-125966322D01*
X164269484Y-126054552D01*
X164273298Y-126151633D01*
X164239672Y-126242783D01*
X164203434Y-126288750D01*
X163265616Y-127226569D01*
X163184834Y-127280546D01*
X163089546Y-127299500D01*
X158574525Y-127299500D01*
X158479237Y-127280546D01*
X158398455Y-127226570D01*
X158344479Y-127145788D01*
X158325525Y-127050500D01*
X158344479Y-126955212D01*
X158367489Y-126912164D01*
X158373698Y-126902870D01*
X158373703Y-126902863D01*
X158437816Y-126748082D01*
X158470500Y-126583767D01*
X158470500Y-126416233D01*
X158437816Y-126251918D01*
X158427461Y-126226918D01*
X158424508Y-126219789D01*
X158405553Y-126124501D01*
X158424506Y-126029213D01*
X158478482Y-125948431D01*
X158559264Y-125894455D01*
X158654552Y-125875500D01*
X159885692Y-125875500D01*
X159885694Y-125875500D01*
X159922569Y-125872598D01*
X160080398Y-125826744D01*
X160221865Y-125743081D01*
X160338081Y-125626865D01*
X160351046Y-125604941D01*
X160415857Y-125532578D01*
X160503437Y-125490520D01*
X160600445Y-125485178D01*
X160692113Y-125517366D01*
X160741438Y-125555625D01*
X160840537Y-125654724D01*
X161012446Y-125779623D01*
X161201769Y-125876088D01*
X161201783Y-125876095D01*
X161220000Y-125882013D01*
X161220000Y-124437465D01*
X161245000Y-124437465D01*
X161245000Y-124562535D01*
X161277370Y-124683343D01*
X161339905Y-124791657D01*
X161428343Y-124880095D01*
X161536657Y-124942630D01*
X161657465Y-124975000D01*
X161782535Y-124975000D01*
X161903343Y-124942630D01*
X162011657Y-124880095D01*
X162100095Y-124791657D01*
X162162630Y-124683343D01*
X162195000Y-124562535D01*
X162195000Y-124437465D01*
X162162630Y-124316657D01*
X162100095Y-124208343D01*
X162011657Y-124119905D01*
X161903343Y-124057370D01*
X161782535Y-124025000D01*
X161657465Y-124025000D01*
X161536657Y-124057370D01*
X161428343Y-124119905D01*
X161339905Y-124208343D01*
X161277370Y-124316657D01*
X161245000Y-124437465D01*
X161220000Y-124437465D01*
X161220000Y-123117984D01*
X161219999Y-123117984D01*
X161201791Y-123123901D01*
X161201768Y-123123911D01*
X161012446Y-123220376D01*
X160840535Y-123345277D01*
X160840531Y-123345280D01*
X160741437Y-123444374D01*
X160660655Y-123498350D01*
X160565367Y-123517304D01*
X160470079Y-123498350D01*
X160389298Y-123444373D01*
X160351045Y-123395056D01*
X160338081Y-123373135D01*
X160221865Y-123256919D01*
X160080398Y-123173256D01*
X159922569Y-123127402D01*
X159922566Y-123127401D01*
X159922563Y-123127401D01*
X159885704Y-123124500D01*
X159885694Y-123124500D01*
X158554306Y-123124500D01*
X158554295Y-123124500D01*
X158517436Y-123127401D01*
X158517427Y-123127403D01*
X158359601Y-123173256D01*
X158218135Y-123256919D01*
X158101919Y-123373135D01*
X158018256Y-123514601D01*
X157972403Y-123672427D01*
X157972401Y-123672436D01*
X157969500Y-123709295D01*
X157969500Y-125290704D01*
X157972401Y-125327563D01*
X157972404Y-125327579D01*
X157973946Y-125332886D01*
X157974462Y-125338851D01*
X157974689Y-125340091D01*
X157974571Y-125340112D01*
X157982329Y-125429679D01*
X157953033Y-125522312D01*
X157890517Y-125596682D01*
X157804301Y-125641467D01*
X157710440Y-125650156D01*
X157703776Y-125649500D01*
X157703767Y-125649500D01*
X157536233Y-125649500D01*
X157371918Y-125682184D01*
X157371913Y-125682185D01*
X157217140Y-125746295D01*
X157217135Y-125746298D01*
X157077841Y-125839371D01*
X156959371Y-125957841D01*
X156866298Y-126097135D01*
X156866295Y-126097140D01*
X156802185Y-126251913D01*
X156802184Y-126251917D01*
X156802184Y-126251918D01*
X156772723Y-126400033D01*
X156769500Y-126416234D01*
X156769500Y-126583765D01*
X156802185Y-126748086D01*
X156866295Y-126902859D01*
X156866301Y-126902870D01*
X156872511Y-126912164D01*
X156909691Y-127001923D01*
X156909690Y-127099078D01*
X156872510Y-127188838D01*
X156803811Y-127257536D01*
X156714052Y-127294716D01*
X156665475Y-127299500D01*
X147224525Y-127299500D01*
X147129237Y-127280546D01*
X147048455Y-127226570D01*
X146994479Y-127145788D01*
X146975525Y-127050500D01*
X146994479Y-126955212D01*
X147017489Y-126912164D01*
X147023698Y-126902870D01*
X147023703Y-126902863D01*
X147087816Y-126748082D01*
X147120500Y-126583767D01*
X147120500Y-126416233D01*
X147087816Y-126251918D01*
X147077461Y-126226918D01*
X147074508Y-126219789D01*
X147055553Y-126124501D01*
X147074506Y-126029213D01*
X147128482Y-125948431D01*
X147209264Y-125894455D01*
X147304552Y-125875500D01*
X148535692Y-125875500D01*
X148535694Y-125875500D01*
X148572569Y-125872598D01*
X148730398Y-125826744D01*
X148871865Y-125743081D01*
X148988081Y-125626865D01*
X149001046Y-125604941D01*
X149065857Y-125532578D01*
X149153437Y-125490520D01*
X149250445Y-125485178D01*
X149342113Y-125517366D01*
X149391438Y-125555625D01*
X149490537Y-125654724D01*
X149662446Y-125779623D01*
X149851769Y-125876088D01*
X149851783Y-125876095D01*
X149870000Y-125882013D01*
X150870000Y-125882013D01*
X150888216Y-125876095D01*
X150888230Y-125876088D01*
X151077553Y-125779623D01*
X151249462Y-125654724D01*
X151399727Y-125504459D01*
X151480049Y-125393906D01*
X151551392Y-125327957D01*
X151642542Y-125294330D01*
X151739622Y-125298144D01*
X151827852Y-125338819D01*
X151882938Y-125393904D01*
X151916169Y-125439642D01*
X151916172Y-125439646D01*
X152055354Y-125578828D01*
X152079928Y-125596682D01*
X152197610Y-125682184D01*
X152214595Y-125694524D01*
X152389975Y-125783884D01*
X152577174Y-125844709D01*
X152771583Y-125875500D01*
X152771587Y-125875500D01*
X152968413Y-125875500D01*
X152968417Y-125875500D01*
X153162826Y-125844709D01*
X153350025Y-125783884D01*
X153525405Y-125694524D01*
X153684646Y-125578828D01*
X153823828Y-125439646D01*
X153939524Y-125280405D01*
X154028884Y-125105025D01*
X154089709Y-124917826D01*
X154120500Y-124723417D01*
X154120500Y-124276583D01*
X154089709Y-124082174D01*
X154028884Y-123894975D01*
X153939524Y-123719595D01*
X153926634Y-123701854D01*
X153838899Y-123581097D01*
X153823828Y-123560354D01*
X153684646Y-123421172D01*
X153628219Y-123380175D01*
X153525410Y-123305479D01*
X153525407Y-123305477D01*
X153525405Y-123305476D01*
X153350025Y-123216116D01*
X153350024Y-123216115D01*
X153350023Y-123216115D01*
X153350017Y-123216113D01*
X153234846Y-123178692D01*
X153162826Y-123155291D01*
X153162824Y-123155290D01*
X153162822Y-123155290D01*
X152968428Y-123124501D01*
X152968419Y-123124500D01*
X152968417Y-123124500D01*
X152771583Y-123124500D01*
X152771580Y-123124500D01*
X152771571Y-123124501D01*
X152577177Y-123155290D01*
X152389982Y-123216113D01*
X152389976Y-123216115D01*
X152318255Y-123252659D01*
X152214595Y-123305476D01*
X152214592Y-123305477D01*
X152214590Y-123305479D01*
X152214589Y-123305479D01*
X152055357Y-123421169D01*
X151916170Y-123560356D01*
X151882937Y-123606097D01*
X151811593Y-123672045D01*
X151720442Y-123705670D01*
X151623362Y-123701854D01*
X151535132Y-123661178D01*
X151480049Y-123606094D01*
X151399724Y-123495537D01*
X151249462Y-123345275D01*
X151077553Y-123220376D01*
X150888231Y-123123911D01*
X150888208Y-123123901D01*
X150870000Y-123117984D01*
X150870000Y-125882013D01*
X149870000Y-125882013D01*
X149870000Y-124437465D01*
X149895000Y-124437465D01*
X149895000Y-124562535D01*
X149927370Y-124683343D01*
X149989905Y-124791657D01*
X150078343Y-124880095D01*
X150186657Y-124942630D01*
X150307465Y-124975000D01*
X150432535Y-124975000D01*
X150553343Y-124942630D01*
X150661657Y-124880095D01*
X150750095Y-124791657D01*
X150812630Y-124683343D01*
X150845000Y-124562535D01*
X150845000Y-124437465D01*
X150812630Y-124316657D01*
X150750095Y-124208343D01*
X150661657Y-124119905D01*
X150553343Y-124057370D01*
X150432535Y-124025000D01*
X150307465Y-124025000D01*
X150186657Y-124057370D01*
X150078343Y-124119905D01*
X149989905Y-124208343D01*
X149927370Y-124316657D01*
X149895000Y-124437465D01*
X149870000Y-124437465D01*
X149870000Y-123117984D01*
X149869999Y-123117984D01*
X149851791Y-123123901D01*
X149851768Y-123123911D01*
X149662446Y-123220376D01*
X149490535Y-123345277D01*
X149490531Y-123345280D01*
X149391437Y-123444374D01*
X149310655Y-123498350D01*
X149215367Y-123517304D01*
X149120079Y-123498350D01*
X149039298Y-123444373D01*
X149001045Y-123395056D01*
X148988081Y-123373135D01*
X148871865Y-123256919D01*
X148730398Y-123173256D01*
X148572569Y-123127402D01*
X148572566Y-123127401D01*
X148572563Y-123127401D01*
X148535704Y-123124500D01*
X148535694Y-123124500D01*
X147204306Y-123124500D01*
X147204295Y-123124500D01*
X147167436Y-123127401D01*
X147167427Y-123127403D01*
X147009601Y-123173256D01*
X146868135Y-123256919D01*
X146751919Y-123373135D01*
X146668256Y-123514601D01*
X146622403Y-123672427D01*
X146622401Y-123672436D01*
X146619500Y-123709295D01*
X146619500Y-125290704D01*
X146622401Y-125327563D01*
X146622404Y-125327579D01*
X146623946Y-125332886D01*
X146624462Y-125338851D01*
X146624689Y-125340091D01*
X146624571Y-125340112D01*
X146632329Y-125429679D01*
X146603033Y-125522312D01*
X146540517Y-125596682D01*
X146454301Y-125641467D01*
X146360440Y-125650156D01*
X146353776Y-125649500D01*
X146353767Y-125649500D01*
X146186233Y-125649500D01*
X146021918Y-125682184D01*
X146021913Y-125682185D01*
X145867140Y-125746295D01*
X145867135Y-125746298D01*
X145727841Y-125839371D01*
X145609371Y-125957841D01*
X145516298Y-126097135D01*
X145516295Y-126097140D01*
X145452185Y-126251913D01*
X145452184Y-126251917D01*
X145452184Y-126251918D01*
X145422723Y-126400033D01*
X145419500Y-126416234D01*
X145419500Y-126583765D01*
X145452185Y-126748086D01*
X145516295Y-126902859D01*
X145516301Y-126902870D01*
X145522511Y-126912164D01*
X145559691Y-127001923D01*
X145559690Y-127099078D01*
X145522510Y-127188838D01*
X145453811Y-127257536D01*
X145364052Y-127294716D01*
X145315475Y-127299500D01*
X142480454Y-127299500D01*
X142385166Y-127280546D01*
X142304384Y-127226570D01*
X141477847Y-126400033D01*
X141423871Y-126319251D01*
X141404917Y-126223963D01*
X141423871Y-126128675D01*
X141477847Y-126047893D01*
X141558629Y-125993917D01*
X141614966Y-125978028D01*
X141686128Y-125966757D01*
X141888215Y-125901095D01*
X141888225Y-125901091D01*
X142077553Y-125804623D01*
X142249462Y-125679724D01*
X142399724Y-125529462D01*
X142524623Y-125357553D01*
X142621091Y-125168225D01*
X142621095Y-125168215D01*
X142675752Y-125000000D01*
X141619000Y-125000000D01*
X141523712Y-124981046D01*
X141518802Y-124977765D01*
X141562993Y-124965925D01*
X141677007Y-124900099D01*
X141770099Y-124807007D01*
X141835925Y-124692993D01*
X141870000Y-124565826D01*
X141870000Y-124434174D01*
X141835925Y-124307007D01*
X141770099Y-124192993D01*
X141677007Y-124099901D01*
X141562993Y-124034075D01*
X141435826Y-124000000D01*
X141304174Y-124000000D01*
X141177007Y-124034075D01*
X141062993Y-124099901D01*
X140969901Y-124192993D01*
X140904075Y-124307007D01*
X140892234Y-124351197D01*
X140888954Y-124346288D01*
X140870000Y-124251000D01*
X140870000Y-123999999D01*
X141870000Y-123999999D01*
X141870001Y-124000000D01*
X142675752Y-124000000D01*
X142675752Y-123999999D01*
X142621095Y-123831784D01*
X142621091Y-123831774D01*
X142524623Y-123642446D01*
X142399724Y-123470537D01*
X142249462Y-123320275D01*
X142077553Y-123195376D01*
X141888231Y-123098911D01*
X141888208Y-123098901D01*
X141870000Y-123092984D01*
X141870000Y-123999999D01*
X140870000Y-123999999D01*
X140870000Y-123092984D01*
X140869999Y-123092984D01*
X140851791Y-123098901D01*
X140851768Y-123098911D01*
X140662446Y-123195376D01*
X140490535Y-123320277D01*
X140490531Y-123320280D01*
X140391437Y-123419374D01*
X140310655Y-123473350D01*
X140215367Y-123492304D01*
X140120079Y-123473350D01*
X140039298Y-123419373D01*
X140001045Y-123370056D01*
X139988081Y-123348135D01*
X139871865Y-123231919D01*
X139730398Y-123148256D01*
X139572569Y-123102402D01*
X139572566Y-123102401D01*
X139572563Y-123102401D01*
X139535704Y-123099500D01*
X139535694Y-123099500D01*
X138204306Y-123099500D01*
X138204295Y-123099500D01*
X138167436Y-123102401D01*
X138167427Y-123102403D01*
X138009601Y-123148256D01*
X137868135Y-123231919D01*
X137751919Y-123348135D01*
X137668256Y-123489601D01*
X137622403Y-123647427D01*
X137622401Y-123647436D01*
X137619500Y-123684295D01*
X137619500Y-125315704D01*
X137622401Y-125352569D01*
X137623208Y-125356985D01*
X137623131Y-125361840D01*
X137623400Y-125365252D01*
X137623077Y-125365277D01*
X137621677Y-125454128D01*
X137583087Y-125543290D01*
X137513313Y-125610898D01*
X137422979Y-125646658D01*
X137365999Y-125649008D01*
X137365999Y-125649500D01*
X137354075Y-125649500D01*
X137353857Y-125649509D01*
X137353767Y-125649500D01*
X137186233Y-125649500D01*
X137021918Y-125682184D01*
X137021913Y-125682185D01*
X136867140Y-125746295D01*
X136867135Y-125746298D01*
X136727841Y-125839371D01*
X136609371Y-125957841D01*
X136516298Y-126097135D01*
X136516295Y-126097140D01*
X136452185Y-126251913D01*
X136452184Y-126251917D01*
X136452184Y-126251918D01*
X136422723Y-126400033D01*
X136419500Y-126416234D01*
X136419500Y-126583765D01*
X136452185Y-126748086D01*
X136505942Y-126877864D01*
X136516297Y-126902863D01*
X136609374Y-127042162D01*
X136727838Y-127160626D01*
X136867137Y-127253703D01*
X137021918Y-127317816D01*
X137186233Y-127350500D01*
X137186235Y-127350500D01*
X137353765Y-127350500D01*
X137353767Y-127350500D01*
X137518082Y-127317816D01*
X137672863Y-127253703D01*
X137812162Y-127160626D01*
X137930626Y-127042162D01*
X138023703Y-126902863D01*
X138087816Y-126748082D01*
X138120500Y-126583767D01*
X138120500Y-126416233D01*
X138087816Y-126251918D01*
X138084861Y-126244784D01*
X138065909Y-126149496D01*
X138084865Y-126054208D01*
X138138842Y-125973427D01*
X138219625Y-125919452D01*
X138314909Y-125900500D01*
X139459546Y-125900500D01*
X139554834Y-125919454D01*
X139635616Y-125973430D01*
X141736619Y-128074433D01*
X141790593Y-128155212D01*
X141809547Y-128250500D01*
X141790593Y-128345788D01*
X141736617Y-128426570D01*
X141655835Y-128480546D01*
X141560547Y-128499500D01*
X127910454Y-128499500D01*
X127815166Y-128480546D01*
X127734384Y-128426570D01*
X125724048Y-126416234D01*
X127669500Y-126416234D01*
X127669500Y-126583765D01*
X127702185Y-126748086D01*
X127755942Y-126877864D01*
X127766297Y-126902863D01*
X127859374Y-127042162D01*
X127977838Y-127160626D01*
X128117137Y-127253703D01*
X128271918Y-127317816D01*
X128436233Y-127350500D01*
X128436235Y-127350500D01*
X128603765Y-127350500D01*
X128603767Y-127350500D01*
X128768082Y-127317816D01*
X128922863Y-127253703D01*
X129062162Y-127160626D01*
X129180626Y-127042162D01*
X129273703Y-126902863D01*
X129337816Y-126748082D01*
X129370500Y-126583767D01*
X129370500Y-126416233D01*
X129337816Y-126251918D01*
X129334861Y-126244784D01*
X129315909Y-126149496D01*
X129334865Y-126054208D01*
X129388842Y-125973427D01*
X129469625Y-125919452D01*
X129564909Y-125900500D01*
X130785692Y-125900500D01*
X130785694Y-125900500D01*
X130822569Y-125897598D01*
X130980398Y-125851744D01*
X131121865Y-125768081D01*
X131238081Y-125651865D01*
X131251046Y-125629941D01*
X131315857Y-125557578D01*
X131403437Y-125515520D01*
X131500445Y-125510178D01*
X131592113Y-125542366D01*
X131641438Y-125580625D01*
X131740537Y-125679724D01*
X131912446Y-125804623D01*
X132101769Y-125901088D01*
X132101783Y-125901095D01*
X132120000Y-125907013D01*
X132120000Y-125000001D01*
X133120000Y-125000001D01*
X133120000Y-125907013D01*
X133138216Y-125901095D01*
X133138230Y-125901088D01*
X133327553Y-125804623D01*
X133499462Y-125679724D01*
X133649724Y-125529462D01*
X133774623Y-125357553D01*
X133871091Y-125168225D01*
X133871095Y-125168215D01*
X133925752Y-125000000D01*
X133120001Y-125000000D01*
X133120000Y-125000001D01*
X132120000Y-125000001D01*
X132120000Y-124565826D01*
X132154075Y-124692993D01*
X132219901Y-124807007D01*
X132312993Y-124900099D01*
X132427007Y-124965925D01*
X132554174Y-125000000D01*
X132685826Y-125000000D01*
X132812993Y-124965925D01*
X132927007Y-124900099D01*
X133020099Y-124807007D01*
X133085925Y-124692993D01*
X133120000Y-124565826D01*
X133120000Y-124434174D01*
X133085925Y-124307007D01*
X133020099Y-124192993D01*
X132927007Y-124099901D01*
X132812993Y-124034075D01*
X132685826Y-124000000D01*
X132554174Y-124000000D01*
X132427007Y-124034075D01*
X132312993Y-124099901D01*
X132219901Y-124192993D01*
X132154075Y-124307007D01*
X132120000Y-124434174D01*
X132120000Y-123999999D01*
X133120000Y-123999999D01*
X133120001Y-124000000D01*
X133925752Y-124000000D01*
X133925752Y-123999999D01*
X133871095Y-123831784D01*
X133871091Y-123831774D01*
X133774623Y-123642446D01*
X133649724Y-123470537D01*
X133499462Y-123320275D01*
X133327553Y-123195376D01*
X133138231Y-123098911D01*
X133138208Y-123098901D01*
X133120000Y-123092984D01*
X133120000Y-123999999D01*
X132120000Y-123999999D01*
X132120000Y-123092984D01*
X132119999Y-123092984D01*
X132101791Y-123098901D01*
X132101768Y-123098911D01*
X131912446Y-123195376D01*
X131740535Y-123320277D01*
X131740531Y-123320280D01*
X131641437Y-123419374D01*
X131560655Y-123473350D01*
X131465367Y-123492304D01*
X131370079Y-123473350D01*
X131289298Y-123419373D01*
X131251045Y-123370056D01*
X131238081Y-123348135D01*
X131121865Y-123231919D01*
X130980398Y-123148256D01*
X130822569Y-123102402D01*
X130822566Y-123102401D01*
X130822563Y-123102401D01*
X130785704Y-123099500D01*
X130785694Y-123099500D01*
X129454306Y-123099500D01*
X129454295Y-123099500D01*
X129417436Y-123102401D01*
X129417427Y-123102403D01*
X129259601Y-123148256D01*
X129118135Y-123231919D01*
X129001919Y-123348135D01*
X128918256Y-123489601D01*
X128872403Y-123647427D01*
X128872401Y-123647436D01*
X128869500Y-123684295D01*
X128869500Y-125315704D01*
X128872401Y-125352569D01*
X128873208Y-125356985D01*
X128873131Y-125361840D01*
X128873400Y-125365252D01*
X128873077Y-125365277D01*
X128871677Y-125454128D01*
X128833087Y-125543290D01*
X128763313Y-125610898D01*
X128672979Y-125646658D01*
X128615999Y-125649008D01*
X128615999Y-125649500D01*
X128604075Y-125649500D01*
X128603857Y-125649509D01*
X128603767Y-125649500D01*
X128436233Y-125649500D01*
X128271918Y-125682184D01*
X128271913Y-125682185D01*
X128117140Y-125746295D01*
X128117135Y-125746298D01*
X127977841Y-125839371D01*
X127859371Y-125957841D01*
X127766298Y-126097135D01*
X127766295Y-126097140D01*
X127702185Y-126251913D01*
X127702184Y-126251917D01*
X127702184Y-126251918D01*
X127672723Y-126400033D01*
X127669500Y-126416234D01*
X125724048Y-126416234D01*
X124774812Y-125466998D01*
X124720836Y-125386216D01*
X124701882Y-125290928D01*
X124720836Y-125195640D01*
X124729015Y-125177897D01*
X124778884Y-125080025D01*
X124839709Y-124892826D01*
X124870500Y-124698417D01*
X124870500Y-124251583D01*
X124839709Y-124057174D01*
X124778884Y-123869975D01*
X124689524Y-123694595D01*
X124676634Y-123676854D01*
X124573830Y-123535357D01*
X124573829Y-123535356D01*
X124573828Y-123535354D01*
X124434646Y-123396172D01*
X124402940Y-123373136D01*
X124275410Y-123280479D01*
X124275407Y-123280477D01*
X124275405Y-123280476D01*
X124100025Y-123191116D01*
X124100024Y-123191115D01*
X124100023Y-123191115D01*
X124100017Y-123191113D01*
X123968116Y-123148256D01*
X123912826Y-123130291D01*
X123912824Y-123130290D01*
X123912822Y-123130290D01*
X123718428Y-123099501D01*
X123718419Y-123099500D01*
X123718417Y-123099500D01*
X123521583Y-123099500D01*
X123521580Y-123099500D01*
X123521571Y-123099501D01*
X123327177Y-123130290D01*
X123139982Y-123191113D01*
X123139976Y-123191115D01*
X123070435Y-123226548D01*
X122964595Y-123280476D01*
X122964592Y-123280477D01*
X122964590Y-123280479D01*
X122964589Y-123280479D01*
X122805357Y-123396169D01*
X122666170Y-123535356D01*
X122632937Y-123581097D01*
X122561593Y-123647045D01*
X122470442Y-123680670D01*
X122373362Y-123676854D01*
X122285132Y-123636178D01*
X122230049Y-123581094D01*
X122149724Y-123470537D01*
X121999462Y-123320275D01*
X121827553Y-123195376D01*
X121638231Y-123098911D01*
X121638208Y-123098901D01*
X121620000Y-123092984D01*
X121620000Y-125857013D01*
X121638216Y-125851095D01*
X121638230Y-125851088D01*
X121827553Y-125754623D01*
X121999462Y-125629724D01*
X122149727Y-125479459D01*
X122230049Y-125368906D01*
X122301392Y-125302957D01*
X122392542Y-125269330D01*
X122489622Y-125273144D01*
X122577852Y-125313819D01*
X122632938Y-125368904D01*
X122666169Y-125414642D01*
X122666172Y-125414646D01*
X122805354Y-125553828D01*
X122829928Y-125571682D01*
X122947610Y-125657184D01*
X122964595Y-125669524D01*
X123139975Y-125758884D01*
X123327174Y-125819709D01*
X123521583Y-125850500D01*
X123521587Y-125850500D01*
X123639546Y-125850500D01*
X123734834Y-125869454D01*
X123815616Y-125923430D01*
X127292686Y-129400500D01*
X127406814Y-129466392D01*
X127534108Y-129500500D01*
X163265892Y-129500500D01*
X163393186Y-129466392D01*
X163507314Y-129400500D01*
X166491580Y-126416234D01*
X167919500Y-126416234D01*
X167919500Y-126583765D01*
X167952185Y-126748086D01*
X168005942Y-126877864D01*
X168016297Y-126902863D01*
X168109374Y-127042162D01*
X168227838Y-127160626D01*
X168367137Y-127253703D01*
X168521918Y-127317816D01*
X168686233Y-127350500D01*
X168686235Y-127350500D01*
X168853765Y-127350500D01*
X168853767Y-127350500D01*
X169018082Y-127317816D01*
X169172863Y-127253703D01*
X169312162Y-127160626D01*
X169430626Y-127042162D01*
X169523703Y-126902863D01*
X169587816Y-126748082D01*
X169620500Y-126583767D01*
X169620500Y-126416233D01*
X169591924Y-126272575D01*
X169591924Y-126175422D01*
X169629104Y-126085663D01*
X169697802Y-126016963D01*
X169787562Y-125979784D01*
X169836138Y-125974999D01*
X169869999Y-125974998D01*
X169870000Y-125974998D01*
X169870000Y-125000001D01*
X169869999Y-125000000D01*
X169020002Y-125000000D01*
X169020001Y-125000001D01*
X169020001Y-125274984D01*
X169030239Y-125375195D01*
X169021067Y-125471916D01*
X168975579Y-125557764D01*
X168900702Y-125619671D01*
X168807833Y-125648211D01*
X168782528Y-125649500D01*
X168686233Y-125649500D01*
X168521918Y-125682184D01*
X168521913Y-125682185D01*
X168367140Y-125746295D01*
X168367135Y-125746298D01*
X168227841Y-125839371D01*
X168109371Y-125957841D01*
X168016298Y-126097135D01*
X168016295Y-126097140D01*
X167952185Y-126251913D01*
X167952184Y-126251917D01*
X167952184Y-126251918D01*
X167922723Y-126400033D01*
X167919500Y-126416234D01*
X166491580Y-126416234D01*
X168000500Y-124907314D01*
X168066392Y-124793186D01*
X168100500Y-124665892D01*
X168100500Y-124534107D01*
X168100500Y-124437465D01*
X169895000Y-124437465D01*
X169895000Y-124562535D01*
X169927370Y-124683343D01*
X169989905Y-124791657D01*
X170078343Y-124880095D01*
X170186657Y-124942630D01*
X170307465Y-124975000D01*
X170432535Y-124975000D01*
X170553343Y-124942630D01*
X170661657Y-124880095D01*
X170750095Y-124791657D01*
X170812630Y-124683343D01*
X170845000Y-124562535D01*
X170845000Y-124437465D01*
X170812630Y-124316657D01*
X170750095Y-124208343D01*
X170661657Y-124119905D01*
X170553343Y-124057370D01*
X170432535Y-124025000D01*
X170307465Y-124025000D01*
X170186657Y-124057370D01*
X170078343Y-124119905D01*
X169989905Y-124208343D01*
X169927370Y-124316657D01*
X169895000Y-124437465D01*
X168100500Y-124437465D01*
X168100500Y-123725018D01*
X169020000Y-123725018D01*
X169020000Y-123999999D01*
X169020001Y-124000000D01*
X169869999Y-124000000D01*
X169870000Y-123999999D01*
X169870000Y-123024999D01*
X169720024Y-123025000D01*
X169617300Y-123035494D01*
X169617297Y-123035495D01*
X169450880Y-123090640D01*
X169450878Y-123090641D01*
X169301658Y-123182681D01*
X169301654Y-123182684D01*
X169177684Y-123306654D01*
X169177681Y-123306658D01*
X169085641Y-123455878D01*
X169085640Y-123455879D01*
X169030495Y-123622298D01*
X169030494Y-123622305D01*
X169020000Y-123725018D01*
X168100500Y-123725018D01*
X168100500Y-117705523D01*
X169519500Y-117705523D01*
X169519500Y-117894476D01*
X169519501Y-117894492D01*
X169549059Y-118081114D01*
X169549060Y-118081118D01*
X169607453Y-118260832D01*
X169693240Y-118429199D01*
X169804310Y-118582073D01*
X169937927Y-118715690D01*
X170090801Y-118826760D01*
X170259168Y-118912547D01*
X170438882Y-118970940D01*
X170625519Y-119000500D01*
X170625523Y-119000500D01*
X170814477Y-119000500D01*
X170814481Y-119000500D01*
X171001118Y-118970940D01*
X171180832Y-118912547D01*
X171349199Y-118826760D01*
X171502073Y-118715690D01*
X171635690Y-118582073D01*
X171746760Y-118429199D01*
X171832547Y-118260832D01*
X171890940Y-118081118D01*
X171920500Y-117894481D01*
X171920500Y-117705519D01*
X171890940Y-117518882D01*
X171832547Y-117339168D01*
X171746760Y-117170801D01*
X171635690Y-117017927D01*
X171502073Y-116884310D01*
X171502069Y-116884307D01*
X171502068Y-116884306D01*
X171461005Y-116854472D01*
X171349199Y-116773240D01*
X171180832Y-116687453D01*
X171180829Y-116687452D01*
X171180827Y-116687451D01*
X171080893Y-116654980D01*
X171001118Y-116629060D01*
X171001116Y-116629059D01*
X171001114Y-116629059D01*
X170814492Y-116599501D01*
X170814483Y-116599500D01*
X170814481Y-116599500D01*
X170625519Y-116599500D01*
X170625516Y-116599500D01*
X170625507Y-116599501D01*
X170438885Y-116629059D01*
X170259172Y-116687451D01*
X170259168Y-116687452D01*
X170259168Y-116687453D01*
X170090801Y-116773240D01*
X170090800Y-116773241D01*
X169937931Y-116884306D01*
X169804306Y-117017931D01*
X169715454Y-117140226D01*
X169693240Y-117170801D01*
X169607453Y-117339168D01*
X169607451Y-117339172D01*
X169549059Y-117518885D01*
X169519501Y-117705507D01*
X169519500Y-117705523D01*
X168100500Y-117705523D01*
X168100500Y-114105523D01*
X169519500Y-114105523D01*
X169519500Y-114294476D01*
X169519501Y-114294492D01*
X169542455Y-114439417D01*
X169549060Y-114481118D01*
X169568591Y-114541229D01*
X169604338Y-114651247D01*
X169607453Y-114660832D01*
X169693240Y-114829199D01*
X169804310Y-114982073D01*
X169937927Y-115115690D01*
X170090801Y-115226760D01*
X170259168Y-115312547D01*
X170438882Y-115370940D01*
X170625519Y-115400500D01*
X170625523Y-115400500D01*
X170814477Y-115400500D01*
X170814481Y-115400500D01*
X171001118Y-115370940D01*
X171180832Y-115312547D01*
X171349199Y-115226760D01*
X171502073Y-115115690D01*
X171635690Y-114982073D01*
X171746760Y-114829199D01*
X171832547Y-114660832D01*
X171890940Y-114481118D01*
X171920500Y-114294481D01*
X171920500Y-114105519D01*
X171890940Y-113918882D01*
X171832547Y-113739168D01*
X171746760Y-113570801D01*
X171635690Y-113417927D01*
X171502073Y-113284310D01*
X171502069Y-113284307D01*
X171502068Y-113284306D01*
X171461005Y-113254472D01*
X171349199Y-113173240D01*
X171180832Y-113087453D01*
X171180829Y-113087452D01*
X171180827Y-113087451D01*
X171080893Y-113054980D01*
X171001118Y-113029060D01*
X171001116Y-113029059D01*
X171001114Y-113029059D01*
X170814492Y-112999501D01*
X170814483Y-112999500D01*
X170814481Y-112999500D01*
X170625519Y-112999500D01*
X170625516Y-112999500D01*
X170625507Y-112999501D01*
X170438885Y-113029059D01*
X170259172Y-113087451D01*
X170259168Y-113087452D01*
X170259168Y-113087453D01*
X170090801Y-113173240D01*
X170079944Y-113181128D01*
X169937931Y-113284306D01*
X169804306Y-113417931D01*
X169715454Y-113540226D01*
X169693240Y-113570801D01*
X169615076Y-113724207D01*
X169607451Y-113739172D01*
X169549059Y-113918885D01*
X169519501Y-114105507D01*
X169519500Y-114105523D01*
X168100500Y-114105523D01*
X168100500Y-111734108D01*
X168066392Y-111606814D01*
X168000500Y-111492686D01*
X168000497Y-111492683D01*
X167933383Y-111425568D01*
X167879407Y-111344787D01*
X167860454Y-111249498D01*
X167879409Y-111154210D01*
X167933386Y-111073429D01*
X168014167Y-111019453D01*
X168109454Y-111000500D01*
X168248413Y-111000500D01*
X168248417Y-111000500D01*
X168442826Y-110969709D01*
X168630025Y-110908884D01*
X168805405Y-110819524D01*
X168964646Y-110703828D01*
X169103828Y-110564646D01*
X169218556Y-110406736D01*
X169289899Y-110340790D01*
X169381049Y-110307163D01*
X169478129Y-110310978D01*
X169566360Y-110351653D01*
X169621443Y-110406736D01*
X169736172Y-110564646D01*
X169875354Y-110703828D01*
X170034595Y-110819524D01*
X170209975Y-110908884D01*
X170397174Y-110969709D01*
X170591583Y-111000500D01*
X170591587Y-111000500D01*
X170788413Y-111000500D01*
X170788417Y-111000500D01*
X170982826Y-110969709D01*
X171170025Y-110908884D01*
X171345405Y-110819524D01*
X171504646Y-110703828D01*
X171643828Y-110564646D01*
X171758556Y-110406736D01*
X171829899Y-110340790D01*
X171921049Y-110307163D01*
X172018129Y-110310978D01*
X172106360Y-110351653D01*
X172161443Y-110406736D01*
X172276172Y-110564646D01*
X172415354Y-110703828D01*
X172574595Y-110819524D01*
X172749975Y-110908884D01*
X172937174Y-110969709D01*
X173131583Y-111000500D01*
X173131587Y-111000500D01*
X173328413Y-111000500D01*
X173328417Y-111000500D01*
X173522826Y-110969709D01*
X173710025Y-110908884D01*
X173885405Y-110819524D01*
X174044646Y-110703828D01*
X174121677Y-110626796D01*
X174202452Y-110572825D01*
X174297741Y-110553870D01*
X174393029Y-110572823D01*
X174473811Y-110626799D01*
X174527787Y-110707580D01*
X174534251Y-110725102D01*
X174534354Y-110725304D01*
X174591950Y-110838342D01*
X174681658Y-110928050D01*
X174681660Y-110928051D01*
X174794696Y-110985646D01*
X174794700Y-110985647D01*
X174849891Y-110994388D01*
X174888481Y-111000500D01*
X175020501Y-111000499D01*
X175115787Y-111019452D01*
X175196568Y-111073428D01*
X175250545Y-111154209D01*
X175269500Y-111249497D01*
X175269500Y-122912821D01*
X175250546Y-123008109D01*
X175196570Y-123088891D01*
X175115788Y-123142867D01*
X175078650Y-123154936D01*
X175077180Y-123155288D01*
X174889982Y-123216113D01*
X174889976Y-123216115D01*
X174818255Y-123252659D01*
X174714595Y-123305476D01*
X174714592Y-123305477D01*
X174714590Y-123305479D01*
X174714589Y-123305479D01*
X174555357Y-123421169D01*
X174416169Y-123560357D01*
X174321444Y-123690734D01*
X174250101Y-123756682D01*
X174158950Y-123790309D01*
X174061870Y-123786494D01*
X173973640Y-123745818D01*
X173918556Y-123690734D01*
X173823830Y-123560357D01*
X173823829Y-123560356D01*
X173823828Y-123560354D01*
X173684646Y-123421172D01*
X173628219Y-123380175D01*
X173525410Y-123305479D01*
X173525407Y-123305477D01*
X173525405Y-123305476D01*
X173350025Y-123216116D01*
X173350024Y-123216115D01*
X173350023Y-123216115D01*
X173350017Y-123216113D01*
X173234846Y-123178692D01*
X173162826Y-123155291D01*
X173162824Y-123155290D01*
X173162822Y-123155290D01*
X172968428Y-123124501D01*
X172968419Y-123124500D01*
X172968417Y-123124500D01*
X172771583Y-123124500D01*
X172771580Y-123124500D01*
X172771571Y-123124501D01*
X172577177Y-123155290D01*
X172389982Y-123216113D01*
X172389976Y-123216115D01*
X172318255Y-123252659D01*
X172214595Y-123305476D01*
X172214592Y-123305477D01*
X172214590Y-123305479D01*
X172214589Y-123305479D01*
X172055356Y-123421170D01*
X172016771Y-123459755D01*
X171935989Y-123513730D01*
X171840700Y-123532683D01*
X171745412Y-123513728D01*
X171664631Y-123459751D01*
X171628774Y-123414401D01*
X171562316Y-123306656D01*
X171562315Y-123306654D01*
X171438345Y-123182684D01*
X171438341Y-123182681D01*
X171289121Y-123090641D01*
X171289120Y-123090640D01*
X171122701Y-123035495D01*
X171122694Y-123035494D01*
X171019981Y-123025000D01*
X170870001Y-123025000D01*
X170870000Y-123025001D01*
X170870000Y-125974998D01*
X170870001Y-125974999D01*
X171019968Y-125974999D01*
X171019984Y-125974998D01*
X171122699Y-125964505D01*
X171122702Y-125964504D01*
X171289119Y-125909359D01*
X171289121Y-125909358D01*
X171438341Y-125817318D01*
X171438345Y-125817315D01*
X171562315Y-125693345D01*
X171562319Y-125693340D01*
X171628774Y-125585599D01*
X171694929Y-125514447D01*
X171783277Y-125474028D01*
X171880368Y-125470496D01*
X171971420Y-125504387D01*
X172016768Y-125540242D01*
X172055354Y-125578828D01*
X172079928Y-125596682D01*
X172197610Y-125682184D01*
X172214595Y-125694524D01*
X172389975Y-125783884D01*
X172577174Y-125844709D01*
X172771583Y-125875500D01*
X172771587Y-125875500D01*
X172968413Y-125875500D01*
X172968417Y-125875500D01*
X173162826Y-125844709D01*
X173350025Y-125783884D01*
X173525405Y-125694524D01*
X173684646Y-125578828D01*
X173823828Y-125439646D01*
X173918555Y-125309265D01*
X173989899Y-125243317D01*
X174081049Y-125209690D01*
X174178129Y-125213505D01*
X174266359Y-125254180D01*
X174321444Y-125309265D01*
X174416172Y-125439646D01*
X174555354Y-125578828D01*
X174579928Y-125596682D01*
X174697610Y-125682184D01*
X174714595Y-125694524D01*
X174889975Y-125783884D01*
X175077174Y-125844709D01*
X175271583Y-125875500D01*
X175271587Y-125875500D01*
X175468413Y-125875500D01*
X175468417Y-125875500D01*
X175662826Y-125844709D01*
X175850025Y-125783884D01*
X176025405Y-125694524D01*
X176184646Y-125578828D01*
X176323828Y-125439646D01*
X176418555Y-125309265D01*
X176489899Y-125243317D01*
X176581049Y-125209690D01*
X176678129Y-125213505D01*
X176766359Y-125254180D01*
X176821444Y-125309265D01*
X176916172Y-125439646D01*
X177055354Y-125578828D01*
X177079928Y-125596682D01*
X177197610Y-125682184D01*
X177214595Y-125694524D01*
X177389975Y-125783884D01*
X177577174Y-125844709D01*
X177771583Y-125875500D01*
X177771587Y-125875500D01*
X177968413Y-125875500D01*
X177968417Y-125875500D01*
X178162826Y-125844709D01*
X178350025Y-125783884D01*
X178525405Y-125694524D01*
X178684646Y-125578828D01*
X178823828Y-125439646D01*
X178939524Y-125280405D01*
X179028884Y-125105025D01*
X179089709Y-124917826D01*
X179120500Y-124723417D01*
X179120500Y-124276583D01*
X179111196Y-124217840D01*
X179115009Y-124120762D01*
X179155684Y-124032531D01*
X179181054Y-124002824D01*
X183694433Y-119489446D01*
X183775212Y-119435473D01*
X183870500Y-119416519D01*
X183965788Y-119435473D01*
X184046570Y-119489449D01*
X184100546Y-119570231D01*
X184119500Y-119665519D01*
X184119500Y-129750500D01*
X184100546Y-129845788D01*
X184046570Y-129926570D01*
X183965788Y-129980546D01*
X183870500Y-129999500D01*
X112869500Y-129999500D01*
X112774212Y-129980546D01*
X112693430Y-129926570D01*
X112639454Y-129845788D01*
X112620500Y-129750500D01*
X112620500Y-126391233D01*
X116169500Y-126391233D01*
X116169500Y-126558767D01*
X116174473Y-126583767D01*
X116202185Y-126723086D01*
X116266295Y-126877859D01*
X116266298Y-126877864D01*
X116349191Y-127001923D01*
X116359374Y-127017162D01*
X116477838Y-127135626D01*
X116617137Y-127228703D01*
X116771918Y-127292816D01*
X116936233Y-127325500D01*
X116936235Y-127325500D01*
X117103765Y-127325500D01*
X117103767Y-127325500D01*
X117268082Y-127292816D01*
X117422863Y-127228703D01*
X117562162Y-127135626D01*
X117680626Y-127017162D01*
X117773703Y-126877863D01*
X117837816Y-126723082D01*
X117870500Y-126558767D01*
X117870500Y-126391233D01*
X117837816Y-126226918D01*
X117824508Y-126194789D01*
X117805553Y-126099501D01*
X117824506Y-126004213D01*
X117878482Y-125923431D01*
X117959264Y-125869455D01*
X118054552Y-125850500D01*
X119285692Y-125850500D01*
X119285694Y-125850500D01*
X119322569Y-125847598D01*
X119480398Y-125801744D01*
X119621865Y-125718081D01*
X119738081Y-125601865D01*
X119751046Y-125579941D01*
X119815857Y-125507578D01*
X119903437Y-125465520D01*
X120000445Y-125460178D01*
X120092113Y-125492366D01*
X120141438Y-125530625D01*
X120240537Y-125629724D01*
X120412446Y-125754623D01*
X120601769Y-125851088D01*
X120601783Y-125851095D01*
X120620000Y-125857013D01*
X120620000Y-124412465D01*
X120645000Y-124412465D01*
X120645000Y-124537535D01*
X120677370Y-124658343D01*
X120739905Y-124766657D01*
X120828343Y-124855095D01*
X120936657Y-124917630D01*
X121057465Y-124950000D01*
X121182535Y-124950000D01*
X121303343Y-124917630D01*
X121411657Y-124855095D01*
X121500095Y-124766657D01*
X121562630Y-124658343D01*
X121595000Y-124537535D01*
X121595000Y-124412465D01*
X121562630Y-124291657D01*
X121500095Y-124183343D01*
X121411657Y-124094905D01*
X121303343Y-124032370D01*
X121182535Y-124000000D01*
X121057465Y-124000000D01*
X120936657Y-124032370D01*
X120828343Y-124094905D01*
X120739905Y-124183343D01*
X120677370Y-124291657D01*
X120645000Y-124412465D01*
X120620000Y-124412465D01*
X120620000Y-123092984D01*
X120619999Y-123092984D01*
X120601791Y-123098901D01*
X120601768Y-123098911D01*
X120412446Y-123195376D01*
X120240535Y-123320277D01*
X120240531Y-123320280D01*
X120141437Y-123419374D01*
X120060655Y-123473350D01*
X119965367Y-123492304D01*
X119870079Y-123473350D01*
X119789298Y-123419373D01*
X119751045Y-123370056D01*
X119738081Y-123348135D01*
X119621865Y-123231919D01*
X119480398Y-123148256D01*
X119322569Y-123102402D01*
X119322566Y-123102401D01*
X119322563Y-123102401D01*
X119285704Y-123099500D01*
X119285694Y-123099500D01*
X117954306Y-123099500D01*
X117954295Y-123099500D01*
X117917436Y-123102401D01*
X117917427Y-123102403D01*
X117759601Y-123148256D01*
X117618135Y-123231919D01*
X117501919Y-123348135D01*
X117418256Y-123489601D01*
X117372403Y-123647427D01*
X117372401Y-123647436D01*
X117369500Y-123684295D01*
X117369500Y-125265704D01*
X117372401Y-125302563D01*
X117372404Y-125302579D01*
X117373946Y-125307886D01*
X117374462Y-125313851D01*
X117374689Y-125315091D01*
X117374571Y-125315112D01*
X117382329Y-125404679D01*
X117353033Y-125497312D01*
X117290517Y-125571682D01*
X117204301Y-125616467D01*
X117110440Y-125625156D01*
X117103776Y-125624500D01*
X117103767Y-125624500D01*
X116936233Y-125624500D01*
X116771918Y-125657184D01*
X116771913Y-125657185D01*
X116617140Y-125721295D01*
X116617135Y-125721298D01*
X116477841Y-125814371D01*
X116359371Y-125932841D01*
X116266298Y-126072135D01*
X116266295Y-126072140D01*
X116202185Y-126226913D01*
X116202184Y-126226917D01*
X116202184Y-126226918D01*
X116169500Y-126391233D01*
X112620500Y-126391233D01*
X112620500Y-115653920D01*
X121723186Y-115653920D01*
X121794194Y-115690101D01*
X121794206Y-115690106D01*
X122018752Y-115763065D01*
X122251936Y-115799998D01*
X122251951Y-115800000D01*
X122488049Y-115800000D01*
X122488063Y-115799998D01*
X122721245Y-115763066D01*
X122945798Y-115690104D01*
X122945811Y-115690098D01*
X123016812Y-115653920D01*
X123016812Y-115653919D01*
X122370000Y-115007106D01*
X121723186Y-115653920D01*
X112620500Y-115653920D01*
X112620500Y-114181951D01*
X120870000Y-114181951D01*
X120870000Y-114418048D01*
X120870001Y-114418063D01*
X120906934Y-114651247D01*
X120979893Y-114875794D01*
X121016079Y-114946812D01*
X121662892Y-114300000D01*
X121597066Y-114234174D01*
X121870000Y-114234174D01*
X121870000Y-114365826D01*
X121904075Y-114492993D01*
X121969901Y-114607007D01*
X122062993Y-114700099D01*
X122177007Y-114765925D01*
X122304174Y-114800000D01*
X122435826Y-114800000D01*
X122562993Y-114765925D01*
X122677007Y-114700099D01*
X122770099Y-114607007D01*
X122835925Y-114492993D01*
X122870000Y-114365826D01*
X122870000Y-114300000D01*
X123077106Y-114300000D01*
X123723919Y-114946812D01*
X123723920Y-114946812D01*
X123760098Y-114875811D01*
X123760104Y-114875798D01*
X123808863Y-114725733D01*
X142231373Y-114725733D01*
X142369004Y-114770453D01*
X142555547Y-114799998D01*
X142555562Y-114800000D01*
X142744438Y-114800000D01*
X142744452Y-114799998D01*
X142930996Y-114770453D01*
X142930998Y-114770452D01*
X143068626Y-114725733D01*
X142650000Y-114307106D01*
X142231373Y-114725733D01*
X123808863Y-114725733D01*
X123833066Y-114651245D01*
X123869998Y-114418063D01*
X123870000Y-114418048D01*
X123870000Y-114181951D01*
X123869998Y-114181936D01*
X123833065Y-113948752D01*
X123760106Y-113724206D01*
X123760099Y-113724189D01*
X123723920Y-113653186D01*
X123077106Y-114300000D01*
X122870000Y-114300000D01*
X122870000Y-114234174D01*
X122835925Y-114107007D01*
X122770099Y-113992993D01*
X122677007Y-113899901D01*
X122562993Y-113834075D01*
X122435826Y-113800000D01*
X122304174Y-113800000D01*
X122177007Y-113834075D01*
X122062993Y-113899901D01*
X121969901Y-113992993D01*
X121904075Y-114107007D01*
X121870000Y-114234174D01*
X121597066Y-114234174D01*
X121016078Y-113653186D01*
X120979897Y-113724196D01*
X120979893Y-113724207D01*
X120906934Y-113948752D01*
X120870001Y-114181936D01*
X120870000Y-114181951D01*
X112620500Y-114181951D01*
X112620500Y-112946078D01*
X121723186Y-112946078D01*
X122370000Y-113592892D01*
X122449499Y-113513393D01*
X139049500Y-113513393D01*
X139049500Y-113686606D01*
X139049501Y-113686621D01*
X139076597Y-113857697D01*
X139130124Y-114022437D01*
X139130126Y-114022443D01*
X139208770Y-114176792D01*
X139310581Y-114316922D01*
X139310583Y-114316924D01*
X139310586Y-114316928D01*
X139433072Y-114439414D01*
X139433075Y-114439416D01*
X139433077Y-114439418D01*
X139573207Y-114541229D01*
X139573209Y-114541230D01*
X139573212Y-114541232D01*
X139727555Y-114619873D01*
X139892299Y-114673402D01*
X140063389Y-114700500D01*
X140063393Y-114700500D01*
X140236607Y-114700500D01*
X140236611Y-114700500D01*
X140407701Y-114673402D01*
X140572445Y-114619873D01*
X140726788Y-114541232D01*
X140809533Y-114481114D01*
X140856731Y-114446823D01*
X140856732Y-114446822D01*
X140866922Y-114439418D01*
X140866928Y-114439414D01*
X140989414Y-114316928D01*
X141091232Y-114176788D01*
X141121116Y-114118135D01*
X141181261Y-114041840D01*
X141266027Y-113994367D01*
X141362509Y-113982946D01*
X141401104Y-113989059D01*
X141524264Y-114018627D01*
X141942893Y-113599999D01*
X141896816Y-113553922D01*
X142300000Y-113553922D01*
X142300000Y-113646078D01*
X142323852Y-113735095D01*
X142369930Y-113814905D01*
X142435095Y-113880070D01*
X142514905Y-113926148D01*
X142603922Y-113950000D01*
X142696078Y-113950000D01*
X142785095Y-113926148D01*
X142864905Y-113880070D01*
X142930070Y-113814905D01*
X142976148Y-113735095D01*
X143000000Y-113646078D01*
X143000000Y-113600000D01*
X143357106Y-113600000D01*
X143775733Y-114018626D01*
X143820452Y-113880998D01*
X143820453Y-113880996D01*
X143849998Y-113694452D01*
X143850000Y-113694437D01*
X143850000Y-113505562D01*
X143849998Y-113505547D01*
X143820453Y-113319004D01*
X143775733Y-113181373D01*
X143357106Y-113600000D01*
X143000000Y-113600000D01*
X143000000Y-113553922D01*
X142976148Y-113464905D01*
X142930070Y-113385095D01*
X142864905Y-113319930D01*
X142785095Y-113273852D01*
X142696078Y-113250000D01*
X142603922Y-113250000D01*
X142514905Y-113273852D01*
X142435095Y-113319930D01*
X142369930Y-113385095D01*
X142323852Y-113464905D01*
X142300000Y-113553922D01*
X141896816Y-113553922D01*
X141524265Y-113181371D01*
X141401104Y-113210940D01*
X141304024Y-113214754D01*
X141212874Y-113181128D01*
X141141531Y-113115179D01*
X141121122Y-113081875D01*
X141091232Y-113023212D01*
X141074004Y-112999500D01*
X140989418Y-112883077D01*
X140989416Y-112883075D01*
X140989414Y-112883072D01*
X140866928Y-112760586D01*
X140856728Y-112753175D01*
X140856726Y-112753173D01*
X140726792Y-112658770D01*
X140572443Y-112580126D01*
X140572437Y-112580124D01*
X140478195Y-112549503D01*
X140407701Y-112526598D01*
X140407699Y-112526597D01*
X140407697Y-112526597D01*
X140236621Y-112499501D01*
X140236614Y-112499500D01*
X140236611Y-112499500D01*
X140063389Y-112499500D01*
X140063386Y-112499500D01*
X140063378Y-112499501D01*
X139892302Y-112526597D01*
X139727562Y-112580124D01*
X139727556Y-112580126D01*
X139573207Y-112658770D01*
X139433077Y-112760581D01*
X139310581Y-112883077D01*
X139208770Y-113023207D01*
X139130126Y-113177556D01*
X139130124Y-113177562D01*
X139076597Y-113342302D01*
X139049501Y-113513378D01*
X139049500Y-113513393D01*
X122449499Y-113513393D01*
X123016812Y-112946079D01*
X122945794Y-112909893D01*
X122721247Y-112836934D01*
X122488063Y-112800001D01*
X122488049Y-112800000D01*
X122251951Y-112800000D01*
X122251936Y-112800001D01*
X122018752Y-112836934D01*
X121794207Y-112909893D01*
X121794196Y-112909897D01*
X121723186Y-112946078D01*
X112620500Y-112946078D01*
X112620500Y-112474265D01*
X142231371Y-112474265D01*
X142649999Y-112892892D01*
X143068626Y-112474264D01*
X143068627Y-112474264D01*
X142931007Y-112429550D01*
X142930988Y-112429545D01*
X142744452Y-112400001D01*
X142744438Y-112400000D01*
X142555562Y-112400000D01*
X142555547Y-112400001D01*
X142369011Y-112429545D01*
X142369000Y-112429548D01*
X142231372Y-112474265D01*
X142231371Y-112474265D01*
X112620500Y-112474265D01*
X112620500Y-109651587D01*
X138959500Y-109651587D01*
X138959500Y-109848412D01*
X138959501Y-109848428D01*
X138990290Y-110042822D01*
X139046534Y-110215925D01*
X139051116Y-110230025D01*
X139140476Y-110405405D01*
X139140479Y-110405409D01*
X139140479Y-110405410D01*
X139141444Y-110406738D01*
X139256172Y-110564646D01*
X139395354Y-110703828D01*
X139554595Y-110819524D01*
X139729975Y-110908884D01*
X139917174Y-110969709D01*
X140111583Y-111000500D01*
X140111587Y-111000500D01*
X140308413Y-111000500D01*
X140308417Y-111000500D01*
X140359584Y-110992396D01*
X142214710Y-110992396D01*
X142231781Y-111001094D01*
X142231780Y-111001094D01*
X142433876Y-111066758D01*
X142643743Y-111099999D01*
X142643756Y-111100000D01*
X142856244Y-111100000D01*
X142856256Y-111099999D01*
X143066123Y-111066758D01*
X143268219Y-111001094D01*
X143285289Y-110992395D01*
X142750000Y-110457106D01*
X142214710Y-110992396D01*
X140359584Y-110992396D01*
X140502826Y-110969709D01*
X140690025Y-110908884D01*
X140865405Y-110819524D01*
X141024646Y-110703828D01*
X141163828Y-110564646D01*
X141279524Y-110405405D01*
X141286106Y-110392486D01*
X141304160Y-110371695D01*
X141326559Y-110354331D01*
X141345799Y-110333515D01*
X141364591Y-110324849D01*
X141380946Y-110312172D01*
X141408287Y-110304701D01*
X141434027Y-110292833D01*
X141454704Y-110292019D01*
X141474666Y-110286565D01*
X141502767Y-110290124D01*
X142042892Y-109750000D01*
X141977066Y-109684174D01*
X142250000Y-109684174D01*
X142250000Y-109815826D01*
X142284075Y-109942993D01*
X142349901Y-110057007D01*
X142442993Y-110150099D01*
X142557007Y-110215925D01*
X142684174Y-110250000D01*
X142815826Y-110250000D01*
X142942993Y-110215925D01*
X143057007Y-110150099D01*
X143150099Y-110057007D01*
X143215925Y-109942993D01*
X143250000Y-109815826D01*
X143250000Y-109684174D01*
X143215925Y-109557007D01*
X143150099Y-109442993D01*
X143057007Y-109349901D01*
X142942993Y-109284075D01*
X142815826Y-109250000D01*
X142684174Y-109250000D01*
X142557007Y-109284075D01*
X142442993Y-109349901D01*
X142349901Y-109442993D01*
X142284075Y-109557007D01*
X142250000Y-109684174D01*
X141977066Y-109684174D01*
X141502760Y-109209868D01*
X141434045Y-109207169D01*
X141345814Y-109166495D01*
X141304159Y-109128304D01*
X141286106Y-109107513D01*
X141279524Y-109094595D01*
X141163828Y-108935354D01*
X141024646Y-108796172D01*
X140939443Y-108734268D01*
X140865410Y-108680479D01*
X140865407Y-108680477D01*
X140865405Y-108680476D01*
X140690025Y-108591116D01*
X140690024Y-108591115D01*
X140690023Y-108591115D01*
X140690017Y-108591113D01*
X140523055Y-108536864D01*
X140502826Y-108530291D01*
X140502824Y-108530290D01*
X140502822Y-108530290D01*
X140359576Y-108507602D01*
X142214710Y-108507602D01*
X142750000Y-109042892D01*
X143285288Y-108507603D01*
X143268214Y-108498904D01*
X143066123Y-108433241D01*
X142856256Y-108400000D01*
X142643743Y-108400000D01*
X142433874Y-108433241D01*
X142433873Y-108433241D01*
X142231793Y-108498900D01*
X142231779Y-108498906D01*
X142214710Y-108507602D01*
X140359576Y-108507602D01*
X140308428Y-108499501D01*
X140308419Y-108499500D01*
X140308417Y-108499500D01*
X140111583Y-108499500D01*
X140111580Y-108499500D01*
X140111571Y-108499501D01*
X139917177Y-108530290D01*
X139729982Y-108591113D01*
X139729976Y-108591115D01*
X139638740Y-108637602D01*
X139554595Y-108680476D01*
X139554592Y-108680477D01*
X139554590Y-108680479D01*
X139554589Y-108680479D01*
X139395357Y-108796169D01*
X139256169Y-108935357D01*
X139140479Y-109094589D01*
X139140479Y-109094590D01*
X139140477Y-109094592D01*
X139140476Y-109094595D01*
X139140022Y-109095487D01*
X139051115Y-109269976D01*
X139051113Y-109269982D01*
X138990290Y-109457177D01*
X138959501Y-109651571D01*
X138959500Y-109651587D01*
X112620500Y-109651587D01*
X112620500Y-98318205D01*
X118799500Y-98318205D01*
X118799500Y-98681794D01*
X118835137Y-99043625D01*
X118906071Y-99400238D01*
X118906074Y-99400251D01*
X119011609Y-99748150D01*
X119011617Y-99748171D01*
X119150751Y-100084073D01*
X119150757Y-100084084D01*
X119322142Y-100404725D01*
X119322148Y-100404735D01*
X119520513Y-100701607D01*
X119524146Y-100707044D01*
X119754803Y-100988101D01*
X120011899Y-101245197D01*
X120292956Y-101475854D01*
X120292968Y-101475862D01*
X120595264Y-101677851D01*
X120595274Y-101677857D01*
X120854092Y-101816197D01*
X120915924Y-101849247D01*
X121251836Y-101988386D01*
X121251848Y-101988389D01*
X121251849Y-101988390D01*
X121599748Y-102093925D01*
X121599758Y-102093927D01*
X121599767Y-102093930D01*
X121956369Y-102164862D01*
X122318206Y-102200500D01*
X122318209Y-102200500D01*
X122681791Y-102200500D01*
X122681794Y-102200500D01*
X123043631Y-102164862D01*
X123400233Y-102093930D01*
X123400244Y-102093926D01*
X123400251Y-102093925D01*
X123626693Y-102025233D01*
X123748164Y-101988386D01*
X124084076Y-101849247D01*
X124404732Y-101677853D01*
X124707044Y-101475854D01*
X124988101Y-101245197D01*
X125245197Y-100988101D01*
X125475854Y-100707044D01*
X125677853Y-100404732D01*
X125849247Y-100084076D01*
X125988386Y-99748164D01*
X126093930Y-99400233D01*
X126164862Y-99043631D01*
X126200500Y-98681794D01*
X126200500Y-98318206D01*
X126164862Y-97956369D01*
X126093930Y-97599767D01*
X126093927Y-97599758D01*
X126093925Y-97599748D01*
X125988390Y-97251849D01*
X125988389Y-97251848D01*
X125988386Y-97251836D01*
X125849247Y-96915924D01*
X125816197Y-96854092D01*
X125677857Y-96595274D01*
X125677851Y-96595264D01*
X125475862Y-96292968D01*
X125475854Y-96292956D01*
X125245197Y-96011899D01*
X124988101Y-95754803D01*
X124707044Y-95524146D01*
X124707031Y-95524137D01*
X124404735Y-95322148D01*
X124404725Y-95322142D01*
X124084084Y-95150757D01*
X124084073Y-95150751D01*
X123748171Y-95011617D01*
X123748164Y-95011614D01*
X123748159Y-95011612D01*
X123748150Y-95011609D01*
X123400251Y-94906074D01*
X123400238Y-94906071D01*
X123400233Y-94906070D01*
X123043631Y-94835138D01*
X123043629Y-94835137D01*
X123043625Y-94835137D01*
X122681794Y-94799500D01*
X122318206Y-94799500D01*
X122318205Y-94799500D01*
X121956374Y-94835137D01*
X121599761Y-94906071D01*
X121599748Y-94906074D01*
X121251849Y-95011609D01*
X121251828Y-95011617D01*
X120915926Y-95150751D01*
X120915915Y-95150757D01*
X120595274Y-95322142D01*
X120595264Y-95322148D01*
X120292968Y-95524137D01*
X120292957Y-95524145D01*
X120011902Y-95754800D01*
X119754800Y-96011902D01*
X119524145Y-96292957D01*
X119524137Y-96292968D01*
X119322148Y-96595264D01*
X119322142Y-96595274D01*
X119150757Y-96915915D01*
X119150751Y-96915926D01*
X119011617Y-97251828D01*
X119011609Y-97251849D01*
X118906074Y-97599748D01*
X118906071Y-97599761D01*
X118835137Y-97956374D01*
X118799500Y-98318205D01*
X112620500Y-98318205D01*
X112620500Y-95381989D01*
X114569500Y-95381989D01*
X114569500Y-95618011D01*
X114600307Y-95852014D01*
X114661394Y-96079993D01*
X114701667Y-96177222D01*
X114751713Y-96298043D01*
X114751718Y-96298054D01*
X114860887Y-96487139D01*
X114869727Y-96502450D01*
X115013408Y-96689699D01*
X115180301Y-96856592D01*
X115367550Y-97000273D01*
X115367559Y-97000278D01*
X115571945Y-97118281D01*
X115571948Y-97118282D01*
X115571951Y-97118284D01*
X115790007Y-97208606D01*
X116017986Y-97269693D01*
X116251989Y-97300500D01*
X116488011Y-97300500D01*
X116722014Y-97269693D01*
X116949993Y-97208606D01*
X117168049Y-97118284D01*
X117372450Y-97000273D01*
X117559699Y-96856592D01*
X117726592Y-96689699D01*
X117870273Y-96502450D01*
X117988284Y-96298049D01*
X118078606Y-96079993D01*
X118139693Y-95852014D01*
X118170500Y-95618011D01*
X118170500Y-95381989D01*
X118139693Y-95147986D01*
X118078606Y-94920007D01*
X117988284Y-94701951D01*
X117870273Y-94497550D01*
X117726592Y-94310301D01*
X117559699Y-94143408D01*
X117372450Y-93999727D01*
X117372440Y-93999721D01*
X117168054Y-93881718D01*
X117168043Y-93881713D01*
X117047222Y-93831667D01*
X116949993Y-93791394D01*
X116722014Y-93730307D01*
X116722007Y-93730306D01*
X116488011Y-93699500D01*
X116251989Y-93699500D01*
X116017992Y-93730306D01*
X116017990Y-93730306D01*
X116017986Y-93730307D01*
X115845640Y-93776487D01*
X115790010Y-93791393D01*
X115790007Y-93791394D01*
X115571956Y-93881713D01*
X115571945Y-93881718D01*
X115367559Y-93999721D01*
X115367549Y-93999727D01*
X115180301Y-94143408D01*
X115180297Y-94143411D01*
X115013411Y-94310297D01*
X115013408Y-94310301D01*
X114869727Y-94497549D01*
X114869721Y-94497559D01*
X114751718Y-94701945D01*
X114751713Y-94701956D01*
X114661394Y-94920007D01*
X114661393Y-94920010D01*
X114646487Y-94975640D01*
X114600307Y-95147986D01*
X114569500Y-95381989D01*
X112620500Y-95381989D01*
X112620500Y-89750000D01*
X116737986Y-89750000D01*
X116743904Y-89768216D01*
X116743911Y-89768230D01*
X116840376Y-89957553D01*
X116965275Y-90129462D01*
X117115537Y-90279724D01*
X117287446Y-90404623D01*
X117476769Y-90501088D01*
X117476790Y-90501097D01*
X117644999Y-90555751D01*
X117645000Y-90555750D01*
X117645000Y-89750001D01*
X118645000Y-89750001D01*
X118645000Y-90555751D01*
X118813209Y-90501097D01*
X118813230Y-90501088D01*
X119002553Y-90404623D01*
X119174462Y-90279724D01*
X119324724Y-90129462D01*
X119449623Y-89957553D01*
X119546088Y-89768230D01*
X119546095Y-89768216D01*
X119552014Y-89750000D01*
X118645001Y-89750000D01*
X118645000Y-89750001D01*
X117645000Y-89750001D01*
X117644999Y-89750000D01*
X116737986Y-89750000D01*
X112620500Y-89750000D01*
X112620500Y-85066234D01*
X115294500Y-85066234D01*
X115294500Y-85233765D01*
X115327185Y-85398086D01*
X115391295Y-85552859D01*
X115391297Y-85552863D01*
X115484374Y-85692162D01*
X115602838Y-85810626D01*
X115742137Y-85903703D01*
X115896918Y-85967816D01*
X116061233Y-86000500D01*
X116061235Y-86000500D01*
X116228765Y-86000500D01*
X116228767Y-86000500D01*
X116393082Y-85967816D01*
X116400207Y-85964864D01*
X116495493Y-85945908D01*
X116590781Y-85964859D01*
X116671564Y-86018833D01*
X116725543Y-86099613D01*
X116744500Y-86194901D01*
X116744500Y-87415704D01*
X116747401Y-87452563D01*
X116747401Y-87452566D01*
X116747402Y-87452569D01*
X116793256Y-87610398D01*
X116876919Y-87751865D01*
X116993135Y-87868081D01*
X117015054Y-87881044D01*
X117087423Y-87945860D01*
X117129480Y-88033440D01*
X117134821Y-88130448D01*
X117102631Y-88222115D01*
X117064374Y-88271437D01*
X116965280Y-88370531D01*
X116965277Y-88370535D01*
X116840376Y-88542446D01*
X116743911Y-88731769D01*
X116743904Y-88731783D01*
X116737986Y-88750000D01*
X118079174Y-88750000D01*
X117952007Y-88784075D01*
X117837993Y-88849901D01*
X117744901Y-88942993D01*
X117679075Y-89057007D01*
X117645000Y-89184174D01*
X117645000Y-89315826D01*
X117679075Y-89442993D01*
X117744901Y-89557007D01*
X117837993Y-89650099D01*
X117952007Y-89715925D01*
X118079174Y-89750000D01*
X118210826Y-89750000D01*
X118337993Y-89715925D01*
X118452007Y-89650099D01*
X118545099Y-89557007D01*
X118610925Y-89442993D01*
X118645000Y-89315826D01*
X118645000Y-89184174D01*
X118610925Y-89057007D01*
X118545099Y-88942993D01*
X118452007Y-88849901D01*
X118337993Y-88784075D01*
X118210826Y-88750000D01*
X119552013Y-88750000D01*
X119546095Y-88731783D01*
X119546088Y-88731769D01*
X119449623Y-88542446D01*
X119324724Y-88370537D01*
X119225625Y-88271438D01*
X119171649Y-88190656D01*
X119152695Y-88095368D01*
X119171649Y-88000080D01*
X119225625Y-87919298D01*
X119274936Y-87881049D01*
X119296865Y-87868081D01*
X119413081Y-87751865D01*
X119496744Y-87610398D01*
X119542598Y-87452569D01*
X119545500Y-87415694D01*
X119545500Y-86084306D01*
X119542598Y-86047431D01*
X119496744Y-85889602D01*
X119413081Y-85748135D01*
X119296865Y-85631919D01*
X119155398Y-85548256D01*
X118997569Y-85502402D01*
X118997566Y-85502401D01*
X118997563Y-85502401D01*
X118960704Y-85499500D01*
X118960694Y-85499500D01*
X117329306Y-85499500D01*
X117329295Y-85499500D01*
X117292425Y-85502402D01*
X117288012Y-85503208D01*
X117283159Y-85503131D01*
X117279748Y-85503400D01*
X117279722Y-85503077D01*
X117190869Y-85501676D01*
X117101707Y-85463085D01*
X117034100Y-85393311D01*
X116998341Y-85302977D01*
X116995993Y-85245999D01*
X116995500Y-85245999D01*
X116995500Y-85234031D01*
X116995492Y-85233837D01*
X116995497Y-85233778D01*
X116995500Y-85233767D01*
X116995500Y-85066233D01*
X116962816Y-84901918D01*
X116898703Y-84747137D01*
X116805626Y-84607838D01*
X116687162Y-84489374D01*
X116547863Y-84396297D01*
X116547860Y-84396296D01*
X116547859Y-84396295D01*
X116393086Y-84332185D01*
X116393082Y-84332184D01*
X116228767Y-84299500D01*
X116061233Y-84299500D01*
X115896918Y-84332184D01*
X115896913Y-84332185D01*
X115742140Y-84396295D01*
X115742135Y-84396298D01*
X115602841Y-84489371D01*
X115484371Y-84607841D01*
X115391298Y-84747135D01*
X115391295Y-84747140D01*
X115327185Y-84901913D01*
X115327184Y-84901917D01*
X115327184Y-84901918D01*
X115307576Y-85000498D01*
X115294500Y-85066234D01*
X112620500Y-85066234D01*
X112620500Y-80131989D01*
X114569500Y-80131989D01*
X114569500Y-80368011D01*
X114600307Y-80602014D01*
X114661394Y-80829993D01*
X114678103Y-80870332D01*
X114751713Y-81048043D01*
X114751718Y-81048054D01*
X114839445Y-81200000D01*
X114869727Y-81252450D01*
X115013408Y-81439699D01*
X115180301Y-81606592D01*
X115367550Y-81750273D01*
X115367559Y-81750278D01*
X115571945Y-81868281D01*
X115571948Y-81868282D01*
X115571951Y-81868284D01*
X115790007Y-81958606D01*
X116017986Y-82019693D01*
X116251989Y-82050500D01*
X116488011Y-82050500D01*
X116722014Y-82019693D01*
X116949993Y-81958606D01*
X117168049Y-81868284D01*
X117372450Y-81750273D01*
X117559699Y-81606592D01*
X117726592Y-81439699D01*
X117870273Y-81252450D01*
X117988284Y-81048049D01*
X118078606Y-80829993D01*
X118139693Y-80602014D01*
X118170500Y-80368011D01*
X118170500Y-80131989D01*
X120663786Y-80131989D01*
X120663786Y-80368011D01*
X120694593Y-80602014D01*
X120755680Y-80829993D01*
X120772389Y-80870332D01*
X120845999Y-81048043D01*
X120846004Y-81048054D01*
X120933731Y-81200000D01*
X120964013Y-81252450D01*
X121107694Y-81439699D01*
X121274587Y-81606592D01*
X121461836Y-81750273D01*
X121461845Y-81750278D01*
X121666231Y-81868281D01*
X121666234Y-81868282D01*
X121666237Y-81868284D01*
X121884293Y-81958606D01*
X122112272Y-82019693D01*
X122346275Y-82050500D01*
X122582297Y-82050500D01*
X122816300Y-82019693D01*
X123044279Y-81958606D01*
X123186454Y-81899715D01*
X127927390Y-81899715D01*
X128027849Y-81957715D01*
X128027858Y-81957719D01*
X128257949Y-82053025D01*
X128257958Y-82053028D01*
X128498538Y-82117491D01*
X128745467Y-82150000D01*
X128994533Y-82150000D01*
X129241461Y-82117491D01*
X129482041Y-82053028D01*
X129482050Y-82053025D01*
X129712139Y-81957721D01*
X129712152Y-81957714D01*
X129812608Y-81899715D01*
X128869999Y-80957106D01*
X127927390Y-81899715D01*
X123186454Y-81899715D01*
X123262335Y-81868284D01*
X123466736Y-81750273D01*
X123653985Y-81606592D01*
X123820878Y-81439699D01*
X123964559Y-81252450D01*
X124082570Y-81048049D01*
X124172892Y-80829993D01*
X124233979Y-80602014D01*
X124264786Y-80368011D01*
X124264786Y-80131989D01*
X124263927Y-80125467D01*
X126970000Y-80125467D01*
X126970000Y-80374532D01*
X127002508Y-80621461D01*
X127066971Y-80862041D01*
X127066974Y-80862050D01*
X127162280Y-81092141D01*
X127162287Y-81092157D01*
X127220283Y-81192608D01*
X128162893Y-80249999D01*
X128093950Y-80181056D01*
X128170000Y-80181056D01*
X128170000Y-80318944D01*
X128196901Y-80454182D01*
X128249668Y-80581574D01*
X128326274Y-80696224D01*
X128423776Y-80793726D01*
X128538426Y-80870332D01*
X128665818Y-80923099D01*
X128801056Y-80950000D01*
X128938944Y-80950000D01*
X129074182Y-80923099D01*
X129201574Y-80870332D01*
X129316224Y-80793726D01*
X129413726Y-80696224D01*
X129490332Y-80581574D01*
X129543099Y-80454182D01*
X129570000Y-80318944D01*
X129570000Y-80249999D01*
X129577106Y-80249999D01*
X130519715Y-81192608D01*
X130558326Y-81125733D01*
X142201373Y-81125733D01*
X142339004Y-81170453D01*
X142525547Y-81199998D01*
X142525562Y-81200000D01*
X142714438Y-81200000D01*
X142714452Y-81199998D01*
X142900996Y-81170453D01*
X142900998Y-81170452D01*
X143038626Y-81125733D01*
X142620000Y-80707106D01*
X142201373Y-81125733D01*
X130558326Y-81125733D01*
X130577714Y-81092152D01*
X130577721Y-81092139D01*
X130673025Y-80862050D01*
X130673028Y-80862041D01*
X130737491Y-80621461D01*
X130770000Y-80374532D01*
X130770000Y-80125465D01*
X130745071Y-79936106D01*
X130742080Y-79913393D01*
X139019500Y-79913393D01*
X139019500Y-80086606D01*
X139019501Y-80086621D01*
X139046597Y-80257697D01*
X139100124Y-80422437D01*
X139100126Y-80422443D01*
X139178770Y-80576792D01*
X139280581Y-80716922D01*
X139280583Y-80716924D01*
X139280586Y-80716928D01*
X139403072Y-80839414D01*
X139403075Y-80839416D01*
X139403077Y-80839418D01*
X139543207Y-80941229D01*
X139543209Y-80941230D01*
X139543212Y-80941232D01*
X139697555Y-81019873D01*
X139862299Y-81073402D01*
X140033389Y-81100500D01*
X140033393Y-81100500D01*
X140206607Y-81100500D01*
X140206611Y-81100500D01*
X140377701Y-81073402D01*
X140542445Y-81019873D01*
X140696788Y-80941232D01*
X140725389Y-80920452D01*
X140826731Y-80846823D01*
X140826732Y-80846822D01*
X140836922Y-80839418D01*
X140836928Y-80839414D01*
X140959414Y-80716928D01*
X141061232Y-80576788D01*
X141091116Y-80518135D01*
X141151261Y-80441840D01*
X141236027Y-80394367D01*
X141332509Y-80382946D01*
X141371104Y-80389059D01*
X141494264Y-80418627D01*
X141912893Y-79999999D01*
X141866816Y-79953922D01*
X142270000Y-79953922D01*
X142270000Y-80046078D01*
X142293852Y-80135095D01*
X142339930Y-80214905D01*
X142405095Y-80280070D01*
X142484905Y-80326148D01*
X142573922Y-80350000D01*
X142666078Y-80350000D01*
X142755095Y-80326148D01*
X142834905Y-80280070D01*
X142900070Y-80214905D01*
X142946148Y-80135095D01*
X142970000Y-80046078D01*
X142970000Y-80000000D01*
X143327106Y-80000000D01*
X143745733Y-80418626D01*
X143790452Y-80280998D01*
X143790453Y-80280996D01*
X143819998Y-80094452D01*
X143820000Y-80094437D01*
X143820000Y-79905562D01*
X143819998Y-79905547D01*
X143790453Y-79719004D01*
X143745733Y-79581373D01*
X143327106Y-80000000D01*
X142970000Y-80000000D01*
X142970000Y-79953922D01*
X142946148Y-79864905D01*
X142900070Y-79785095D01*
X142834905Y-79719930D01*
X142755095Y-79673852D01*
X142666078Y-79650000D01*
X142573922Y-79650000D01*
X142484905Y-79673852D01*
X142405095Y-79719930D01*
X142339930Y-79785095D01*
X142293852Y-79864905D01*
X142270000Y-79953922D01*
X141866816Y-79953922D01*
X141494265Y-79581371D01*
X141371104Y-79610940D01*
X141274024Y-79614754D01*
X141182874Y-79581128D01*
X141111531Y-79515179D01*
X141091122Y-79481875D01*
X141061232Y-79423212D01*
X141050070Y-79407849D01*
X140959418Y-79283077D01*
X140959416Y-79283075D01*
X140959414Y-79283072D01*
X140836928Y-79160586D01*
X140826728Y-79153175D01*
X140826726Y-79153173D01*
X140696792Y-79058770D01*
X140542443Y-78980126D01*
X140542437Y-78980124D01*
X140448195Y-78949503D01*
X140377701Y-78926598D01*
X140377699Y-78926597D01*
X140377697Y-78926597D01*
X140206621Y-78899501D01*
X140206614Y-78899500D01*
X140206611Y-78899500D01*
X140033389Y-78899500D01*
X140033386Y-78899500D01*
X140033378Y-78899501D01*
X139862302Y-78926597D01*
X139697562Y-78980124D01*
X139697556Y-78980126D01*
X139543207Y-79058770D01*
X139403077Y-79160581D01*
X139280581Y-79283077D01*
X139178770Y-79423207D01*
X139100126Y-79577556D01*
X139100124Y-79577562D01*
X139046597Y-79742302D01*
X139019501Y-79913378D01*
X139019500Y-79913393D01*
X130742080Y-79913393D01*
X130737491Y-79878537D01*
X130673028Y-79637958D01*
X130673025Y-79637949D01*
X130577719Y-79407858D01*
X130577715Y-79407849D01*
X130519715Y-79307390D01*
X129577106Y-80249999D01*
X129570000Y-80249999D01*
X129570000Y-80181056D01*
X129543099Y-80045818D01*
X129490332Y-79918426D01*
X129413726Y-79803776D01*
X129316224Y-79706274D01*
X129201574Y-79629668D01*
X129074182Y-79576901D01*
X128938944Y-79550000D01*
X128801056Y-79550000D01*
X128665818Y-79576901D01*
X128538426Y-79629668D01*
X128423776Y-79706274D01*
X128326274Y-79803776D01*
X128249668Y-79918426D01*
X128196901Y-80045818D01*
X128170000Y-80181056D01*
X128093950Y-80181056D01*
X127220284Y-79307389D01*
X127162283Y-79407851D01*
X127162278Y-79407860D01*
X127066974Y-79637949D01*
X127066971Y-79637958D01*
X127002508Y-79878538D01*
X126970000Y-80125467D01*
X124263927Y-80125467D01*
X124233979Y-79897986D01*
X124172892Y-79670007D01*
X124082570Y-79451951D01*
X124065973Y-79423205D01*
X123990737Y-79292892D01*
X123964559Y-79247550D01*
X123820878Y-79060301D01*
X123653985Y-78893408D01*
X123645723Y-78887068D01*
X123466744Y-78749732D01*
X123466726Y-78749721D01*
X123262340Y-78631718D01*
X123262329Y-78631713D01*
X123186452Y-78600284D01*
X127927389Y-78600284D01*
X128869999Y-79542892D01*
X129538626Y-78874265D01*
X142201371Y-78874265D01*
X142619999Y-79292892D01*
X143038626Y-78874264D01*
X143038627Y-78874264D01*
X142901007Y-78829550D01*
X142900988Y-78829545D01*
X142714452Y-78800001D01*
X142714438Y-78800000D01*
X142525562Y-78800000D01*
X142525547Y-78800001D01*
X142339011Y-78829545D01*
X142339000Y-78829548D01*
X142201372Y-78874265D01*
X142201371Y-78874265D01*
X129538626Y-78874265D01*
X129812608Y-78600283D01*
X129712157Y-78542287D01*
X129712141Y-78542280D01*
X129482050Y-78446974D01*
X129482041Y-78446971D01*
X129241461Y-78382508D01*
X128994533Y-78350000D01*
X128745467Y-78350000D01*
X128498538Y-78382508D01*
X128257958Y-78446971D01*
X128257949Y-78446974D01*
X128027860Y-78542278D01*
X128027851Y-78542283D01*
X127927389Y-78600284D01*
X123186452Y-78600284D01*
X123094323Y-78562123D01*
X123044279Y-78541394D01*
X122816300Y-78480307D01*
X122816293Y-78480306D01*
X122582297Y-78449500D01*
X122346275Y-78449500D01*
X122112278Y-78480306D01*
X122112276Y-78480306D01*
X122112272Y-78480307D01*
X121939926Y-78526487D01*
X121884296Y-78541393D01*
X121884293Y-78541394D01*
X121666242Y-78631713D01*
X121666231Y-78631718D01*
X121461845Y-78749721D01*
X121461835Y-78749727D01*
X121274587Y-78893408D01*
X121274583Y-78893411D01*
X121107697Y-79060297D01*
X121107694Y-79060301D01*
X120964013Y-79247549D01*
X120964007Y-79247559D01*
X120846004Y-79451945D01*
X120845999Y-79451956D01*
X120761663Y-79655562D01*
X120755680Y-79670007D01*
X120694593Y-79897986D01*
X120694592Y-79897990D01*
X120694592Y-79897992D01*
X120684340Y-79975862D01*
X120663786Y-80131989D01*
X118170500Y-80131989D01*
X118139693Y-79897986D01*
X118078606Y-79670007D01*
X117988284Y-79451951D01*
X117971687Y-79423205D01*
X117896451Y-79292892D01*
X117870273Y-79247550D01*
X117726592Y-79060301D01*
X117559699Y-78893408D01*
X117372450Y-78749727D01*
X117338502Y-78730127D01*
X117168054Y-78631718D01*
X117168043Y-78631713D01*
X117000037Y-78562123D01*
X116949993Y-78541394D01*
X116722014Y-78480307D01*
X116722007Y-78480306D01*
X116488011Y-78449500D01*
X116251989Y-78449500D01*
X116017992Y-78480306D01*
X116017990Y-78480306D01*
X116017986Y-78480307D01*
X115845640Y-78526487D01*
X115790010Y-78541393D01*
X115790007Y-78541394D01*
X115571956Y-78631713D01*
X115571945Y-78631718D01*
X115367559Y-78749721D01*
X115367549Y-78749727D01*
X115180301Y-78893408D01*
X115180297Y-78893411D01*
X115013411Y-79060297D01*
X115013408Y-79060301D01*
X114869727Y-79247549D01*
X114869721Y-79247559D01*
X114751718Y-79451945D01*
X114751713Y-79451956D01*
X114667377Y-79655562D01*
X114661394Y-79670007D01*
X114600307Y-79897986D01*
X114600306Y-79897990D01*
X114600306Y-79897992D01*
X114590054Y-79975862D01*
X114569500Y-80131989D01*
X112620500Y-80131989D01*
X112620500Y-75875733D01*
X136976373Y-75875733D01*
X137114004Y-75920453D01*
X137300547Y-75949998D01*
X137300562Y-75950000D01*
X137489438Y-75950000D01*
X137489452Y-75949998D01*
X137675996Y-75920453D01*
X137675998Y-75920452D01*
X137813626Y-75875733D01*
X137395000Y-75457106D01*
X136976373Y-75875733D01*
X112620500Y-75875733D01*
X112620500Y-75705093D01*
X130647011Y-75705093D01*
X130840588Y-75767991D01*
X131042676Y-75799998D01*
X131042692Y-75800000D01*
X131247308Y-75800000D01*
X131247323Y-75799998D01*
X131449412Y-75767991D01*
X131449414Y-75767990D01*
X131642987Y-75705094D01*
X131144999Y-75207106D01*
X130647011Y-75705093D01*
X112620500Y-75705093D01*
X112620500Y-74397692D01*
X129845000Y-74397692D01*
X129845000Y-74602307D01*
X129845001Y-74602323D01*
X129877009Y-74804414D01*
X129939904Y-74997988D01*
X130437893Y-74500000D01*
X130385232Y-74447339D01*
X130745000Y-74447339D01*
X130745000Y-74552661D01*
X130772259Y-74654394D01*
X130824920Y-74745606D01*
X130899394Y-74820080D01*
X130990606Y-74872741D01*
X131092339Y-74900000D01*
X131197661Y-74900000D01*
X131299394Y-74872741D01*
X131390606Y-74820080D01*
X131465080Y-74745606D01*
X131517741Y-74654394D01*
X131545000Y-74552661D01*
X131545000Y-74499999D01*
X131852106Y-74499999D01*
X132350094Y-74997987D01*
X132412990Y-74804414D01*
X132412991Y-74804412D01*
X132436567Y-74655562D01*
X136195000Y-74655562D01*
X136195000Y-74844437D01*
X136195001Y-74844452D01*
X136224545Y-75030988D01*
X136224550Y-75031007D01*
X136269264Y-75168626D01*
X136687893Y-74749999D01*
X136641816Y-74703922D01*
X137045000Y-74703922D01*
X137045000Y-74796078D01*
X137068852Y-74885095D01*
X137114930Y-74964905D01*
X137180095Y-75030070D01*
X137259905Y-75076148D01*
X137348922Y-75100000D01*
X137441078Y-75100000D01*
X137530095Y-75076148D01*
X137609905Y-75030070D01*
X137675070Y-74964905D01*
X137721148Y-74885095D01*
X137745000Y-74796078D01*
X137745000Y-74750000D01*
X138102106Y-74750000D01*
X138520733Y-75168626D01*
X138565452Y-75030998D01*
X138565453Y-75030996D01*
X138594998Y-74844452D01*
X138595000Y-74844437D01*
X138595000Y-74655562D01*
X138594998Y-74655547D01*
X138565453Y-74469004D01*
X138520733Y-74331373D01*
X138102106Y-74750000D01*
X137745000Y-74750000D01*
X137745000Y-74703922D01*
X137721148Y-74614905D01*
X137675070Y-74535095D01*
X137609905Y-74469930D01*
X137530095Y-74423852D01*
X137441078Y-74400000D01*
X137348922Y-74400000D01*
X137259905Y-74423852D01*
X137180095Y-74469930D01*
X137114930Y-74535095D01*
X137068852Y-74614905D01*
X137045000Y-74703922D01*
X136641816Y-74703922D01*
X136269265Y-74331371D01*
X136269265Y-74331372D01*
X136224548Y-74469000D01*
X136224545Y-74469011D01*
X136195001Y-74655547D01*
X136195000Y-74655562D01*
X132436567Y-74655562D01*
X132444286Y-74606823D01*
X132444286Y-74606822D01*
X132444998Y-74602320D01*
X132445000Y-74602307D01*
X132445000Y-74397692D01*
X132444998Y-74397676D01*
X132412991Y-74195588D01*
X132350093Y-74002011D01*
X131852106Y-74499999D01*
X131545000Y-74499999D01*
X131545000Y-74447339D01*
X131517741Y-74345606D01*
X131465080Y-74254394D01*
X131390606Y-74179920D01*
X131299394Y-74127259D01*
X131197661Y-74100000D01*
X131092339Y-74100000D01*
X130990606Y-74127259D01*
X130899394Y-74179920D01*
X130824920Y-74254394D01*
X130772259Y-74345606D01*
X130745000Y-74447339D01*
X130385232Y-74447339D01*
X129939904Y-74002011D01*
X129877012Y-74195576D01*
X129877007Y-74195595D01*
X129845001Y-74397676D01*
X129845000Y-74397692D01*
X112620500Y-74397692D01*
X112620500Y-72396021D01*
X117002000Y-72396021D01*
X117002000Y-72703978D01*
X117002001Y-72703994D01*
X117035312Y-72914315D01*
X117035317Y-72914334D01*
X117099719Y-73112547D01*
X117101125Y-73116872D01*
X117194688Y-73300500D01*
X117197812Y-73306630D01*
X117271238Y-73407692D01*
X117322989Y-73478921D01*
X117473579Y-73629511D01*
X117645873Y-73754690D01*
X117835628Y-73851375D01*
X118038172Y-73917185D01*
X118038183Y-73917186D01*
X118038184Y-73917187D01*
X118143344Y-73933842D01*
X118248517Y-73950500D01*
X118248521Y-73950500D01*
X118461479Y-73950500D01*
X118461483Y-73950500D01*
X118671828Y-73917185D01*
X118874372Y-73851375D01*
X119064127Y-73754690D01*
X119236421Y-73629511D01*
X119385311Y-73480620D01*
X119466089Y-73426646D01*
X119561377Y-73407692D01*
X119656665Y-73426646D01*
X119737447Y-73480622D01*
X119762822Y-73510332D01*
X119787091Y-73543735D01*
X119948763Y-73705407D01*
X120133720Y-73839786D01*
X120133719Y-73839786D01*
X120337433Y-73943583D01*
X120395000Y-73962287D01*
X120395000Y-72783974D01*
X120454890Y-72887708D01*
X120557292Y-72990110D01*
X120682708Y-73062518D01*
X120822591Y-73100000D01*
X120967409Y-73100000D01*
X121107292Y-73062518D01*
X121232708Y-72990110D01*
X121335110Y-72887708D01*
X121395000Y-72783974D01*
X121395000Y-73962286D01*
X121452566Y-73943583D01*
X121656280Y-73839786D01*
X121656281Y-73839785D01*
X121805352Y-73731478D01*
X121893582Y-73690802D01*
X121990663Y-73686987D01*
X122081813Y-73720614D01*
X122140352Y-73774726D01*
X122140594Y-73774485D01*
X122146726Y-73780617D01*
X122153152Y-73786557D01*
X122154443Y-73788334D01*
X122154448Y-73788339D01*
X122154450Y-73788342D01*
X122244158Y-73878050D01*
X122244160Y-73878051D01*
X122357196Y-73935646D01*
X122357200Y-73935647D01*
X122430962Y-73947329D01*
X122450981Y-73950500D01*
X124419018Y-73950499D01*
X124512804Y-73935646D01*
X124625842Y-73878050D01*
X124715550Y-73788342D01*
X124773146Y-73675304D01*
X124777035Y-73650753D01*
X124787998Y-73581530D01*
X124788000Y-73581519D01*
X124787999Y-71905523D01*
X129944500Y-71905523D01*
X129944500Y-72094476D01*
X129944501Y-72094492D01*
X129974059Y-72281114D01*
X129974060Y-72281118D01*
X129982472Y-72307007D01*
X130012719Y-72400099D01*
X130032453Y-72460832D01*
X130118240Y-72629199D01*
X130229310Y-72782073D01*
X130362927Y-72915690D01*
X130515801Y-73026760D01*
X130515806Y-73026762D01*
X130515808Y-73026764D01*
X130524143Y-73031872D01*
X130523465Y-73032977D01*
X130591466Y-73086585D01*
X130638938Y-73171353D01*
X130650357Y-73267834D01*
X130646198Y-73294091D01*
X131145000Y-73792893D01*
X131645213Y-73292679D01*
X131641940Y-73209345D01*
X131675567Y-73118195D01*
X131741516Y-73046852D01*
X131765886Y-73031919D01*
X131765857Y-73031872D01*
X131774191Y-73026764D01*
X131774190Y-73026764D01*
X131774199Y-73026760D01*
X131927073Y-72915690D01*
X132060690Y-72782073D01*
X132171760Y-72629199D01*
X132257547Y-72460832D01*
X132315940Y-72281118D01*
X132334586Y-72163393D01*
X136294500Y-72163393D01*
X136294500Y-72336606D01*
X136294501Y-72336621D01*
X136321597Y-72507697D01*
X136375124Y-72672437D01*
X136375126Y-72672443D01*
X136453770Y-72826792D01*
X136555581Y-72966922D01*
X136555583Y-72966924D01*
X136555586Y-72966928D01*
X136678072Y-73089414D01*
X136678075Y-73089416D01*
X136678077Y-73089418D01*
X136790851Y-73171353D01*
X136818212Y-73191232D01*
X136876867Y-73221117D01*
X136953160Y-73281262D01*
X137000632Y-73366029D01*
X137012053Y-73462510D01*
X137005940Y-73501104D01*
X136976371Y-73624265D01*
X137394999Y-74042892D01*
X137824903Y-73612988D01*
X137823825Y-73585547D01*
X137857452Y-73494397D01*
X137923401Y-73423054D01*
X138011632Y-73382380D01*
X138069759Y-73375500D01*
X144895766Y-73375500D01*
X145042135Y-73336281D01*
X145173365Y-73260515D01*
X149035450Y-69398430D01*
X149116232Y-69344454D01*
X149211520Y-69325500D01*
X149235546Y-69325500D01*
X149330834Y-69344454D01*
X149411616Y-69398430D01*
X149465592Y-69479212D01*
X149484546Y-69574500D01*
X149465592Y-69669788D01*
X149411616Y-69750570D01*
X148312686Y-70849500D01*
X148312685Y-70849499D01*
X148219502Y-70942683D01*
X148219501Y-70942683D01*
X148153606Y-71056818D01*
X148119500Y-71184107D01*
X148119500Y-76985892D01*
X148153606Y-77113181D01*
X148153607Y-77113183D01*
X148153608Y-77113186D01*
X148219500Y-77227314D01*
X150647733Y-79655547D01*
X153066616Y-82074430D01*
X153120592Y-82155212D01*
X153139546Y-82250500D01*
X153120592Y-82345788D01*
X153066616Y-82426570D01*
X152985834Y-82480546D01*
X152890546Y-82499500D01*
X152811583Y-82499500D01*
X152811580Y-82499500D01*
X152811571Y-82499501D01*
X152617177Y-82530290D01*
X152429982Y-82591113D01*
X152429976Y-82591115D01*
X152338740Y-82637602D01*
X152254595Y-82680476D01*
X152254592Y-82680477D01*
X152254590Y-82680479D01*
X152254589Y-82680479D01*
X152095357Y-82796169D01*
X151956169Y-82935357D01*
X151841444Y-83093261D01*
X151770100Y-83159209D01*
X151678950Y-83192836D01*
X151581870Y-83189021D01*
X151493640Y-83148345D01*
X151438556Y-83093261D01*
X151323830Y-82935357D01*
X151323828Y-82935354D01*
X151184646Y-82796172D01*
X151184642Y-82796169D01*
X151025410Y-82680479D01*
X151025407Y-82680477D01*
X151025405Y-82680476D01*
X150850025Y-82591116D01*
X150850024Y-82591115D01*
X150850023Y-82591115D01*
X150850017Y-82591113D01*
X150699262Y-82542130D01*
X150662826Y-82530291D01*
X150662824Y-82530290D01*
X150662822Y-82530290D01*
X150468428Y-82499501D01*
X150468419Y-82499500D01*
X150468417Y-82499500D01*
X150271583Y-82499500D01*
X150271580Y-82499500D01*
X150271571Y-82499501D01*
X150077177Y-82530290D01*
X149889982Y-82591113D01*
X149889976Y-82591115D01*
X149798740Y-82637602D01*
X149714595Y-82680476D01*
X149714592Y-82680477D01*
X149714590Y-82680479D01*
X149714589Y-82680479D01*
X149555357Y-82796169D01*
X149416169Y-82935357D01*
X149301444Y-83093261D01*
X149230100Y-83159209D01*
X149138950Y-83192836D01*
X149041870Y-83189021D01*
X148953640Y-83148345D01*
X148898556Y-83093261D01*
X148783830Y-82935357D01*
X148783828Y-82935354D01*
X148644646Y-82796172D01*
X148644642Y-82796169D01*
X148485410Y-82680479D01*
X148485407Y-82680477D01*
X148485405Y-82680476D01*
X148310025Y-82591116D01*
X148310024Y-82591115D01*
X148310023Y-82591115D01*
X148310017Y-82591113D01*
X148159262Y-82542130D01*
X148122826Y-82530291D01*
X148122824Y-82530290D01*
X148122822Y-82530290D01*
X147928428Y-82499501D01*
X147928419Y-82499500D01*
X147928417Y-82499500D01*
X147731583Y-82499500D01*
X147731580Y-82499500D01*
X147731571Y-82499501D01*
X147537177Y-82530290D01*
X147349982Y-82591113D01*
X147349976Y-82591115D01*
X147258740Y-82637602D01*
X147174595Y-82680476D01*
X147174592Y-82680477D01*
X147174590Y-82680479D01*
X147174589Y-82680479D01*
X147015357Y-82796169D01*
X146876169Y-82935357D01*
X146761444Y-83093261D01*
X146690100Y-83159209D01*
X146598950Y-83192836D01*
X146501870Y-83189021D01*
X146413640Y-83148345D01*
X146358556Y-83093261D01*
X146243830Y-82935357D01*
X146243828Y-82935354D01*
X146104646Y-82796172D01*
X146104642Y-82796169D01*
X145945410Y-82680479D01*
X145945407Y-82680477D01*
X145945405Y-82680476D01*
X145770025Y-82591116D01*
X145770024Y-82591115D01*
X145770023Y-82591115D01*
X145770017Y-82591113D01*
X145619262Y-82542130D01*
X145582826Y-82530291D01*
X145582824Y-82530290D01*
X145582822Y-82530290D01*
X145388428Y-82499501D01*
X145388419Y-82499500D01*
X145388417Y-82499500D01*
X145191583Y-82499500D01*
X145191580Y-82499500D01*
X145191571Y-82499501D01*
X144997177Y-82530290D01*
X144809982Y-82591113D01*
X144809976Y-82591115D01*
X144718740Y-82637602D01*
X144634595Y-82680476D01*
X144634592Y-82680477D01*
X144634590Y-82680479D01*
X144634589Y-82680479D01*
X144475357Y-82796169D01*
X144336169Y-82935357D01*
X144220471Y-83094600D01*
X144220126Y-83095164D01*
X144219826Y-83095487D01*
X144214724Y-83102511D01*
X144213892Y-83101906D01*
X144154173Y-83166503D01*
X144065940Y-83207173D01*
X143997235Y-83209871D01*
X143457106Y-83750000D01*
X143997234Y-84290127D01*
X144065958Y-84292829D01*
X144154188Y-84333506D01*
X144213891Y-84398094D01*
X144214724Y-84397489D01*
X144219837Y-84404527D01*
X144220136Y-84404850D01*
X144220139Y-84404855D01*
X144220479Y-84405410D01*
X144221444Y-84406738D01*
X144336172Y-84564646D01*
X144475354Y-84703828D01*
X144475357Y-84703830D01*
X144534967Y-84747140D01*
X144634595Y-84819524D01*
X144809975Y-84908884D01*
X144997174Y-84969709D01*
X145191583Y-85000500D01*
X145191587Y-85000500D01*
X145388413Y-85000500D01*
X145388417Y-85000500D01*
X145582826Y-84969709D01*
X145770025Y-84908884D01*
X145945405Y-84819524D01*
X146104646Y-84703828D01*
X146243828Y-84564646D01*
X146358556Y-84406736D01*
X146429899Y-84340790D01*
X146521049Y-84307163D01*
X146618129Y-84310978D01*
X146706360Y-84351653D01*
X146761443Y-84406736D01*
X146876172Y-84564646D01*
X147015354Y-84703828D01*
X147015357Y-84703830D01*
X147074967Y-84747140D01*
X147174595Y-84819524D01*
X147349975Y-84908884D01*
X147537174Y-84969709D01*
X147731583Y-85000500D01*
X147731587Y-85000500D01*
X147928413Y-85000500D01*
X147928417Y-85000500D01*
X148122826Y-84969709D01*
X148310025Y-84908884D01*
X148485405Y-84819524D01*
X148644646Y-84703828D01*
X148783828Y-84564646D01*
X148898556Y-84406736D01*
X148969899Y-84340790D01*
X149061049Y-84307163D01*
X149158129Y-84310978D01*
X149246360Y-84351653D01*
X149301443Y-84406736D01*
X149416172Y-84564646D01*
X149555354Y-84703828D01*
X149555357Y-84703830D01*
X149614967Y-84747140D01*
X149714595Y-84819524D01*
X149889975Y-84908884D01*
X150077174Y-84969709D01*
X150271583Y-85000500D01*
X150271587Y-85000500D01*
X150468413Y-85000500D01*
X150468417Y-85000500D01*
X150662826Y-84969709D01*
X150850025Y-84908884D01*
X151025405Y-84819524D01*
X151184646Y-84703828D01*
X151323828Y-84564646D01*
X151438556Y-84406736D01*
X151509899Y-84340790D01*
X151601049Y-84307163D01*
X151698129Y-84310978D01*
X151786360Y-84351653D01*
X151841443Y-84406736D01*
X151956172Y-84564646D01*
X152095354Y-84703828D01*
X152095357Y-84703830D01*
X152154967Y-84747140D01*
X152254595Y-84819524D01*
X152429975Y-84908884D01*
X152617174Y-84969709D01*
X152811583Y-85000500D01*
X152811587Y-85000500D01*
X153008413Y-85000500D01*
X153008417Y-85000500D01*
X153202826Y-84969709D01*
X153390025Y-84908884D01*
X153565405Y-84819524D01*
X153724646Y-84703828D01*
X153863828Y-84564646D01*
X153978556Y-84406736D01*
X154049899Y-84340790D01*
X154141049Y-84307163D01*
X154238129Y-84310978D01*
X154326360Y-84351653D01*
X154381443Y-84406736D01*
X154496172Y-84564646D01*
X154635354Y-84703828D01*
X154635357Y-84703830D01*
X154694967Y-84747140D01*
X154794595Y-84819524D01*
X154969975Y-84908884D01*
X155157174Y-84969709D01*
X155351583Y-85000500D01*
X155351587Y-85000500D01*
X155548413Y-85000500D01*
X155548417Y-85000500D01*
X155742826Y-84969709D01*
X155930025Y-84908884D01*
X156105405Y-84819524D01*
X156264646Y-84703828D01*
X156403828Y-84564646D01*
X156518556Y-84406736D01*
X156589899Y-84340790D01*
X156681049Y-84307163D01*
X156778129Y-84310978D01*
X156866360Y-84351653D01*
X156921443Y-84406736D01*
X157036172Y-84564646D01*
X157175354Y-84703828D01*
X157175357Y-84703830D01*
X157234967Y-84747140D01*
X157334595Y-84819524D01*
X157509975Y-84908884D01*
X157697174Y-84969709D01*
X157891583Y-85000500D01*
X157891587Y-85000500D01*
X158088413Y-85000500D01*
X158088417Y-85000500D01*
X158282826Y-84969709D01*
X158470025Y-84908884D01*
X158645405Y-84819524D01*
X158804646Y-84703828D01*
X158943828Y-84564646D01*
X159058556Y-84406736D01*
X159129899Y-84340790D01*
X159221049Y-84307163D01*
X159318129Y-84310978D01*
X159406360Y-84351653D01*
X159461443Y-84406736D01*
X159576172Y-84564646D01*
X159715354Y-84703828D01*
X159715357Y-84703830D01*
X159774967Y-84747140D01*
X159874595Y-84819524D01*
X160049975Y-84908884D01*
X160237174Y-84969709D01*
X160431583Y-85000500D01*
X160431587Y-85000500D01*
X160628413Y-85000500D01*
X160628417Y-85000500D01*
X160822826Y-84969709D01*
X161010025Y-84908884D01*
X161185405Y-84819524D01*
X161344646Y-84703828D01*
X161483828Y-84564646D01*
X161598556Y-84406736D01*
X161669899Y-84340790D01*
X161761049Y-84307163D01*
X161858129Y-84310978D01*
X161946360Y-84351653D01*
X162001443Y-84406736D01*
X162116172Y-84564646D01*
X162255354Y-84703828D01*
X162255357Y-84703830D01*
X162314967Y-84747140D01*
X162414595Y-84819524D01*
X162589975Y-84908884D01*
X162777174Y-84969709D01*
X162971583Y-85000500D01*
X162971587Y-85000500D01*
X163168413Y-85000500D01*
X163168417Y-85000500D01*
X163362826Y-84969709D01*
X163550025Y-84908884D01*
X163725405Y-84819524D01*
X163884646Y-84703828D01*
X164023828Y-84564646D01*
X164138556Y-84406736D01*
X164209899Y-84340790D01*
X164301049Y-84307163D01*
X164398129Y-84310978D01*
X164486360Y-84351653D01*
X164541443Y-84406736D01*
X164656172Y-84564646D01*
X164795354Y-84703828D01*
X164795357Y-84703830D01*
X164854967Y-84747140D01*
X164954595Y-84819524D01*
X165129975Y-84908884D01*
X165317174Y-84969709D01*
X165511583Y-85000500D01*
X165511587Y-85000500D01*
X165708413Y-85000500D01*
X165708417Y-85000500D01*
X165902826Y-84969709D01*
X166090025Y-84908884D01*
X166265405Y-84819524D01*
X166424646Y-84703828D01*
X166563828Y-84564646D01*
X166678556Y-84406736D01*
X166749899Y-84340790D01*
X166841049Y-84307163D01*
X166938129Y-84310978D01*
X167026360Y-84351653D01*
X167081443Y-84406736D01*
X167196172Y-84564646D01*
X167335354Y-84703828D01*
X167335357Y-84703830D01*
X167394967Y-84747140D01*
X167494595Y-84819524D01*
X167669975Y-84908884D01*
X167857174Y-84969709D01*
X168051583Y-85000500D01*
X168051587Y-85000500D01*
X168248413Y-85000500D01*
X168248417Y-85000500D01*
X168442826Y-84969709D01*
X168630025Y-84908884D01*
X168805405Y-84819524D01*
X168964646Y-84703828D01*
X169103828Y-84564646D01*
X169218556Y-84406736D01*
X169289899Y-84340790D01*
X169381049Y-84307163D01*
X169478129Y-84310978D01*
X169566360Y-84351653D01*
X169621443Y-84406736D01*
X169736172Y-84564646D01*
X169875354Y-84703828D01*
X169875357Y-84703830D01*
X169934967Y-84747140D01*
X170034595Y-84819524D01*
X170209975Y-84908884D01*
X170397174Y-84969709D01*
X170591583Y-85000500D01*
X170591587Y-85000500D01*
X170788413Y-85000500D01*
X170788417Y-85000500D01*
X170982826Y-84969709D01*
X171170025Y-84908884D01*
X171345405Y-84819524D01*
X171504646Y-84703828D01*
X171643828Y-84564646D01*
X171758556Y-84406736D01*
X171829899Y-84340790D01*
X171921049Y-84307163D01*
X172018129Y-84310978D01*
X172106360Y-84351653D01*
X172161443Y-84406736D01*
X172276172Y-84564646D01*
X172415354Y-84703828D01*
X172415357Y-84703830D01*
X172474967Y-84747140D01*
X172574595Y-84819524D01*
X172749975Y-84908884D01*
X172937174Y-84969709D01*
X173131583Y-85000500D01*
X173131587Y-85000500D01*
X173328413Y-85000500D01*
X173328417Y-85000500D01*
X173522826Y-84969709D01*
X173710025Y-84908884D01*
X173885405Y-84819524D01*
X174044646Y-84703828D01*
X174121677Y-84626796D01*
X174202452Y-84572825D01*
X174297741Y-84553870D01*
X174393029Y-84572823D01*
X174473811Y-84626799D01*
X174527787Y-84707580D01*
X174534251Y-84725102D01*
X174545480Y-84747140D01*
X174591950Y-84838342D01*
X174681658Y-84928050D01*
X174681660Y-84928051D01*
X174794696Y-84985646D01*
X174794700Y-84985647D01*
X174868462Y-84997329D01*
X174888481Y-85000500D01*
X176651518Y-85000499D01*
X176745304Y-84985646D01*
X176858342Y-84928050D01*
X176948050Y-84838342D01*
X177005646Y-84725304D01*
X177009048Y-84703828D01*
X177020498Y-84631530D01*
X177020500Y-84631519D01*
X177020499Y-82868482D01*
X177005646Y-82774696D01*
X176948050Y-82661658D01*
X176858342Y-82571950D01*
X176858339Y-82571948D01*
X176745303Y-82514353D01*
X176745299Y-82514352D01*
X176651530Y-82499501D01*
X176651522Y-82499500D01*
X176651519Y-82499500D01*
X176651514Y-82499500D01*
X174888484Y-82499500D01*
X174794695Y-82514354D01*
X174681659Y-82571949D01*
X174591948Y-82661660D01*
X174525458Y-82792156D01*
X174524658Y-82791748D01*
X174487073Y-82858853D01*
X174410772Y-82918997D01*
X174317263Y-82945363D01*
X174220782Y-82933937D01*
X174136018Y-82886460D01*
X174121685Y-82873211D01*
X174044646Y-82796172D01*
X174044642Y-82796169D01*
X173885410Y-82680479D01*
X173885407Y-82680477D01*
X173885405Y-82680476D01*
X173710025Y-82591116D01*
X173710024Y-82591115D01*
X173710023Y-82591115D01*
X173710017Y-82591113D01*
X173559262Y-82542130D01*
X173522826Y-82530291D01*
X173522824Y-82530290D01*
X173522822Y-82530290D01*
X173328428Y-82499501D01*
X173328419Y-82499500D01*
X173328417Y-82499500D01*
X173131583Y-82499500D01*
X173131580Y-82499500D01*
X173131571Y-82499501D01*
X172937177Y-82530290D01*
X172749982Y-82591113D01*
X172749976Y-82591115D01*
X172658740Y-82637602D01*
X172574595Y-82680476D01*
X172574592Y-82680477D01*
X172574590Y-82680479D01*
X172574589Y-82680479D01*
X172415357Y-82796169D01*
X172276169Y-82935357D01*
X172161444Y-83093261D01*
X172090100Y-83159209D01*
X171998950Y-83192836D01*
X171901870Y-83189021D01*
X171813640Y-83148345D01*
X171758556Y-83093261D01*
X171643830Y-82935357D01*
X171643828Y-82935354D01*
X171504646Y-82796172D01*
X171504642Y-82796169D01*
X171345410Y-82680479D01*
X171345407Y-82680477D01*
X171345405Y-82680476D01*
X171170025Y-82591116D01*
X171170024Y-82591115D01*
X171170023Y-82591115D01*
X171170017Y-82591113D01*
X171019262Y-82542130D01*
X170982826Y-82530291D01*
X170982824Y-82530290D01*
X170982822Y-82530290D01*
X170788428Y-82499501D01*
X170788419Y-82499500D01*
X170788417Y-82499500D01*
X170591583Y-82499500D01*
X170591580Y-82499500D01*
X170591571Y-82499501D01*
X170397177Y-82530290D01*
X170209982Y-82591113D01*
X170209976Y-82591115D01*
X170118740Y-82637602D01*
X170034595Y-82680476D01*
X170034592Y-82680477D01*
X170034590Y-82680479D01*
X170034589Y-82680479D01*
X169875357Y-82796169D01*
X169736169Y-82935357D01*
X169621444Y-83093261D01*
X169550100Y-83159209D01*
X169458950Y-83192836D01*
X169361870Y-83189021D01*
X169273640Y-83148345D01*
X169218556Y-83093261D01*
X169103830Y-82935357D01*
X169103828Y-82935354D01*
X168964646Y-82796172D01*
X168964642Y-82796169D01*
X168805410Y-82680479D01*
X168805407Y-82680477D01*
X168805405Y-82680476D01*
X168630025Y-82591116D01*
X168630024Y-82591115D01*
X168630023Y-82591115D01*
X168630017Y-82591113D01*
X168479262Y-82542130D01*
X168442826Y-82530291D01*
X168442824Y-82530290D01*
X168442822Y-82530290D01*
X168248428Y-82499501D01*
X168248419Y-82499500D01*
X168248417Y-82499500D01*
X168051583Y-82499500D01*
X168051580Y-82499500D01*
X168051571Y-82499501D01*
X167857177Y-82530290D01*
X167669982Y-82591113D01*
X167669976Y-82591115D01*
X167578740Y-82637602D01*
X167494595Y-82680476D01*
X167494592Y-82680477D01*
X167494590Y-82680479D01*
X167494589Y-82680479D01*
X167335357Y-82796169D01*
X167196169Y-82935357D01*
X167081444Y-83093261D01*
X167010100Y-83159209D01*
X166918950Y-83192836D01*
X166821870Y-83189021D01*
X166733640Y-83148345D01*
X166678556Y-83093261D01*
X166563830Y-82935357D01*
X166563828Y-82935354D01*
X166424646Y-82796172D01*
X166424642Y-82796169D01*
X166265410Y-82680479D01*
X166265407Y-82680477D01*
X166265405Y-82680476D01*
X166090025Y-82591116D01*
X166090024Y-82591115D01*
X166090023Y-82591115D01*
X166090017Y-82591113D01*
X165939262Y-82542130D01*
X165902826Y-82530291D01*
X165902824Y-82530290D01*
X165902822Y-82530290D01*
X165708428Y-82499501D01*
X165708419Y-82499500D01*
X165708417Y-82499500D01*
X165511583Y-82499500D01*
X165511580Y-82499500D01*
X165511571Y-82499501D01*
X165317177Y-82530290D01*
X165129982Y-82591113D01*
X165129976Y-82591115D01*
X165038740Y-82637602D01*
X164954595Y-82680476D01*
X164954592Y-82680477D01*
X164954590Y-82680479D01*
X164954589Y-82680479D01*
X164795357Y-82796169D01*
X164656169Y-82935357D01*
X164541444Y-83093261D01*
X164470100Y-83159209D01*
X164378950Y-83192836D01*
X164281870Y-83189021D01*
X164193640Y-83148345D01*
X164138556Y-83093261D01*
X164023830Y-82935357D01*
X164023828Y-82935354D01*
X163884646Y-82796172D01*
X163884642Y-82796169D01*
X163725410Y-82680479D01*
X163725407Y-82680477D01*
X163725405Y-82680476D01*
X163550025Y-82591116D01*
X163550024Y-82591115D01*
X163550023Y-82591115D01*
X163550017Y-82591113D01*
X163399262Y-82542130D01*
X163362826Y-82530291D01*
X163362824Y-82530290D01*
X163362822Y-82530290D01*
X163168428Y-82499501D01*
X163168419Y-82499500D01*
X163168417Y-82499500D01*
X162971583Y-82499500D01*
X162971580Y-82499500D01*
X162971571Y-82499501D01*
X162777177Y-82530290D01*
X162589982Y-82591113D01*
X162589976Y-82591115D01*
X162498740Y-82637602D01*
X162414595Y-82680476D01*
X162414592Y-82680477D01*
X162414590Y-82680479D01*
X162414589Y-82680479D01*
X162255357Y-82796169D01*
X162116169Y-82935357D01*
X162001444Y-83093261D01*
X161930100Y-83159209D01*
X161838950Y-83192836D01*
X161741870Y-83189021D01*
X161653640Y-83148345D01*
X161598556Y-83093261D01*
X161483830Y-82935357D01*
X161483828Y-82935354D01*
X161344646Y-82796172D01*
X161344642Y-82796169D01*
X161185410Y-82680479D01*
X161185407Y-82680477D01*
X161185405Y-82680476D01*
X161010025Y-82591116D01*
X161010024Y-82591115D01*
X161010023Y-82591115D01*
X161010017Y-82591113D01*
X160859262Y-82542130D01*
X160822826Y-82530291D01*
X160822824Y-82530290D01*
X160822822Y-82530290D01*
X160628428Y-82499501D01*
X160628419Y-82499500D01*
X160628417Y-82499500D01*
X160431583Y-82499500D01*
X160431580Y-82499500D01*
X160431571Y-82499501D01*
X160237177Y-82530290D01*
X160049982Y-82591113D01*
X160049976Y-82591115D01*
X159958740Y-82637602D01*
X159874595Y-82680476D01*
X159874592Y-82680477D01*
X159874590Y-82680479D01*
X159874589Y-82680479D01*
X159715357Y-82796169D01*
X159576169Y-82935357D01*
X159461444Y-83093261D01*
X159390100Y-83159209D01*
X159298950Y-83192836D01*
X159201870Y-83189021D01*
X159113640Y-83148345D01*
X159058556Y-83093261D01*
X158943830Y-82935357D01*
X158943828Y-82935354D01*
X158804646Y-82796172D01*
X158804642Y-82796169D01*
X158645410Y-82680479D01*
X158645407Y-82680477D01*
X158645405Y-82680476D01*
X158470025Y-82591116D01*
X158470024Y-82591115D01*
X158470023Y-82591115D01*
X158470017Y-82591113D01*
X158319262Y-82542130D01*
X158282826Y-82530291D01*
X158282824Y-82530290D01*
X158282822Y-82530290D01*
X158088428Y-82499501D01*
X158088419Y-82499500D01*
X158088417Y-82499500D01*
X157891583Y-82499500D01*
X157891580Y-82499500D01*
X157891571Y-82499501D01*
X157697176Y-82530290D01*
X157697175Y-82530290D01*
X157676942Y-82536864D01*
X157580460Y-82548281D01*
X157486953Y-82521907D01*
X157423933Y-82476119D01*
X155823547Y-80875733D01*
X161918873Y-80875733D01*
X162056504Y-80920453D01*
X162243047Y-80949998D01*
X162243062Y-80950000D01*
X162431938Y-80950000D01*
X162431952Y-80949998D01*
X162618496Y-80920453D01*
X162618498Y-80920452D01*
X162756126Y-80875733D01*
X162337500Y-80457106D01*
X161918873Y-80875733D01*
X155823547Y-80875733D01*
X154603376Y-79655562D01*
X161137500Y-79655562D01*
X161137500Y-79844437D01*
X161137501Y-79844452D01*
X161167045Y-80030988D01*
X161167050Y-80031007D01*
X161211764Y-80168626D01*
X161630393Y-79749999D01*
X161584316Y-79703922D01*
X161987500Y-79703922D01*
X161987500Y-79796078D01*
X162011352Y-79885095D01*
X162057430Y-79964905D01*
X162122595Y-80030070D01*
X162202405Y-80076148D01*
X162291422Y-80100000D01*
X162383578Y-80100000D01*
X162472595Y-80076148D01*
X162552405Y-80030070D01*
X162617570Y-79964905D01*
X162663648Y-79885095D01*
X162687500Y-79796078D01*
X162687500Y-79703922D01*
X162663648Y-79614905D01*
X162617570Y-79535095D01*
X162552405Y-79469930D01*
X162472595Y-79423852D01*
X162383578Y-79400000D01*
X162291422Y-79400000D01*
X162202405Y-79423852D01*
X162122595Y-79469930D01*
X162057430Y-79535095D01*
X162011352Y-79614905D01*
X161987500Y-79703922D01*
X161584316Y-79703922D01*
X161211765Y-79331371D01*
X161211765Y-79331372D01*
X161167048Y-79469000D01*
X161167045Y-79469011D01*
X161137501Y-79655547D01*
X161137500Y-79655562D01*
X154603376Y-79655562D01*
X150693430Y-75745616D01*
X150639454Y-75664834D01*
X150620500Y-75569546D01*
X150620500Y-75331002D01*
X151899500Y-75331002D01*
X151899500Y-75468997D01*
X151926418Y-75604324D01*
X151926419Y-75604327D01*
X151951482Y-75664834D01*
X151968158Y-75705094D01*
X151979224Y-75731808D01*
X151979225Y-75731812D01*
X152055883Y-75846538D01*
X152055886Y-75846542D01*
X152153458Y-75944114D01*
X152153461Y-75944116D01*
X152268187Y-76020774D01*
X152268189Y-76020775D01*
X152394709Y-76073181D01*
X152395672Y-76073580D01*
X152395675Y-76073581D01*
X152527226Y-76099748D01*
X152531007Y-76100500D01*
X152668993Y-76100500D01*
X152736660Y-76087040D01*
X152804324Y-76073581D01*
X152804325Y-76073580D01*
X152804328Y-76073580D01*
X152931811Y-76020775D01*
X152936765Y-76017465D01*
X152942267Y-76015185D01*
X152942600Y-76015008D01*
X152942617Y-76015040D01*
X153026524Y-75980285D01*
X153075103Y-75975500D01*
X160145980Y-75975500D01*
X160241268Y-75994454D01*
X160322050Y-76048430D01*
X162399337Y-78125717D01*
X162453313Y-78206499D01*
X162472267Y-78301787D01*
X162453313Y-78397075D01*
X162399337Y-78477857D01*
X162318555Y-78531833D01*
X162252594Y-78547670D01*
X162252721Y-78548469D01*
X162056511Y-78579545D01*
X162056500Y-78579548D01*
X161918871Y-78624265D01*
X162691052Y-79396447D01*
X163463233Y-80168626D01*
X163586394Y-80139058D01*
X163683474Y-80135244D01*
X163774624Y-80168870D01*
X163845967Y-80234819D01*
X163866382Y-80268134D01*
X163896267Y-80326787D01*
X163896270Y-80326791D01*
X163998081Y-80466922D01*
X163998083Y-80466924D01*
X163998086Y-80466928D01*
X164120572Y-80589414D01*
X164120575Y-80589416D01*
X164120577Y-80589418D01*
X164260707Y-80691229D01*
X164260709Y-80691230D01*
X164260712Y-80691232D01*
X164415055Y-80769873D01*
X164579799Y-80823402D01*
X164750889Y-80850500D01*
X164750893Y-80850500D01*
X164924107Y-80850500D01*
X164924111Y-80850500D01*
X165095201Y-80823402D01*
X165259945Y-80769873D01*
X165414288Y-80691232D01*
X165554428Y-80589414D01*
X165676914Y-80466928D01*
X165778732Y-80326788D01*
X165857373Y-80172445D01*
X165910902Y-80007701D01*
X165938000Y-79836611D01*
X165938000Y-79663389D01*
X165910902Y-79492299D01*
X165857373Y-79327555D01*
X165778732Y-79173212D01*
X165778730Y-79173209D01*
X165778729Y-79173207D01*
X165676918Y-79033077D01*
X165676916Y-79033075D01*
X165676914Y-79033072D01*
X165554428Y-78910586D01*
X165554424Y-78910583D01*
X165554422Y-78910581D01*
X165414292Y-78808770D01*
X165298422Y-78749732D01*
X165259945Y-78730127D01*
X165259944Y-78730126D01*
X165259943Y-78730126D01*
X165259937Y-78730124D01*
X165165695Y-78699503D01*
X165095201Y-78676598D01*
X165095199Y-78676597D01*
X165095197Y-78676597D01*
X164924121Y-78649501D01*
X164924114Y-78649500D01*
X164924111Y-78649500D01*
X164750889Y-78649500D01*
X164750887Y-78649500D01*
X164703536Y-78657000D01*
X164606456Y-78653185D01*
X164518225Y-78612510D01*
X164488515Y-78587135D01*
X162671247Y-76769867D01*
X160840865Y-74939485D01*
X160840862Y-74939483D01*
X160840861Y-74939482D01*
X160725261Y-74872741D01*
X160709635Y-74863719D01*
X160709632Y-74863718D01*
X160709634Y-74863718D01*
X160563266Y-74824500D01*
X153075103Y-74824500D01*
X152979815Y-74805546D01*
X152936765Y-74782535D01*
X152931814Y-74779226D01*
X152931811Y-74779225D01*
X152894470Y-74763758D01*
X152804327Y-74726419D01*
X152804324Y-74726418D01*
X152668997Y-74699500D01*
X152668993Y-74699500D01*
X152531007Y-74699500D01*
X152531002Y-74699500D01*
X152395675Y-74726418D01*
X152395672Y-74726419D01*
X152268191Y-74779224D01*
X152268187Y-74779225D01*
X152153461Y-74855883D01*
X152055883Y-74953461D01*
X151979225Y-75068187D01*
X151979224Y-75068191D01*
X151926419Y-75195672D01*
X151926418Y-75195675D01*
X151899500Y-75331002D01*
X150620500Y-75331002D01*
X150620500Y-73100825D01*
X150639454Y-73005537D01*
X150693430Y-72924755D01*
X150774212Y-72870779D01*
X150869500Y-72851825D01*
X150964788Y-72870779D01*
X151045570Y-72924755D01*
X151112781Y-72991966D01*
X151278390Y-73112287D01*
X151460781Y-73205220D01*
X151655466Y-73268477D01*
X151725503Y-73279570D01*
X151857638Y-73300499D01*
X151857645Y-73300499D01*
X151857648Y-73300500D01*
X151857651Y-73300500D01*
X152062349Y-73300500D01*
X152062352Y-73300500D01*
X152062355Y-73300499D01*
X152062361Y-73300499D01*
X152157870Y-73285371D01*
X152264534Y-73268477D01*
X152459219Y-73205220D01*
X152641610Y-73112287D01*
X152807219Y-72991966D01*
X152951966Y-72847219D01*
X153028555Y-72741801D01*
X153099897Y-72675854D01*
X153191047Y-72642227D01*
X153288127Y-72646041D01*
X153376358Y-72686715D01*
X153431443Y-72741800D01*
X153508034Y-72847219D01*
X153652781Y-72991966D01*
X153818390Y-73112287D01*
X154000781Y-73205220D01*
X154195466Y-73268477D01*
X154265503Y-73279570D01*
X154397638Y-73300499D01*
X154397645Y-73300499D01*
X154397648Y-73300500D01*
X154397651Y-73300500D01*
X154602349Y-73300500D01*
X154602352Y-73300500D01*
X154602355Y-73300499D01*
X154602361Y-73300499D01*
X154697870Y-73285371D01*
X154804534Y-73268477D01*
X154999219Y-73205220D01*
X155181610Y-73112287D01*
X155347219Y-72991966D01*
X155491966Y-72847219D01*
X155568555Y-72741801D01*
X155639897Y-72675854D01*
X155731047Y-72642227D01*
X155828127Y-72646041D01*
X155916358Y-72686715D01*
X155971443Y-72741800D01*
X156048034Y-72847219D01*
X156192781Y-72991966D01*
X156358390Y-73112287D01*
X156540781Y-73205220D01*
X156735466Y-73268477D01*
X156805503Y-73279570D01*
X156937638Y-73300499D01*
X156937645Y-73300499D01*
X156937648Y-73300500D01*
X156937651Y-73300500D01*
X157142349Y-73300500D01*
X157142352Y-73300500D01*
X157142355Y-73300499D01*
X157142361Y-73300499D01*
X157237870Y-73285371D01*
X157274490Y-73279571D01*
X159007535Y-73279571D01*
X159042586Y-73297430D01*
X159042591Y-73297432D01*
X159252168Y-73365527D01*
X159469808Y-73399999D01*
X159469821Y-73400000D01*
X159690179Y-73400000D01*
X159690191Y-73399999D01*
X159907831Y-73365527D01*
X160117409Y-73297432D01*
X160117410Y-73297432D01*
X160152464Y-73279570D01*
X159580000Y-72707106D01*
X159007535Y-73279571D01*
X157274490Y-73279571D01*
X157344534Y-73268477D01*
X157539219Y-73205220D01*
X157721610Y-73112287D01*
X157887219Y-72991966D01*
X158031966Y-72847219D01*
X158152287Y-72681610D01*
X158153284Y-72679653D01*
X158163302Y-72668239D01*
X158192931Y-72645522D01*
X158220342Y-72620184D01*
X158231211Y-72616174D01*
X158240404Y-72609126D01*
X158272299Y-72600593D01*
X158872893Y-71999999D01*
X158807068Y-71934174D01*
X159080000Y-71934174D01*
X159080000Y-72065826D01*
X159114075Y-72192993D01*
X159179901Y-72307007D01*
X159272993Y-72400099D01*
X159387007Y-72465925D01*
X159514174Y-72500000D01*
X159645826Y-72500000D01*
X159772993Y-72465925D01*
X159887007Y-72400099D01*
X159980099Y-72307007D01*
X160045925Y-72192993D01*
X160080000Y-72065826D01*
X160080000Y-72000000D01*
X160287106Y-72000000D01*
X160885854Y-72598747D01*
X160955908Y-72631042D01*
X161010996Y-72686129D01*
X161128034Y-72847219D01*
X161272781Y-72991966D01*
X161438390Y-73112287D01*
X161620781Y-73205220D01*
X161815466Y-73268477D01*
X161885503Y-73279570D01*
X162017638Y-73300499D01*
X162017645Y-73300499D01*
X162017648Y-73300500D01*
X162017651Y-73300500D01*
X162222349Y-73300500D01*
X162222352Y-73300500D01*
X162222355Y-73300499D01*
X162222361Y-73300499D01*
X162317870Y-73285371D01*
X162424534Y-73268477D01*
X162619219Y-73205220D01*
X162801610Y-73112287D01*
X162967219Y-72991966D01*
X163111966Y-72847219D01*
X163188555Y-72741801D01*
X163259897Y-72675854D01*
X163351047Y-72642227D01*
X163448127Y-72646041D01*
X163536358Y-72686715D01*
X163591443Y-72741800D01*
X163668034Y-72847219D01*
X163812781Y-72991966D01*
X163978390Y-73112287D01*
X164160781Y-73205220D01*
X164355466Y-73268477D01*
X164425503Y-73279570D01*
X164557638Y-73300499D01*
X164557645Y-73300499D01*
X164557648Y-73300500D01*
X164557651Y-73300500D01*
X164762349Y-73300500D01*
X164762352Y-73300500D01*
X164762355Y-73300499D01*
X164762361Y-73300499D01*
X164857870Y-73285371D01*
X164964534Y-73268477D01*
X165159219Y-73205220D01*
X165341610Y-73112287D01*
X165507219Y-72991966D01*
X165651966Y-72847219D01*
X165728555Y-72741801D01*
X165799897Y-72675854D01*
X165891047Y-72642227D01*
X165988127Y-72646041D01*
X166076358Y-72686715D01*
X166131443Y-72741800D01*
X166208034Y-72847219D01*
X166352781Y-72991966D01*
X166518390Y-73112287D01*
X166700781Y-73205220D01*
X166895466Y-73268477D01*
X166965503Y-73279570D01*
X167097638Y-73300499D01*
X167097645Y-73300499D01*
X167097648Y-73300500D01*
X167097651Y-73300500D01*
X167302349Y-73300500D01*
X167302352Y-73300500D01*
X167302355Y-73300499D01*
X167302361Y-73300499D01*
X167397870Y-73285371D01*
X167504534Y-73268477D01*
X167699219Y-73205220D01*
X167881610Y-73112287D01*
X168047219Y-72991966D01*
X168191966Y-72847219D01*
X168312287Y-72681610D01*
X168405220Y-72499219D01*
X168468477Y-72304534D01*
X168492705Y-72151569D01*
X168500499Y-72102361D01*
X168500500Y-72102349D01*
X168500500Y-71897650D01*
X168500499Y-71897638D01*
X168468477Y-71695468D01*
X168468477Y-71695466D01*
X168405220Y-71500781D01*
X168312287Y-71318390D01*
X168191966Y-71152781D01*
X168047219Y-71008034D01*
X167881610Y-70887713D01*
X167881609Y-70887712D01*
X167881607Y-70887711D01*
X167699224Y-70794782D01*
X167699214Y-70794778D01*
X167504531Y-70731522D01*
X167302361Y-70699500D01*
X167302352Y-70699500D01*
X167097648Y-70699500D01*
X167097638Y-70699500D01*
X166895468Y-70731522D01*
X166700785Y-70794778D01*
X166700775Y-70794782D01*
X166518392Y-70887711D01*
X166352779Y-71008035D01*
X166208033Y-71152781D01*
X166208030Y-71152785D01*
X166131445Y-71258196D01*
X166060102Y-71324145D01*
X165968952Y-71357772D01*
X165871872Y-71353958D01*
X165783642Y-71313283D01*
X165728555Y-71258196D01*
X165651969Y-71152785D01*
X165651966Y-71152781D01*
X165507220Y-71008035D01*
X165475019Y-70984640D01*
X165341610Y-70887713D01*
X165341609Y-70887712D01*
X165341607Y-70887711D01*
X165159224Y-70794782D01*
X165159214Y-70794778D01*
X164964531Y-70731522D01*
X164762361Y-70699500D01*
X164762352Y-70699500D01*
X164557648Y-70699500D01*
X164557638Y-70699500D01*
X164355468Y-70731522D01*
X164160785Y-70794778D01*
X164160775Y-70794782D01*
X163978392Y-70887711D01*
X163812779Y-71008035D01*
X163668033Y-71152781D01*
X163668030Y-71152785D01*
X163591445Y-71258196D01*
X163520102Y-71324145D01*
X163428952Y-71357772D01*
X163331872Y-71353958D01*
X163243642Y-71313283D01*
X163188555Y-71258196D01*
X163111969Y-71152785D01*
X163111966Y-71152781D01*
X162967220Y-71008035D01*
X162935019Y-70984640D01*
X162801610Y-70887713D01*
X162801609Y-70887712D01*
X162801607Y-70887711D01*
X162619224Y-70794782D01*
X162619214Y-70794778D01*
X162424531Y-70731522D01*
X162222361Y-70699500D01*
X162222352Y-70699500D01*
X162017648Y-70699500D01*
X162017638Y-70699500D01*
X161815468Y-70731522D01*
X161620785Y-70794778D01*
X161620775Y-70794782D01*
X161438392Y-70887711D01*
X161272779Y-71008035D01*
X161128033Y-71152781D01*
X161128030Y-71152785D01*
X161010998Y-71313867D01*
X160939655Y-71379816D01*
X160888371Y-71398735D01*
X160287106Y-72000000D01*
X160080000Y-72000000D01*
X160080000Y-71934174D01*
X160045925Y-71807007D01*
X159980099Y-71692993D01*
X159887007Y-71599901D01*
X159772993Y-71534075D01*
X159645826Y-71500000D01*
X159514174Y-71500000D01*
X159387007Y-71534075D01*
X159272993Y-71599901D01*
X159179901Y-71692993D01*
X159114075Y-71807007D01*
X159080000Y-71934174D01*
X158807068Y-71934174D01*
X158274144Y-71401250D01*
X158256911Y-71393306D01*
X158220341Y-71379814D01*
X158213074Y-71373096D01*
X158204088Y-71368954D01*
X158148999Y-71313865D01*
X158148576Y-71313283D01*
X158079297Y-71217927D01*
X158026936Y-71145857D01*
X157986261Y-71057626D01*
X157982448Y-70960546D01*
X158016076Y-70869396D01*
X158082025Y-70798054D01*
X158170256Y-70757379D01*
X158228382Y-70750500D01*
X158934467Y-70750500D01*
X159029755Y-70769454D01*
X159110536Y-70823430D01*
X159579999Y-71292892D01*
X160073934Y-70798958D01*
X160154716Y-70744982D01*
X160185557Y-70734512D01*
X160253186Y-70716392D01*
X160367314Y-70650500D01*
X162784256Y-68233556D01*
X162865035Y-68179583D01*
X162960323Y-68160629D01*
X163037263Y-68172815D01*
X163085466Y-68188477D01*
X163085473Y-68188478D01*
X163085475Y-68188479D01*
X163287638Y-68220499D01*
X163287645Y-68220499D01*
X163287648Y-68220500D01*
X163287651Y-68220500D01*
X163492349Y-68220500D01*
X163492352Y-68220500D01*
X163492355Y-68220499D01*
X163492361Y-68220499D01*
X163587870Y-68205371D01*
X163694534Y-68188477D01*
X163889219Y-68125220D01*
X164071610Y-68032287D01*
X164237219Y-67911966D01*
X164381966Y-67767219D01*
X164458555Y-67661801D01*
X164529897Y-67595854D01*
X164621047Y-67562227D01*
X164718127Y-67566041D01*
X164806358Y-67606715D01*
X164861443Y-67661800D01*
X164938034Y-67767219D01*
X165082781Y-67911966D01*
X165248390Y-68032287D01*
X165248392Y-68032288D01*
X165421513Y-68120498D01*
X165430781Y-68125220D01*
X165625466Y-68188477D01*
X165696575Y-68199739D01*
X165827638Y-68220499D01*
X165827645Y-68220499D01*
X165827648Y-68220500D01*
X165827651Y-68220500D01*
X166032349Y-68220500D01*
X166032352Y-68220500D01*
X166032355Y-68220499D01*
X166032361Y-68220499D01*
X166127870Y-68205371D01*
X166234534Y-68188477D01*
X166429219Y-68125220D01*
X166611610Y-68032287D01*
X166777219Y-67911966D01*
X166793334Y-67895851D01*
X166874114Y-67841873D01*
X166969402Y-67822917D01*
X167064690Y-67841869D01*
X167145473Y-67895844D01*
X167191267Y-67958873D01*
X167241946Y-68058337D01*
X167241948Y-68058339D01*
X167241950Y-68058342D01*
X167331658Y-68148050D01*
X167331660Y-68148051D01*
X167444696Y-68205646D01*
X167444700Y-68205647D01*
X167518462Y-68217329D01*
X167538481Y-68220500D01*
X169401518Y-68220499D01*
X169495304Y-68205646D01*
X169608342Y-68148050D01*
X169698050Y-68058342D01*
X169755646Y-67945304D01*
X169755688Y-67945042D01*
X169770498Y-67851530D01*
X169770500Y-67851519D01*
X169770499Y-65988482D01*
X169755646Y-65894696D01*
X169698050Y-65781658D01*
X169608342Y-65691950D01*
X169608339Y-65691948D01*
X169495303Y-65634353D01*
X169495299Y-65634352D01*
X169401530Y-65619501D01*
X169401522Y-65619500D01*
X169401519Y-65619500D01*
X169401514Y-65619500D01*
X167538484Y-65619500D01*
X167444695Y-65634354D01*
X167331659Y-65691949D01*
X167241948Y-65781660D01*
X167191267Y-65881127D01*
X167131119Y-65957424D01*
X167046351Y-66004895D01*
X166949870Y-66016314D01*
X166856362Y-65989942D01*
X166793337Y-65944152D01*
X166777220Y-65928035D01*
X166734005Y-65896638D01*
X166611610Y-65807713D01*
X166611609Y-65807712D01*
X166611607Y-65807711D01*
X166429224Y-65714782D01*
X166429214Y-65714778D01*
X166234531Y-65651522D01*
X166032361Y-65619500D01*
X166032352Y-65619500D01*
X165827648Y-65619500D01*
X165827638Y-65619500D01*
X165625468Y-65651522D01*
X165430785Y-65714778D01*
X165430775Y-65714782D01*
X165248392Y-65807711D01*
X165082779Y-65928035D01*
X164938033Y-66072781D01*
X164938030Y-66072785D01*
X164861445Y-66178196D01*
X164790102Y-66244145D01*
X164698952Y-66277772D01*
X164601872Y-66273958D01*
X164513642Y-66233283D01*
X164458555Y-66178196D01*
X164381969Y-66072785D01*
X164381966Y-66072781D01*
X164237220Y-65928035D01*
X164194005Y-65896638D01*
X164071610Y-65807713D01*
X164071609Y-65807712D01*
X164071607Y-65807711D01*
X163889224Y-65714782D01*
X163889214Y-65714778D01*
X163694531Y-65651522D01*
X163492361Y-65619500D01*
X163492352Y-65619500D01*
X163287648Y-65619500D01*
X163287638Y-65619500D01*
X163085468Y-65651522D01*
X162890785Y-65714778D01*
X162890775Y-65714782D01*
X162708392Y-65807711D01*
X162542779Y-65928035D01*
X162398033Y-66072781D01*
X162398030Y-66072785D01*
X162321445Y-66178196D01*
X162250102Y-66244145D01*
X162158952Y-66277772D01*
X162061872Y-66273958D01*
X161973642Y-66233283D01*
X161918555Y-66178196D01*
X161841969Y-66072785D01*
X161841966Y-66072781D01*
X161697220Y-65928035D01*
X161654005Y-65896638D01*
X161531610Y-65807713D01*
X161531609Y-65807712D01*
X161531607Y-65807711D01*
X161349224Y-65714782D01*
X161349214Y-65714778D01*
X161154531Y-65651522D01*
X160952361Y-65619500D01*
X160952352Y-65619500D01*
X160747648Y-65619500D01*
X160747638Y-65619500D01*
X160545468Y-65651522D01*
X160350785Y-65714778D01*
X160350775Y-65714782D01*
X160168392Y-65807711D01*
X160002779Y-65928035D01*
X159858033Y-66072781D01*
X159858030Y-66072785D01*
X159781445Y-66178196D01*
X159710102Y-66244145D01*
X159618952Y-66277772D01*
X159521872Y-66273958D01*
X159433642Y-66233283D01*
X159378555Y-66178196D01*
X159301969Y-66072785D01*
X159301966Y-66072781D01*
X159157220Y-65928035D01*
X159114005Y-65896638D01*
X158991610Y-65807713D01*
X158991609Y-65807712D01*
X158991607Y-65807711D01*
X158809224Y-65714782D01*
X158809214Y-65714778D01*
X158614531Y-65651522D01*
X158412361Y-65619500D01*
X158412352Y-65619500D01*
X158207648Y-65619500D01*
X158207638Y-65619500D01*
X158005468Y-65651522D01*
X157810785Y-65714778D01*
X157810775Y-65714782D01*
X157628392Y-65807711D01*
X157462779Y-65928035D01*
X157318033Y-66072781D01*
X157318030Y-66072785D01*
X157241445Y-66178196D01*
X157170102Y-66244145D01*
X157078952Y-66277772D01*
X156981872Y-66273958D01*
X156893642Y-66233283D01*
X156838555Y-66178196D01*
X156761969Y-66072785D01*
X156761966Y-66072781D01*
X156617220Y-65928035D01*
X156574005Y-65896638D01*
X156451610Y-65807713D01*
X156451609Y-65807712D01*
X156451607Y-65807711D01*
X156269224Y-65714782D01*
X156269214Y-65714778D01*
X156074531Y-65651522D01*
X155872361Y-65619500D01*
X155872352Y-65619500D01*
X155667648Y-65619500D01*
X155667638Y-65619500D01*
X155465468Y-65651522D01*
X155270785Y-65714778D01*
X155270775Y-65714782D01*
X155088392Y-65807711D01*
X154922779Y-65928035D01*
X154778033Y-66072781D01*
X154778030Y-66072785D01*
X154701445Y-66178196D01*
X154630102Y-66244145D01*
X154538952Y-66277772D01*
X154441872Y-66273958D01*
X154353642Y-66233283D01*
X154298555Y-66178196D01*
X154221969Y-66072785D01*
X154221966Y-66072781D01*
X154077220Y-65928035D01*
X154034005Y-65896638D01*
X153911610Y-65807713D01*
X153911609Y-65807712D01*
X153911607Y-65807711D01*
X153729224Y-65714782D01*
X153729214Y-65714778D01*
X153534531Y-65651522D01*
X153332361Y-65619500D01*
X153332352Y-65619500D01*
X153127648Y-65619500D01*
X153127638Y-65619500D01*
X152925468Y-65651522D01*
X152730785Y-65714778D01*
X152730775Y-65714782D01*
X152548392Y-65807711D01*
X152382779Y-65928035D01*
X152238033Y-66072781D01*
X152238030Y-66072785D01*
X152161445Y-66178196D01*
X152090102Y-66244145D01*
X151998952Y-66277772D01*
X151901872Y-66273958D01*
X151813642Y-66233283D01*
X151758555Y-66178196D01*
X151681969Y-66072785D01*
X151681966Y-66072781D01*
X151537220Y-65928035D01*
X151494005Y-65896638D01*
X151371610Y-65807713D01*
X151371609Y-65807712D01*
X151371607Y-65807711D01*
X151189224Y-65714782D01*
X151189214Y-65714778D01*
X150994531Y-65651522D01*
X150792361Y-65619500D01*
X150792352Y-65619500D01*
X150587648Y-65619500D01*
X150587638Y-65619500D01*
X150385468Y-65651522D01*
X150190785Y-65714778D01*
X150190775Y-65714782D01*
X150008392Y-65807711D01*
X149842779Y-65928035D01*
X149698035Y-66072779D01*
X149577711Y-66238392D01*
X149484782Y-66420775D01*
X149484778Y-66420785D01*
X149421522Y-66615468D01*
X149389500Y-66817638D01*
X149389500Y-67022361D01*
X149421522Y-67224531D01*
X149484778Y-67419214D01*
X149484782Y-67419224D01*
X149574780Y-67595854D01*
X149577713Y-67601610D01*
X149650699Y-67702068D01*
X149703785Y-67775134D01*
X149702131Y-67776335D01*
X149742577Y-67848560D01*
X149753994Y-67945042D01*
X149727620Y-68038549D01*
X149667470Y-68114845D01*
X149582702Y-68162315D01*
X149505762Y-68174500D01*
X148794234Y-68174500D01*
X148647866Y-68213718D01*
X148516638Y-68289482D01*
X146718798Y-70087322D01*
X146638016Y-70141298D01*
X146542728Y-70160252D01*
X146447440Y-70141298D01*
X146366658Y-70087322D01*
X146312682Y-70006540D01*
X146293728Y-69911252D01*
X146305035Y-69839862D01*
X146304926Y-69839836D01*
X146305261Y-69838439D01*
X146305916Y-69834304D01*
X146307209Y-69830326D01*
X146338000Y-69635917D01*
X146338000Y-69139083D01*
X146307209Y-68944674D01*
X146246384Y-68757475D01*
X146157024Y-68582095D01*
X146041328Y-68422854D01*
X145902146Y-68283672D01*
X145867303Y-68258357D01*
X145742910Y-68167979D01*
X145742907Y-68167977D01*
X145742905Y-68167976D01*
X145567525Y-68078616D01*
X145567524Y-68078615D01*
X145567523Y-68078615D01*
X145567517Y-68078613D01*
X145424943Y-68032288D01*
X145380326Y-68017791D01*
X145380324Y-68017790D01*
X145380322Y-68017790D01*
X145185928Y-67987001D01*
X145185919Y-67987000D01*
X145185917Y-67987000D01*
X144989083Y-67987000D01*
X144989080Y-67987000D01*
X144989071Y-67987001D01*
X144794677Y-68017790D01*
X144607482Y-68078613D01*
X144607476Y-68078615D01*
X144536371Y-68114845D01*
X144432095Y-68167976D01*
X144432092Y-68167977D01*
X144432090Y-68167979D01*
X144432089Y-68167979D01*
X144272853Y-68283672D01*
X144161230Y-68395295D01*
X144080448Y-68449271D01*
X143985160Y-68468225D01*
X143889872Y-68449271D01*
X143809091Y-68395294D01*
X143770836Y-68345976D01*
X143758394Y-68324937D01*
X143705581Y-68235635D01*
X143589365Y-68119419D01*
X143447898Y-68035756D01*
X143290069Y-67989902D01*
X143290066Y-67989901D01*
X143290063Y-67989901D01*
X143253204Y-67987000D01*
X143253194Y-67987000D01*
X141921806Y-67987000D01*
X141921795Y-67987000D01*
X141884936Y-67989901D01*
X141884927Y-67989903D01*
X141727101Y-68035756D01*
X141585635Y-68119419D01*
X141469419Y-68235635D01*
X141385756Y-68377101D01*
X141339903Y-68534927D01*
X141339901Y-68534936D01*
X141337000Y-68571795D01*
X141337000Y-70203204D01*
X141339901Y-70240069D01*
X141340708Y-70244485D01*
X141340631Y-70249340D01*
X141340900Y-70252752D01*
X141340577Y-70252777D01*
X141339177Y-70341628D01*
X141300587Y-70430790D01*
X141230813Y-70498398D01*
X141140479Y-70534158D01*
X141083499Y-70536508D01*
X141083499Y-70537000D01*
X141071575Y-70537000D01*
X141071357Y-70537009D01*
X141071267Y-70537000D01*
X140903733Y-70537000D01*
X140739418Y-70569684D01*
X140739413Y-70569685D01*
X140584640Y-70633795D01*
X140584635Y-70633798D01*
X140445341Y-70726871D01*
X140326871Y-70845341D01*
X140233798Y-70984635D01*
X140233795Y-70984640D01*
X140169685Y-71139413D01*
X140169684Y-71139417D01*
X140169684Y-71139418D01*
X140137000Y-71303733D01*
X140137000Y-71471267D01*
X140160552Y-71589670D01*
X140169685Y-71635586D01*
X140233795Y-71790359D01*
X140233797Y-71790363D01*
X140244918Y-71807007D01*
X140265068Y-71837163D01*
X140302247Y-71926922D01*
X140302248Y-72024077D01*
X140265068Y-72113836D01*
X140196369Y-72182536D01*
X140106610Y-72219715D01*
X140058032Y-72224500D01*
X138717845Y-72224500D01*
X138622557Y-72205546D01*
X138541775Y-72151570D01*
X138487799Y-72070788D01*
X138471911Y-72014455D01*
X138468402Y-71992299D01*
X138414873Y-71827555D01*
X138336232Y-71673212D01*
X138336230Y-71673209D01*
X138336229Y-71673207D01*
X138234418Y-71533077D01*
X138234416Y-71533075D01*
X138234414Y-71533072D01*
X138111928Y-71410586D01*
X138111924Y-71410583D01*
X138111922Y-71410581D01*
X137971792Y-71308770D01*
X137817443Y-71230126D01*
X137817437Y-71230124D01*
X137675811Y-71184107D01*
X137652701Y-71176598D01*
X137652699Y-71176597D01*
X137652697Y-71176597D01*
X137481621Y-71149501D01*
X137481614Y-71149500D01*
X137481611Y-71149500D01*
X137308389Y-71149500D01*
X137308386Y-71149500D01*
X137308378Y-71149501D01*
X137137302Y-71176597D01*
X136972562Y-71230124D01*
X136972556Y-71230126D01*
X136818207Y-71308770D01*
X136678077Y-71410581D01*
X136555581Y-71533077D01*
X136453770Y-71673207D01*
X136375126Y-71827556D01*
X136375124Y-71827562D01*
X136321597Y-71992302D01*
X136294501Y-72163378D01*
X136294500Y-72163393D01*
X132334586Y-72163393D01*
X132345500Y-72094481D01*
X132345500Y-71905519D01*
X132315940Y-71718882D01*
X132257547Y-71539168D01*
X132171760Y-71370801D01*
X132060690Y-71217927D01*
X131927073Y-71084310D01*
X131927069Y-71084307D01*
X131927068Y-71084306D01*
X131861951Y-71036996D01*
X131774199Y-70973240D01*
X131605832Y-70887453D01*
X131605829Y-70887452D01*
X131605827Y-70887451D01*
X131476216Y-70845338D01*
X131426118Y-70829060D01*
X131426116Y-70829059D01*
X131426114Y-70829059D01*
X131239492Y-70799501D01*
X131239483Y-70799500D01*
X131239481Y-70799500D01*
X131050519Y-70799500D01*
X131050516Y-70799500D01*
X131050507Y-70799501D01*
X130863885Y-70829059D01*
X130684172Y-70887451D01*
X130684168Y-70887452D01*
X130684168Y-70887453D01*
X130515801Y-70973240D01*
X130485226Y-70995454D01*
X130362931Y-71084306D01*
X130229306Y-71217931D01*
X130155582Y-71319404D01*
X130118240Y-71370801D01*
X130087804Y-71430536D01*
X130032451Y-71539172D01*
X129974059Y-71718885D01*
X129944501Y-71905507D01*
X129944500Y-71905523D01*
X124787999Y-71905523D01*
X124787999Y-71518482D01*
X124773146Y-71424696D01*
X124715550Y-71311658D01*
X124625842Y-71221950D01*
X124625839Y-71221948D01*
X124512803Y-71164353D01*
X124512799Y-71164352D01*
X124419030Y-71149501D01*
X124419022Y-71149500D01*
X124419019Y-71149500D01*
X124419014Y-71149500D01*
X122450984Y-71149500D01*
X122357195Y-71164354D01*
X122244159Y-71221949D01*
X122154446Y-71311662D01*
X122153149Y-71313448D01*
X122146704Y-71319404D01*
X122140594Y-71325515D01*
X122140353Y-71325274D01*
X122081802Y-71379392D01*
X121990650Y-71413014D01*
X121893570Y-71409194D01*
X121805353Y-71368522D01*
X121656282Y-71260215D01*
X121452564Y-71156415D01*
X121395000Y-71137711D01*
X121395000Y-72316025D01*
X121335110Y-72212292D01*
X121232708Y-72109890D01*
X121107292Y-72037482D01*
X120967409Y-72000000D01*
X120822591Y-72000000D01*
X120682708Y-72037482D01*
X120557292Y-72109890D01*
X120454890Y-72212292D01*
X120395000Y-72316025D01*
X120395000Y-71137711D01*
X120337435Y-71156415D01*
X120133717Y-71260215D01*
X119948763Y-71394592D01*
X119787091Y-71556264D01*
X119762820Y-71589670D01*
X119691476Y-71655617D01*
X119600325Y-71689242D01*
X119503245Y-71685426D01*
X119415015Y-71644749D01*
X119385314Y-71619382D01*
X119236421Y-71470489D01*
X119218287Y-71457314D01*
X119064130Y-71345312D01*
X119064129Y-71345311D01*
X119064127Y-71345310D01*
X118874372Y-71248625D01*
X118874361Y-71248621D01*
X118671834Y-71182817D01*
X118671828Y-71182815D01*
X118671823Y-71182814D01*
X118671815Y-71182812D01*
X118461494Y-71149501D01*
X118461485Y-71149500D01*
X118461483Y-71149500D01*
X118248517Y-71149500D01*
X118248514Y-71149500D01*
X118248505Y-71149501D01*
X118038184Y-71182812D01*
X118038173Y-71182814D01*
X118038172Y-71182815D01*
X118038169Y-71182815D01*
X118038165Y-71182817D01*
X117835638Y-71248621D01*
X117835627Y-71248625D01*
X117645869Y-71345312D01*
X117473582Y-71470486D01*
X117322986Y-71621082D01*
X117197812Y-71793369D01*
X117101125Y-71983127D01*
X117101121Y-71983138D01*
X117035317Y-72185665D01*
X117035312Y-72185684D01*
X117002001Y-72396005D01*
X117002000Y-72396021D01*
X112620500Y-72396021D01*
X112620500Y-65776587D01*
X117144500Y-65776587D01*
X117144500Y-66273412D01*
X117144501Y-66273428D01*
X117173920Y-66459172D01*
X117175291Y-66467826D01*
X117193868Y-66525000D01*
X117230871Y-66638885D01*
X117236116Y-66655025D01*
X117325476Y-66830405D01*
X117325479Y-66830409D01*
X117325479Y-66830410D01*
X117341579Y-66852569D01*
X117441172Y-66989646D01*
X117580354Y-67128828D01*
X117612060Y-67151864D01*
X117737969Y-67243343D01*
X117739595Y-67244524D01*
X117914975Y-67333884D01*
X118102174Y-67394709D01*
X118296583Y-67425500D01*
X118296587Y-67425500D01*
X118493413Y-67425500D01*
X118493417Y-67425500D01*
X118687826Y-67394709D01*
X118875025Y-67333884D01*
X119050405Y-67244524D01*
X119209646Y-67128828D01*
X119248230Y-67090243D01*
X119329005Y-67036271D01*
X119424293Y-67017316D01*
X119519582Y-67036269D01*
X119600364Y-67090244D01*
X119636225Y-67135598D01*
X119702682Y-67243343D01*
X119826654Y-67367315D01*
X119826658Y-67367318D01*
X119975878Y-67459358D01*
X119975879Y-67459359D01*
X120142298Y-67514504D01*
X120142305Y-67514505D01*
X120245023Y-67524999D01*
X120394999Y-67524998D01*
X120395000Y-67524998D01*
X120395000Y-66525001D01*
X121395000Y-66525001D01*
X121395000Y-67524998D01*
X121395001Y-67524999D01*
X121544968Y-67524999D01*
X121544984Y-67524998D01*
X121647699Y-67514505D01*
X121647702Y-67514504D01*
X121814119Y-67459359D01*
X121814121Y-67459358D01*
X121963341Y-67367318D01*
X121963345Y-67367315D01*
X122087315Y-67243345D01*
X122087318Y-67243341D01*
X122179358Y-67094121D01*
X122179359Y-67094120D01*
X122234504Y-66927701D01*
X122234505Y-66927694D01*
X122244999Y-66824981D01*
X122245000Y-66824971D01*
X122245000Y-66525001D01*
X122244999Y-66525000D01*
X121395001Y-66525000D01*
X121395000Y-66525001D01*
X120395000Y-66525001D01*
X120395000Y-66090826D01*
X120429075Y-66217993D01*
X120494901Y-66332007D01*
X120587993Y-66425099D01*
X120702007Y-66490925D01*
X120829174Y-66525000D01*
X120960826Y-66525000D01*
X121087993Y-66490925D01*
X121202007Y-66425099D01*
X121295099Y-66332007D01*
X121360925Y-66217993D01*
X121395000Y-66090826D01*
X121395000Y-65959174D01*
X121360925Y-65832007D01*
X121314495Y-65751587D01*
X129794500Y-65751587D01*
X129794500Y-66248412D01*
X129794501Y-66248428D01*
X129821799Y-66420781D01*
X129825291Y-66442826D01*
X129851318Y-66522928D01*
X129884509Y-66625081D01*
X129886116Y-66630025D01*
X129975476Y-66805405D01*
X129975479Y-66805409D01*
X129975479Y-66805410D01*
X130064330Y-66927701D01*
X130091172Y-66964646D01*
X130230354Y-67103828D01*
X130230357Y-67103830D01*
X130296469Y-67151864D01*
X130389595Y-67219524D01*
X130564975Y-67308884D01*
X130752174Y-67369709D01*
X130946583Y-67400500D01*
X130946587Y-67400500D01*
X131143413Y-67400500D01*
X131143417Y-67400500D01*
X131337826Y-67369709D01*
X131525025Y-67308884D01*
X131700405Y-67219524D01*
X131859646Y-67103828D01*
X131971271Y-66992202D01*
X132052049Y-66938228D01*
X132147337Y-66919274D01*
X132242625Y-66938228D01*
X132323407Y-66992204D01*
X132361662Y-67041522D01*
X132426917Y-67151862D01*
X132426919Y-67151865D01*
X132543135Y-67268081D01*
X132684602Y-67351744D01*
X132842431Y-67397598D01*
X132879306Y-67400500D01*
X132879308Y-67400500D01*
X134210692Y-67400500D01*
X134210694Y-67400500D01*
X134247569Y-67397598D01*
X134405398Y-67351744D01*
X134546865Y-67268081D01*
X134663081Y-67151865D01*
X134746744Y-67010398D01*
X134792598Y-66852569D01*
X134795500Y-66815694D01*
X134795500Y-65184306D01*
X134792598Y-65147431D01*
X134792595Y-65147420D01*
X134791793Y-65143026D01*
X134791869Y-65138170D01*
X134791600Y-65134748D01*
X134791923Y-65134722D01*
X134793320Y-65045883D01*
X134831906Y-64956718D01*
X134901676Y-64889108D01*
X134992008Y-64853343D01*
X135049001Y-64850993D01*
X135049001Y-64850500D01*
X135060966Y-64850500D01*
X135061160Y-64850492D01*
X135061225Y-64850498D01*
X135061233Y-64850500D01*
X135061241Y-64850500D01*
X135228765Y-64850500D01*
X135228767Y-64850500D01*
X135393082Y-64817816D01*
X135547863Y-64753703D01*
X135687162Y-64660626D01*
X135722055Y-64625733D01*
X158701373Y-64625733D01*
X158839004Y-64670453D01*
X159025547Y-64699998D01*
X159025562Y-64700000D01*
X159214438Y-64700000D01*
X159214452Y-64699998D01*
X159400996Y-64670453D01*
X159400998Y-64670452D01*
X159538626Y-64625733D01*
X159120000Y-64207106D01*
X158701373Y-64625733D01*
X135722055Y-64625733D01*
X135805626Y-64542162D01*
X135898703Y-64402863D01*
X135962816Y-64248082D01*
X135995500Y-64083767D01*
X135995500Y-63916233D01*
X135962816Y-63751918D01*
X135898703Y-63597137D01*
X135891676Y-63586621D01*
X135861824Y-63541944D01*
X135861823Y-63541943D01*
X135830117Y-63494492D01*
X135805626Y-63457838D01*
X135761181Y-63413393D01*
X155519500Y-63413393D01*
X155519500Y-63586606D01*
X155519501Y-63586621D01*
X155546597Y-63757697D01*
X155546598Y-63757701D01*
X155552842Y-63776918D01*
X155600124Y-63922437D01*
X155600126Y-63922443D01*
X155678770Y-64076792D01*
X155780581Y-64216922D01*
X155780583Y-64216924D01*
X155780586Y-64216928D01*
X155903072Y-64339414D01*
X155903075Y-64339416D01*
X155903077Y-64339418D01*
X156043207Y-64441229D01*
X156043209Y-64441230D01*
X156043212Y-64441232D01*
X156197555Y-64519873D01*
X156362299Y-64573402D01*
X156533389Y-64600500D01*
X156533393Y-64600500D01*
X156706607Y-64600500D01*
X156706611Y-64600500D01*
X156877701Y-64573402D01*
X157042445Y-64519873D01*
X157196788Y-64441232D01*
X157249604Y-64402859D01*
X157326731Y-64346823D01*
X157326732Y-64346822D01*
X157336922Y-64339418D01*
X157336928Y-64339414D01*
X157459414Y-64216928D01*
X157561232Y-64076788D01*
X157591116Y-64018135D01*
X157651261Y-63941840D01*
X157736027Y-63894367D01*
X157832509Y-63882946D01*
X157871104Y-63889059D01*
X157994264Y-63918627D01*
X158412893Y-63499999D01*
X158366816Y-63453922D01*
X158770000Y-63453922D01*
X158770000Y-63546078D01*
X158793852Y-63635095D01*
X158839930Y-63714905D01*
X158905095Y-63780070D01*
X158984905Y-63826148D01*
X159073922Y-63850000D01*
X159166078Y-63850000D01*
X159255095Y-63826148D01*
X159334905Y-63780070D01*
X159400070Y-63714905D01*
X159446148Y-63635095D01*
X159470000Y-63546078D01*
X159470000Y-63500000D01*
X159827106Y-63500000D01*
X160245733Y-63918626D01*
X160299045Y-63905827D01*
X160336048Y-63876656D01*
X160429555Y-63850281D01*
X160526036Y-63861698D01*
X160610805Y-63909167D01*
X160670955Y-63985463D01*
X160693240Y-64029199D01*
X160804310Y-64182073D01*
X160937927Y-64315690D01*
X161090801Y-64426760D01*
X161259168Y-64512547D01*
X161438882Y-64570940D01*
X161625519Y-64600500D01*
X161625523Y-64600500D01*
X161814477Y-64600500D01*
X161814481Y-64600500D01*
X162001118Y-64570940D01*
X162180832Y-64512547D01*
X162349199Y-64426760D01*
X162502073Y-64315690D01*
X162635690Y-64182073D01*
X162746760Y-64029199D01*
X162832547Y-63860832D01*
X162890940Y-63681118D01*
X162920500Y-63494481D01*
X162920500Y-63305523D01*
X170679500Y-63305523D01*
X170679500Y-63494476D01*
X170679501Y-63494492D01*
X170709059Y-63681113D01*
X170709060Y-63681118D01*
X170712270Y-63690996D01*
X170764024Y-63850281D01*
X170767453Y-63860832D01*
X170853240Y-64029199D01*
X170964310Y-64182073D01*
X171097927Y-64315690D01*
X171250801Y-64426760D01*
X171419168Y-64512547D01*
X171598882Y-64570940D01*
X171785519Y-64600500D01*
X171785523Y-64600500D01*
X171974478Y-64600500D01*
X171974481Y-64600500D01*
X171982323Y-64599258D01*
X172006404Y-64595444D01*
X172103484Y-64599258D01*
X172191715Y-64639932D01*
X172221428Y-64665308D01*
X172981949Y-65425829D01*
X173035925Y-65506611D01*
X173054879Y-65601899D01*
X173035925Y-65697187D01*
X172981949Y-65777969D01*
X172901167Y-65831945D01*
X172805879Y-65850899D01*
X172710591Y-65831945D01*
X172692835Y-65823759D01*
X172660836Y-65807455D01*
X172660827Y-65807451D01*
X172560893Y-65774980D01*
X172481118Y-65749060D01*
X172481116Y-65749059D01*
X172481114Y-65749059D01*
X172294492Y-65719501D01*
X172294483Y-65719500D01*
X172294481Y-65719500D01*
X172105519Y-65719500D01*
X172105516Y-65719500D01*
X172105507Y-65719501D01*
X171918885Y-65749059D01*
X171739172Y-65807451D01*
X171739168Y-65807452D01*
X171739168Y-65807453D01*
X171570801Y-65893240D01*
X171566124Y-65896638D01*
X171417931Y-66004306D01*
X171284306Y-66137931D01*
X171204034Y-66248417D01*
X171173240Y-66290801D01*
X171109729Y-66415449D01*
X171087451Y-66459172D01*
X171029059Y-66638885D01*
X170999501Y-66825507D01*
X170999500Y-66825523D01*
X170999500Y-67014476D01*
X170999501Y-67014492D01*
X171021259Y-67151864D01*
X171029060Y-67201118D01*
X171043162Y-67244520D01*
X171078001Y-67351744D01*
X171087453Y-67380832D01*
X171173240Y-67549199D01*
X171284310Y-67702073D01*
X171417927Y-67835690D01*
X171570801Y-67946760D01*
X171739168Y-68032547D01*
X171918882Y-68090940D01*
X172105519Y-68120500D01*
X172105523Y-68120500D01*
X172294477Y-68120500D01*
X172294481Y-68120500D01*
X172481118Y-68090940D01*
X172660832Y-68032547D01*
X172829199Y-67946760D01*
X172982073Y-67835690D01*
X173115690Y-67702073D01*
X173226760Y-67549199D01*
X173312547Y-67380832D01*
X173370940Y-67201118D01*
X173400500Y-67014481D01*
X173400500Y-66825519D01*
X173370940Y-66638882D01*
X173312547Y-66459168D01*
X173312544Y-66459162D01*
X173296240Y-66427163D01*
X173269868Y-66333656D01*
X173281287Y-66237174D01*
X173328759Y-66152407D01*
X173405056Y-66092259D01*
X173498563Y-66065887D01*
X173595045Y-66077306D01*
X173679812Y-66124778D01*
X173694170Y-66138049D01*
X173971570Y-66415449D01*
X174025546Y-66496231D01*
X174044500Y-66591519D01*
X174044500Y-74355979D01*
X174025546Y-74451267D01*
X173971570Y-74532049D01*
X172668760Y-75834859D01*
X172587978Y-75888835D01*
X172492690Y-75907789D01*
X172453738Y-75904723D01*
X172294492Y-75879501D01*
X172294483Y-75879500D01*
X172294481Y-75879500D01*
X172105519Y-75879500D01*
X172105516Y-75879500D01*
X172105507Y-75879501D01*
X171918885Y-75909059D01*
X171739172Y-75967451D01*
X171739168Y-75967452D01*
X171739168Y-75967453D01*
X171570801Y-76053240D01*
X171570800Y-76053241D01*
X171417931Y-76164306D01*
X171284306Y-76297931D01*
X171195454Y-76420226D01*
X171173240Y-76450801D01*
X171123808Y-76547817D01*
X171087451Y-76619172D01*
X171029059Y-76798885D01*
X170999501Y-76985507D01*
X170999500Y-76985523D01*
X170999500Y-77174476D01*
X170999501Y-77174492D01*
X171029059Y-77361114D01*
X171029060Y-77361118D01*
X171087453Y-77540832D01*
X171173240Y-77709199D01*
X171284310Y-77862073D01*
X171417927Y-77995690D01*
X171570801Y-78106760D01*
X171739168Y-78192547D01*
X171918882Y-78250940D01*
X172105519Y-78280500D01*
X172105523Y-78280500D01*
X172294477Y-78280500D01*
X172294481Y-78280500D01*
X172481118Y-78250940D01*
X172660832Y-78192547D01*
X172829199Y-78106760D01*
X172982073Y-77995690D01*
X173115690Y-77862073D01*
X173226760Y-77709199D01*
X173312547Y-77540832D01*
X173370940Y-77361118D01*
X173400500Y-77174481D01*
X173400500Y-76985519D01*
X173385531Y-76891005D01*
X173389345Y-76793925D01*
X173430020Y-76705694D01*
X173455388Y-76675990D01*
X174583930Y-75547449D01*
X174664710Y-75493475D01*
X174759998Y-75474521D01*
X174855286Y-75493475D01*
X174936068Y-75547451D01*
X174990044Y-75628233D01*
X175008998Y-75723521D01*
X174998276Y-75795802D01*
X174906074Y-76099748D01*
X174906071Y-76099761D01*
X174835137Y-76456374D01*
X174799500Y-76818205D01*
X174799500Y-77181794D01*
X174835137Y-77543625D01*
X174906071Y-77900238D01*
X174906074Y-77900251D01*
X175011609Y-78248150D01*
X175011617Y-78248171D01*
X175150751Y-78584073D01*
X175150757Y-78584084D01*
X175322142Y-78904725D01*
X175322148Y-78904735D01*
X175501540Y-79173212D01*
X175524146Y-79207044D01*
X175754803Y-79488101D01*
X176011899Y-79745197D01*
X176292956Y-79975854D01*
X176292968Y-79975862D01*
X176595264Y-80177851D01*
X176595274Y-80177857D01*
X176915915Y-80349242D01*
X176915926Y-80349248D01*
X176983106Y-80377074D01*
X177251836Y-80488386D01*
X177251848Y-80488389D01*
X177251849Y-80488390D01*
X177599748Y-80593925D01*
X177599758Y-80593927D01*
X177599767Y-80593930D01*
X177956369Y-80664862D01*
X178318206Y-80700500D01*
X178318209Y-80700500D01*
X178681791Y-80700500D01*
X178681794Y-80700500D01*
X179043631Y-80664862D01*
X179400233Y-80593930D01*
X179400244Y-80593926D01*
X179400251Y-80593925D01*
X179650082Y-80518139D01*
X179748164Y-80488386D01*
X180084076Y-80349247D01*
X180404732Y-80177853D01*
X180707044Y-79975854D01*
X180988101Y-79745197D01*
X181245197Y-79488101D01*
X181475854Y-79207044D01*
X181677853Y-78904732D01*
X181694139Y-78874264D01*
X181771181Y-78730127D01*
X181849247Y-78584076D01*
X181988386Y-78248164D01*
X182053639Y-78033054D01*
X182093925Y-77900251D01*
X182093928Y-77900238D01*
X182093930Y-77900233D01*
X182164862Y-77543631D01*
X182200500Y-77181794D01*
X182200500Y-76818206D01*
X182164862Y-76456369D01*
X182093930Y-76099767D01*
X182093927Y-76099758D01*
X182093925Y-76099748D01*
X181988390Y-75751849D01*
X181988389Y-75751848D01*
X181988386Y-75751836D01*
X181849247Y-75415924D01*
X181737632Y-75207106D01*
X181677857Y-75095274D01*
X181677851Y-75095264D01*
X181475862Y-74792968D01*
X181475854Y-74792956D01*
X181245197Y-74511899D01*
X180988101Y-74254803D01*
X180707044Y-74024146D01*
X180673917Y-74002011D01*
X180404735Y-73822148D01*
X180404725Y-73822142D01*
X180084084Y-73650757D01*
X180084073Y-73650751D01*
X179748171Y-73511617D01*
X179748164Y-73511614D01*
X179748159Y-73511612D01*
X179748150Y-73511609D01*
X179400251Y-73406074D01*
X179400238Y-73406071D01*
X179246546Y-73375500D01*
X179043631Y-73335138D01*
X179043629Y-73335137D01*
X179043625Y-73335137D01*
X178681794Y-73299500D01*
X178318206Y-73299500D01*
X178318205Y-73299500D01*
X177956374Y-73335137D01*
X177599761Y-73406071D01*
X177599748Y-73406074D01*
X177251849Y-73511609D01*
X177251828Y-73511617D01*
X176915926Y-73650751D01*
X176915915Y-73650757D01*
X176595274Y-73822142D01*
X176595264Y-73822148D01*
X176292968Y-74024137D01*
X176292957Y-74024145D01*
X176011902Y-74254800D01*
X175754800Y-74511902D01*
X175636980Y-74655467D01*
X175561878Y-74717101D01*
X175468906Y-74745304D01*
X175372219Y-74735781D01*
X175286536Y-74689983D01*
X175224902Y-74614881D01*
X175196699Y-74521909D01*
X175195500Y-74497503D01*
X175195500Y-72459707D01*
X175214454Y-72364419D01*
X175268430Y-72283637D01*
X175349212Y-72229661D01*
X175444500Y-72210707D01*
X175493075Y-72215491D01*
X175606233Y-72238000D01*
X175773765Y-72238000D01*
X175773767Y-72238000D01*
X175938082Y-72205316D01*
X176092863Y-72141203D01*
X176232162Y-72048126D01*
X176350626Y-71929662D01*
X176443703Y-71790363D01*
X176507816Y-71635582D01*
X176540500Y-71471267D01*
X176540500Y-71303733D01*
X176507816Y-71139418D01*
X176504861Y-71132284D01*
X176485909Y-71036996D01*
X176504865Y-70941708D01*
X176558842Y-70860927D01*
X176639625Y-70806952D01*
X176734909Y-70788000D01*
X177955692Y-70788000D01*
X177955694Y-70788000D01*
X177992569Y-70785098D01*
X178150398Y-70739244D01*
X178291865Y-70655581D01*
X178408081Y-70539365D01*
X178473338Y-70429020D01*
X178538156Y-70356653D01*
X178625737Y-70314597D01*
X178722745Y-70309258D01*
X178814412Y-70341449D01*
X178863726Y-70379700D01*
X178975354Y-70491328D01*
X178975357Y-70491330D01*
X179083202Y-70569685D01*
X179134595Y-70607024D01*
X179309975Y-70696384D01*
X179497174Y-70757209D01*
X179691583Y-70788000D01*
X179691587Y-70788000D01*
X179888413Y-70788000D01*
X179888417Y-70788000D01*
X180082826Y-70757209D01*
X180270025Y-70696384D01*
X180445405Y-70607024D01*
X180604646Y-70491328D01*
X180743828Y-70352146D01*
X180859524Y-70192905D01*
X180948884Y-70017525D01*
X181009709Y-69830326D01*
X181040500Y-69635917D01*
X181040500Y-69139083D01*
X181009709Y-68944674D01*
X180948884Y-68757475D01*
X180859524Y-68582095D01*
X180743828Y-68422854D01*
X180604646Y-68283672D01*
X180569803Y-68258357D01*
X180445410Y-68167979D01*
X180445407Y-68167977D01*
X180445405Y-68167976D01*
X180270025Y-68078616D01*
X180270024Y-68078615D01*
X180270023Y-68078615D01*
X180270017Y-68078613D01*
X180127443Y-68032288D01*
X180082826Y-68017791D01*
X180082824Y-68017790D01*
X180082822Y-68017790D01*
X179888428Y-67987001D01*
X179888419Y-67987000D01*
X179888417Y-67987000D01*
X179691583Y-67987000D01*
X179691580Y-67987000D01*
X179691571Y-67987001D01*
X179497177Y-68017790D01*
X179309982Y-68078613D01*
X179309976Y-68078615D01*
X179238871Y-68114845D01*
X179134595Y-68167976D01*
X179134592Y-68167977D01*
X179134590Y-68167979D01*
X179134589Y-68167979D01*
X178975353Y-68283672D01*
X178863730Y-68395295D01*
X178782948Y-68449271D01*
X178687660Y-68468225D01*
X178592372Y-68449271D01*
X178511591Y-68395294D01*
X178473336Y-68345976D01*
X178460894Y-68324937D01*
X178408081Y-68235635D01*
X178291865Y-68119419D01*
X178150398Y-68035756D01*
X177992569Y-67989902D01*
X177992566Y-67989901D01*
X177992563Y-67989901D01*
X177955704Y-67987000D01*
X177955694Y-67987000D01*
X176624306Y-67987000D01*
X176624295Y-67987000D01*
X176587436Y-67989901D01*
X176587427Y-67989903D01*
X176429601Y-68035756D01*
X176288135Y-68119419D01*
X176171919Y-68235635D01*
X176088256Y-68377101D01*
X176042403Y-68534927D01*
X176042401Y-68534936D01*
X176039500Y-68571795D01*
X176039500Y-70203204D01*
X176042401Y-70240069D01*
X176043208Y-70244485D01*
X176043131Y-70249340D01*
X176043400Y-70252752D01*
X176043077Y-70252777D01*
X176041677Y-70341628D01*
X176003087Y-70430790D01*
X175933313Y-70498398D01*
X175842979Y-70534158D01*
X175816568Y-70537533D01*
X175787297Y-70539691D01*
X175773767Y-70537000D01*
X175606233Y-70537000D01*
X175478071Y-70562492D01*
X175462811Y-70563618D01*
X175429491Y-70559507D01*
X175395922Y-70559507D01*
X175381683Y-70553609D01*
X175366387Y-70551722D01*
X175337176Y-70535173D01*
X175306162Y-70522327D01*
X175295265Y-70511430D01*
X175281855Y-70503833D01*
X175261199Y-70477363D01*
X175237464Y-70453628D01*
X175231566Y-70439390D01*
X175222084Y-70427239D01*
X175213131Y-70394884D01*
X175200284Y-70363869D01*
X175197927Y-70339939D01*
X175196174Y-70333603D01*
X175196802Y-70328512D01*
X175195500Y-70315292D01*
X175195500Y-66174233D01*
X175173151Y-66090826D01*
X175156281Y-66027865D01*
X175080515Y-65896635D01*
X174973365Y-65789485D01*
X174973362Y-65789483D01*
X173113235Y-63929356D01*
X173059259Y-63848574D01*
X173040305Y-63753286D01*
X173050173Y-63690996D01*
X173048656Y-63690632D01*
X173050941Y-63681113D01*
X173080498Y-63494492D01*
X173080500Y-63494481D01*
X173080500Y-63305519D01*
X173050940Y-63118882D01*
X172992547Y-62939168D01*
X172906760Y-62770801D01*
X172795690Y-62617927D01*
X172662073Y-62484310D01*
X172662069Y-62484307D01*
X172662068Y-62484306D01*
X172621005Y-62454472D01*
X172509199Y-62373240D01*
X172340832Y-62287453D01*
X172340829Y-62287452D01*
X172340827Y-62287451D01*
X172240893Y-62254980D01*
X172161118Y-62229060D01*
X172161116Y-62229059D01*
X172161114Y-62229059D01*
X171974492Y-62199501D01*
X171974483Y-62199500D01*
X171974481Y-62199500D01*
X171785519Y-62199500D01*
X171785516Y-62199500D01*
X171785507Y-62199501D01*
X171598885Y-62229059D01*
X171419172Y-62287451D01*
X171419168Y-62287452D01*
X171419168Y-62287453D01*
X171250801Y-62373240D01*
X171220226Y-62395454D01*
X171097931Y-62484306D01*
X170964306Y-62617931D01*
X170933318Y-62660583D01*
X170853240Y-62770801D01*
X170775587Y-62923205D01*
X170767451Y-62939172D01*
X170709059Y-63118885D01*
X170679501Y-63305507D01*
X170679500Y-63305523D01*
X162920500Y-63305523D01*
X162920500Y-63305519D01*
X162890940Y-63118882D01*
X162832547Y-62939168D01*
X162746760Y-62770801D01*
X162635690Y-62617927D01*
X162502073Y-62484310D01*
X162502069Y-62484307D01*
X162502068Y-62484306D01*
X162461005Y-62454472D01*
X162349199Y-62373240D01*
X162180832Y-62287453D01*
X162180829Y-62287452D01*
X162180827Y-62287451D01*
X162080893Y-62254980D01*
X162001118Y-62229060D01*
X162001116Y-62229059D01*
X162001114Y-62229059D01*
X161814492Y-62199501D01*
X161814483Y-62199500D01*
X161814481Y-62199500D01*
X161625519Y-62199500D01*
X161625516Y-62199500D01*
X161625507Y-62199501D01*
X161438885Y-62229059D01*
X161259172Y-62287451D01*
X161259168Y-62287452D01*
X161259168Y-62287453D01*
X161090801Y-62373240D01*
X161060226Y-62395454D01*
X160937931Y-62484306D01*
X160804306Y-62617931D01*
X160773318Y-62660583D01*
X160693240Y-62770801D01*
X160681984Y-62792892D01*
X160607450Y-62939173D01*
X160603708Y-62948209D01*
X160601410Y-62947257D01*
X160562065Y-63017506D01*
X160485766Y-63077651D01*
X160392257Y-63104019D01*
X160314603Y-63097906D01*
X160245734Y-63081372D01*
X159827106Y-63500000D01*
X159470000Y-63500000D01*
X159470000Y-63453922D01*
X159446148Y-63364905D01*
X159400070Y-63285095D01*
X159334905Y-63219930D01*
X159255095Y-63173852D01*
X159166078Y-63150000D01*
X159073922Y-63150000D01*
X158984905Y-63173852D01*
X158905095Y-63219930D01*
X158839930Y-63285095D01*
X158793852Y-63364905D01*
X158770000Y-63453922D01*
X158366816Y-63453922D01*
X157994265Y-63081371D01*
X157871104Y-63110940D01*
X157774024Y-63114754D01*
X157682874Y-63081128D01*
X157611531Y-63015179D01*
X157591122Y-62981875D01*
X157561232Y-62923212D01*
X157459414Y-62783072D01*
X157336928Y-62660586D01*
X157326728Y-62653175D01*
X157326726Y-62653173D01*
X157196792Y-62558770D01*
X157042443Y-62480126D01*
X157042437Y-62480124D01*
X156948195Y-62449503D01*
X156877701Y-62426598D01*
X156877699Y-62426597D01*
X156877697Y-62426597D01*
X156706621Y-62399501D01*
X156706614Y-62399500D01*
X156706611Y-62399500D01*
X156533389Y-62399500D01*
X156533386Y-62399500D01*
X156533378Y-62399501D01*
X156362302Y-62426597D01*
X156197562Y-62480124D01*
X156197556Y-62480126D01*
X156043207Y-62558770D01*
X155903077Y-62660581D01*
X155780581Y-62783077D01*
X155678770Y-62923207D01*
X155600126Y-63077556D01*
X155600124Y-63077562D01*
X155546597Y-63242302D01*
X155519501Y-63413378D01*
X155519500Y-63413393D01*
X135761181Y-63413393D01*
X135687162Y-63339374D01*
X135547863Y-63246297D01*
X135547860Y-63246296D01*
X135547859Y-63246295D01*
X135393086Y-63182185D01*
X135393082Y-63182184D01*
X135228767Y-63149500D01*
X135061233Y-63149500D01*
X134896918Y-63182184D01*
X134896913Y-63182185D01*
X134742140Y-63246295D01*
X134742135Y-63246298D01*
X134602841Y-63339371D01*
X134484371Y-63457841D01*
X134391298Y-63597135D01*
X134391295Y-63597140D01*
X134327185Y-63751913D01*
X134327184Y-63751917D01*
X134327184Y-63751918D01*
X134294500Y-63916233D01*
X134294500Y-64083767D01*
X134299473Y-64108767D01*
X134327184Y-64248083D01*
X134330139Y-64255216D01*
X134349091Y-64350504D01*
X134330135Y-64445792D01*
X134276158Y-64526573D01*
X134195375Y-64580548D01*
X134100091Y-64599500D01*
X132879295Y-64599500D01*
X132842436Y-64602401D01*
X132842427Y-64602403D01*
X132684601Y-64648256D01*
X132543135Y-64731919D01*
X132426919Y-64848135D01*
X132361662Y-64958478D01*
X132296841Y-65030847D01*
X132209260Y-65072903D01*
X132112252Y-65078241D01*
X132020585Y-65046049D01*
X131971272Y-65007798D01*
X131859646Y-64896172D01*
X131831194Y-64875500D01*
X131700410Y-64780479D01*
X131700407Y-64780477D01*
X131700405Y-64780476D01*
X131525025Y-64691116D01*
X131525024Y-64691115D01*
X131525023Y-64691115D01*
X131525017Y-64691113D01*
X131393116Y-64648256D01*
X131337826Y-64630291D01*
X131337824Y-64630290D01*
X131337822Y-64630290D01*
X131143428Y-64599501D01*
X131143419Y-64599500D01*
X131143417Y-64599500D01*
X130946583Y-64599500D01*
X130946580Y-64599500D01*
X130946571Y-64599501D01*
X130752177Y-64630290D01*
X130564982Y-64691113D01*
X130564976Y-64691115D01*
X130515915Y-64716113D01*
X130389595Y-64780476D01*
X130389592Y-64780477D01*
X130389590Y-64780479D01*
X130389589Y-64780479D01*
X130230357Y-64896169D01*
X130091169Y-65035357D01*
X129975479Y-65194589D01*
X129975479Y-65194590D01*
X129975477Y-65194592D01*
X129975476Y-65194595D01*
X129959968Y-65225032D01*
X129886115Y-65369976D01*
X129886113Y-65369982D01*
X129825290Y-65557177D01*
X129794501Y-65751571D01*
X129794500Y-65751587D01*
X121314495Y-65751587D01*
X121295099Y-65717993D01*
X121202007Y-65624901D01*
X121087993Y-65559075D01*
X120960826Y-65525000D01*
X120829174Y-65525000D01*
X120702007Y-65559075D01*
X120587993Y-65624901D01*
X120494901Y-65717993D01*
X120429075Y-65832007D01*
X120395000Y-65959174D01*
X120395000Y-64572380D01*
X121395000Y-64572380D01*
X121395000Y-65524999D01*
X121395001Y-65525000D01*
X122244998Y-65525000D01*
X122244999Y-65524999D01*
X122244999Y-65225032D01*
X122244998Y-65225015D01*
X122237315Y-65149805D01*
X122246487Y-65053084D01*
X122291975Y-64967235D01*
X122366852Y-64905329D01*
X122459721Y-64876789D01*
X122485026Y-64875500D01*
X122578765Y-64875500D01*
X122578767Y-64875500D01*
X122743082Y-64842816D01*
X122897863Y-64778703D01*
X123037162Y-64685626D01*
X123155626Y-64567162D01*
X123248703Y-64427863D01*
X123312816Y-64273082D01*
X123345500Y-64108767D01*
X123345500Y-63941233D01*
X123312816Y-63776918D01*
X123302458Y-63751913D01*
X123248704Y-63622140D01*
X123248703Y-63622137D01*
X123155626Y-63482838D01*
X123037162Y-63364374D01*
X122897863Y-63271297D01*
X122897860Y-63271296D01*
X122897859Y-63271295D01*
X122743086Y-63207185D01*
X122743082Y-63207184D01*
X122578767Y-63174500D01*
X122411233Y-63174500D01*
X122246918Y-63207184D01*
X122246913Y-63207185D01*
X122092140Y-63271295D01*
X122092135Y-63271298D01*
X121952841Y-63364371D01*
X121834371Y-63482841D01*
X121741298Y-63622135D01*
X121741295Y-63622140D01*
X121677185Y-63776913D01*
X121677184Y-63776917D01*
X121677184Y-63776918D01*
X121644500Y-63941233D01*
X121644500Y-64108767D01*
X121664061Y-64207106D01*
X121668102Y-64227423D01*
X121668101Y-64240712D01*
X121671863Y-64253455D01*
X121668101Y-64288917D01*
X121668101Y-64324578D01*
X121663016Y-64336852D01*
X121661615Y-64350068D01*
X121644566Y-64381395D01*
X121630921Y-64414338D01*
X121621526Y-64423732D01*
X121615174Y-64435405D01*
X121587433Y-64457824D01*
X121562222Y-64483036D01*
X121549948Y-64488119D01*
X121539612Y-64496474D01*
X121395000Y-64572380D01*
X120395000Y-64572380D01*
X120395000Y-64524999D01*
X120245024Y-64525000D01*
X120142300Y-64535494D01*
X120142297Y-64535495D01*
X119975880Y-64590640D01*
X119975878Y-64590641D01*
X119826658Y-64682681D01*
X119826654Y-64682684D01*
X119702680Y-64806658D01*
X119636224Y-64914402D01*
X119570068Y-64985553D01*
X119481719Y-65025971D01*
X119384629Y-65029503D01*
X119293577Y-64995611D01*
X119248230Y-64959756D01*
X119209646Y-64921172D01*
X119165514Y-64889108D01*
X119050410Y-64805479D01*
X119050407Y-64805477D01*
X119050405Y-64805476D01*
X118875025Y-64716116D01*
X118875024Y-64716115D01*
X118875023Y-64716115D01*
X118875017Y-64716113D01*
X118767928Y-64681318D01*
X118687826Y-64655291D01*
X118687824Y-64655290D01*
X118687822Y-64655290D01*
X118493428Y-64624501D01*
X118493419Y-64624500D01*
X118493417Y-64624500D01*
X118296583Y-64624500D01*
X118296580Y-64624500D01*
X118296571Y-64624501D01*
X118102177Y-64655290D01*
X117914982Y-64716113D01*
X117914976Y-64716115D01*
X117841210Y-64753701D01*
X117739595Y-64805476D01*
X117739592Y-64805477D01*
X117739590Y-64805479D01*
X117739589Y-64805479D01*
X117580357Y-64921169D01*
X117441169Y-65060357D01*
X117325479Y-65219589D01*
X117325479Y-65219590D01*
X117325477Y-65219592D01*
X117325476Y-65219595D01*
X117322706Y-65225032D01*
X117236115Y-65394976D01*
X117236113Y-65394982D01*
X117175290Y-65582177D01*
X117144501Y-65776571D01*
X117144500Y-65776587D01*
X112620500Y-65776587D01*
X112620500Y-62374265D01*
X158701371Y-62374265D01*
X159119999Y-62792892D01*
X159538626Y-62374264D01*
X159538627Y-62374264D01*
X159401007Y-62329550D01*
X159400988Y-62329545D01*
X159214452Y-62300001D01*
X159214438Y-62300000D01*
X159025562Y-62300000D01*
X159025547Y-62300001D01*
X158839011Y-62329545D01*
X158839000Y-62329548D01*
X158701372Y-62374265D01*
X158701371Y-62374265D01*
X112620500Y-62374265D01*
X112620500Y-60499500D01*
X112639454Y-60404212D01*
X112693430Y-60323430D01*
X112774212Y-60269454D01*
X112869500Y-60250500D01*
X183870500Y-60250500D01*
X183965788Y-60269454D01*
G37*
%TD.AperFunction*%
%TD*%
M02*
