%TF.GenerationSoftware,KiCad,Pcbnew,9.0.7*%
%TF.CreationDate,2026-02-25T20:58:53+00:00*%
%TF.ProjectId,Warehouse Robot Schematic NEW.pdf,57617265-686f-4757-9365-20526f626f74,rev?*%
%TF.SameCoordinates,Original*%
%TF.FileFunction,Copper,L1,Top*%
%TF.FilePolarity,Positive*%
%FSLAX46Y46*%
G04 Gerber Fmt 4.6, Leading zero omitted, Abs format (unit mm)*
G04 Created by KiCad (PCBNEW 9.0.7) date 2026-02-25 20:58:53*
%MOMM*%
%LPD*%
G01*
G04 APERTURE LIST*
G04 Aperture macros list*
%AMRoundRect*
0 Rectangle with rounded corners*
0 $1 Rounding radius*
0 $2 $3 $4 $5 $6 $7 $8 $9 X,Y pos of 4 corners*
0 Add a 4 corners polygon primitive as box body*
4,1,4,$2,$3,$4,$5,$6,$7,$8,$9,$2,$3,0*
0 Add four circle primitives for the rounded corners*
1,1,$1+$1,$2,$3*
1,1,$1+$1,$4,$5*
1,1,$1+$1,$6,$7*
1,1,$1+$1,$8,$9*
0 Add four rect primitives between the rounded corners*
20,1,$1+$1,$2,$3,$4,$5,0*
20,1,$1+$1,$4,$5,$6,$7,0*
20,1,$1+$1,$6,$7,$8,$9,0*
20,1,$1+$1,$8,$9,$2,$3,0*%
G04 Aperture macros list end*
%TA.AperFunction,ComponentPad*%
%ADD10C,1.600000*%
%TD*%
%TA.AperFunction,ComponentPad*%
%ADD11C,1.400000*%
%TD*%
%TA.AperFunction,ComponentPad*%
%ADD12RoundRect,0.250000X-0.750000X0.600000X-0.750000X-0.600000X0.750000X-0.600000X0.750000X0.600000X0*%
%TD*%
%TA.AperFunction,ComponentPad*%
%ADD13O,2.000000X1.700000*%
%TD*%
%TA.AperFunction,ComponentPad*%
%ADD14R,1.800000X1.800000*%
%TD*%
%TA.AperFunction,ComponentPad*%
%ADD15C,1.800000*%
%TD*%
%TA.AperFunction,ComponentPad*%
%ADD16RoundRect,0.250000X-0.600000X-0.725000X0.600000X-0.725000X0.600000X0.725000X-0.600000X0.725000X0*%
%TD*%
%TA.AperFunction,ComponentPad*%
%ADD17O,1.700000X1.950000*%
%TD*%
%TA.AperFunction,ComponentPad*%
%ADD18C,2.800000*%
%TD*%
%TA.AperFunction,ComponentPad*%
%ADD19RoundRect,0.250000X-0.600000X-0.750000X0.600000X-0.750000X0.600000X0.750000X-0.600000X0.750000X0*%
%TD*%
%TA.AperFunction,ComponentPad*%
%ADD20O,1.700000X2.000000*%
%TD*%
%TA.AperFunction,ComponentPad*%
%ADD21R,1.700000X1.700000*%
%TD*%
%TA.AperFunction,ComponentPad*%
%ADD22C,1.700000*%
%TD*%
%TA.AperFunction,ComponentPad*%
%ADD23RoundRect,0.250000X0.600000X0.750000X-0.600000X0.750000X-0.600000X-0.750000X0.600000X-0.750000X0*%
%TD*%
%TA.AperFunction,ComponentPad*%
%ADD24R,1.905000X2.000000*%
%TD*%
%TA.AperFunction,ComponentPad*%
%ADD25O,1.905000X2.000000*%
%TD*%
%TA.AperFunction,ComponentPad*%
%ADD26R,2.000000X2.000000*%
%TD*%
%TA.AperFunction,ComponentPad*%
%ADD27C,2.000000*%
%TD*%
%TA.AperFunction,ViaPad*%
%ADD28C,0.600000*%
%TD*%
%TA.AperFunction,Conductor*%
%ADD29C,0.350000*%
%TD*%
%TA.AperFunction,Conductor*%
%ADD30C,0.450000*%
%TD*%
%TA.AperFunction,Conductor*%
%ADD31C,0.200000*%
%TD*%
%TA.AperFunction,Conductor*%
%ADD32C,0.300000*%
%TD*%
G04 APERTURE END LIST*
D10*
%TO.P,R4,1*%
%TO.N,5v*%
X171880000Y-63400000D03*
%TO.P,R4,2*%
%TO.N,Net-(U2-EnB)*%
X161720000Y-63400000D03*
%TD*%
%TO.P,C6,1*%
%TO.N,VIN*%
X131145000Y-72000000D03*
%TO.P,C6,2*%
%TO.N,GND*%
X131145000Y-74500000D03*
%TD*%
%TO.P,R3,1*%
%TO.N,5v*%
X172200000Y-77080000D03*
%TO.P,R3,2*%
%TO.N,Net-(U2-EnA)*%
X172200000Y-66920000D03*
%TD*%
D11*
%TO.P,C5,1*%
%TO.N,5v*%
X137395000Y-72250000D03*
%TO.P,C5,2*%
%TO.N,GND*%
X137395000Y-74750000D03*
%TD*%
D12*
%TO.P,J12,1,Pin_1*%
%TO.N,3v3*%
X118145000Y-86750000D03*
D13*
%TO.P,J12,2,Pin_2*%
%TO.N,GND*%
X118145000Y-89250000D03*
%TD*%
D14*
%TO.P,U2,1,SENSE_A*%
%TO.N,unconnected-(U2-SENSE_A-Pad1)*%
X168470000Y-66920000D03*
D15*
%TO.P,U2,2,OUT1*%
%TO.N,Net-(J3-Pin_1)*%
X167200000Y-72000000D03*
%TO.P,U2,3,OUT2*%
%TO.N,Net-(J3-Pin_2)*%
X165930000Y-66920000D03*
%TO.P,U2,4,Vs*%
%TO.N,VIN*%
X164660000Y-72000000D03*
%TO.P,U2,5,IN1*%
%TO.N,IN1*%
X163390000Y-66920000D03*
%TO.P,U2,6,EnA*%
%TO.N,Net-(U2-EnA)*%
X162120000Y-72000000D03*
%TO.P,U2,7,IN2*%
%TO.N,IN2*%
X160850000Y-66920000D03*
%TO.P,U2,8,GND*%
%TO.N,GND*%
X159580000Y-72000000D03*
%TO.P,U2,9,Vss*%
%TO.N,5v*%
X158310000Y-66920000D03*
%TO.P,U2,10,IN3*%
%TO.N,IN3*%
X157040000Y-72000000D03*
%TO.P,U2,11,EnB*%
%TO.N,Net-(U2-EnB)*%
X155770000Y-66920000D03*
%TO.P,U2,12,IN4*%
%TO.N,IN4*%
X154500000Y-72000000D03*
%TO.P,U2,13,OUT3*%
%TO.N,Net-(J4-Pin_1)*%
X153230000Y-66920000D03*
%TO.P,U2,14,OUT4*%
%TO.N,Net-(J4-Pin_2)*%
X151960000Y-72000000D03*
%TO.P,U2,15,SENSE_B*%
%TO.N,unconnected-(U2-SENSE_B-Pad15)*%
X150690000Y-66920000D03*
%TD*%
D11*
%TO.P,C3,1*%
%TO.N,5v*%
X140120000Y-80000000D03*
%TO.P,C3,2*%
%TO.N,GND*%
X142620000Y-80000000D03*
%TD*%
%TO.P,C4,1*%
%TO.N,GND*%
X162337500Y-79750000D03*
%TO.P,C4,2*%
%TO.N,VIN*%
X164837500Y-79750000D03*
%TD*%
D16*
%TO.P,J9,1,Pin_1*%
%TO.N,GND*%
X170370000Y-124500000D03*
D17*
%TO.P,J9,2,Pin_2*%
%TO.N,Net-(J9-Pin_2)*%
X172870000Y-124500000D03*
%TO.P,J9,3,Pin_3*%
%TO.N,TRIG*%
X175370000Y-124500000D03*
%TO.P,J9,4,Pin_4*%
%TO.N,5v*%
X177870000Y-124500000D03*
%TD*%
D18*
%TO.P,TP4,1,1*%
%TO.N,GND*%
X128870000Y-80250000D03*
%TD*%
%TO.P,TP2,1,1*%
%TO.N,5v*%
X116370000Y-80250000D03*
%TD*%
D10*
%TO.P,R2,1*%
%TO.N,ECHO*%
X170720000Y-117800000D03*
%TO.P,R2,2*%
%TO.N,GND*%
X180880000Y-117800000D03*
%TD*%
D19*
%TO.P,J8,1,Pin_1*%
%TO.N,Net-(J2-Pin_7)*%
X138870000Y-124500000D03*
D20*
%TO.P,J8,2,Pin_2*%
%TO.N,GND*%
X141370000Y-124500000D03*
%TD*%
D18*
%TO.P,TP3,1,1*%
%TO.N,VIN*%
X122464286Y-80250000D03*
%TD*%
D19*
%TO.P,J3,1,Pin_1*%
%TO.N,Net-(J3-Pin_1)*%
X177290000Y-69387500D03*
D20*
%TO.P,J3,2,Pin_2*%
%TO.N,Net-(J3-Pin_2)*%
X179790000Y-69387500D03*
%TD*%
D11*
%TO.P,C7,1*%
%TO.N,3v3*%
X140150000Y-113600000D03*
%TO.P,C7,2*%
%TO.N,GND*%
X142650000Y-113600000D03*
%TD*%
D21*
%TO.P,J2,1,Pin_1*%
%TO.N,TRIG*%
X175770000Y-109750000D03*
D22*
%TO.P,J2,2,Pin_2*%
%TO.N,ECHO*%
X173230000Y-109750000D03*
%TO.P,J2,3,Pin_3*%
%TO.N,unconnected-(J2-Pin_3-Pad3)*%
X170690000Y-109750000D03*
%TO.P,J2,4,Pin_4*%
%TO.N,unconnected-(J2-Pin_4-Pad4)*%
X168150000Y-109750000D03*
%TO.P,J2,5,Pin_5*%
%TO.N,BB_OUT*%
X165610000Y-109750000D03*
%TO.P,J2,6,Pin_6*%
%TO.N,Net-(BZ1-+)*%
X163070000Y-109750000D03*
%TO.P,J2,7,Pin_7*%
%TO.N,Net-(J2-Pin_7)*%
X160530000Y-109750000D03*
%TO.P,J2,8,Pin_8*%
%TO.N,unconnected-(J2-Pin_8-Pad8)*%
X157990000Y-109750000D03*
%TO.P,J2,9,Pin_9*%
%TO.N,unconnected-(J2-Pin_9-Pad9)*%
X155450000Y-109750000D03*
%TO.P,J2,10,Pin_10*%
%TO.N,LF_R_OUT*%
X152910000Y-109750000D03*
%TO.P,J2,11,Pin_11*%
%TO.N,LF_L_OUT*%
X150370000Y-109750000D03*
%TO.P,J2,12,Pin_12*%
%TO.N,unconnected-(J2-Pin_12-Pad12)*%
X147830000Y-109750000D03*
%TO.P,J2,13,Pin_13*%
%TO.N,unconnected-(J2-Pin_13-Pad13)*%
X145290000Y-109750000D03*
%TO.P,J2,14,Pin_14*%
%TO.N,GND*%
X142750000Y-109750000D03*
%TO.P,J2,15,Pin_15*%
%TO.N,3v3*%
X140210000Y-109750000D03*
%TD*%
D23*
%TO.P,J5,1,Pin_1*%
%TO.N,GND*%
X120895000Y-66025000D03*
D20*
%TO.P,J5,2,Pin_2*%
%TO.N,Net-(J5-Pin_2)*%
X118395000Y-66025000D03*
%TD*%
D16*
%TO.P,J13,1,Pin_1*%
%TO.N,3v3*%
X118620000Y-124475000D03*
D17*
%TO.P,J13,2,Pin_2*%
%TO.N,GND*%
X121120000Y-124475000D03*
%TO.P,J13,3,Pin_3*%
%TO.N,BB_OUT*%
X123620000Y-124475000D03*
%TD*%
D19*
%TO.P,J7,1,Pin_1*%
%TO.N,Net-(J2-Pin_7)*%
X130120000Y-124500000D03*
D20*
%TO.P,J7,2,Pin_2*%
%TO.N,GND*%
X132620000Y-124500000D03*
%TD*%
D24*
%TO.P,U1,1,VI*%
%TO.N,VIN*%
X123435000Y-72550000D03*
D25*
%TO.P,U1,2,GND*%
%TO.N,GND*%
X120895000Y-72550000D03*
%TO.P,U1,3,VO*%
%TO.N,5v*%
X118355000Y-72550000D03*
%TD*%
D19*
%TO.P,J4,1,Pin_1*%
%TO.N,Net-(J4-Pin_1)*%
X142587500Y-69387500D03*
D20*
%TO.P,J4,2,Pin_2*%
%TO.N,Net-(J4-Pin_2)*%
X145087500Y-69387500D03*
%TD*%
D16*
%TO.P,J11,1,Pin_1*%
%TO.N,5v*%
X147870000Y-124500000D03*
D17*
%TO.P,J11,2,Pin_2*%
%TO.N,GND*%
X150370000Y-124500000D03*
%TO.P,J11,3,Pin_3*%
%TO.N,LF_R_OUT*%
X152870000Y-124500000D03*
%TD*%
D23*
%TO.P,J6,1,Pin_1*%
%TO.N,VIN*%
X133545000Y-66000000D03*
D20*
%TO.P,J6,2,Pin_2*%
%TO.N,Net-(J5-Pin_2)*%
X131045000Y-66000000D03*
%TD*%
D21*
%TO.P,J1,1,Pin_1*%
%TO.N,unconnected-(J1-Pin_1-Pad1)*%
X175770000Y-83750000D03*
D22*
%TO.P,J1,2,Pin_2*%
%TO.N,unconnected-(J1-Pin_2-Pad2)*%
X173230000Y-83750000D03*
%TO.P,J1,3,Pin_3*%
%TO.N,unconnected-(J1-Pin_3-Pad3)*%
X170690000Y-83750000D03*
%TO.P,J1,4,Pin_4*%
%TO.N,unconnected-(J1-Pin_4-Pad4)*%
X168150000Y-83750000D03*
%TO.P,J1,5,Pin_5*%
%TO.N,unconnected-(J1-Pin_5-Pad5)*%
X165610000Y-83750000D03*
%TO.P,J1,6,Pin_6*%
%TO.N,IN3*%
X163070000Y-83750000D03*
%TO.P,J1,7,Pin_7*%
%TO.N,IN4*%
X160530000Y-83750000D03*
%TO.P,J1,8,Pin_8*%
%TO.N,IN1*%
X157990000Y-83750000D03*
%TO.P,J1,9,Pin_9*%
%TO.N,IN2*%
X155450000Y-83750000D03*
%TO.P,J1,10,Pin_10*%
%TO.N,unconnected-(J1-Pin_10-Pad10)*%
X152910000Y-83750000D03*
%TO.P,J1,11,Pin_11*%
%TO.N,unconnected-(J1-Pin_11-Pad11)*%
X150370000Y-83750000D03*
%TO.P,J1,12,Pin_12*%
%TO.N,unconnected-(J1-Pin_12-Pad12)*%
X147830000Y-83750000D03*
%TO.P,J1,13,Pin_13*%
%TO.N,unconnected-(J1-Pin_13-Pad13)*%
X145290000Y-83750000D03*
%TO.P,J1,14,Pin_14*%
%TO.N,GND*%
X142750000Y-83750000D03*
%TO.P,J1,15,Pin_15*%
%TO.N,5v*%
X140210000Y-83750000D03*
%TD*%
D16*
%TO.P,J10,1,Pin_1*%
%TO.N,5v*%
X159220000Y-124500000D03*
D17*
%TO.P,J10,2,Pin_2*%
%TO.N,GND*%
X161720000Y-124500000D03*
%TO.P,J10,3,Pin_3*%
%TO.N,LF_L_OUT*%
X164220000Y-124500000D03*
%TD*%
D18*
%TO.P,TP1,1,1*%
%TO.N,3v3*%
X116370000Y-95500000D03*
%TD*%
D10*
%TO.P,R1,1*%
%TO.N,Net-(J9-Pin_2)*%
X180880000Y-114200000D03*
%TO.P,R1,2*%
%TO.N,ECHO*%
X170720000Y-114200000D03*
%TD*%
D11*
%TO.P,C2,1*%
%TO.N,GND*%
X159120000Y-63500000D03*
%TO.P,C2,2*%
%TO.N,5v*%
X156620000Y-63500000D03*
%TD*%
D26*
%TO.P,BZ1,1,+*%
%TO.N,Net-(BZ1-+)*%
X122370000Y-106700000D03*
D27*
%TO.P,BZ1,2,-*%
%TO.N,GND*%
X122370000Y-114300000D03*
%TD*%
D28*
%TO.N,VIN*%
X152600000Y-75400000D03*
%TD*%
D29*
%TO.N,VIN*%
X137000000Y-69600000D02*
X133545000Y-69600000D01*
X142800000Y-75400000D02*
X137000000Y-69600000D01*
X152600000Y-75400000D02*
X142800000Y-75400000D01*
D30*
%TO.N,Net-(J3-Pin_1)*%
X168400000Y-73200000D02*
X167200000Y-72000000D01*
X176200000Y-73200000D02*
X168400000Y-73200000D01*
X177290000Y-72110000D02*
X176200000Y-73200000D01*
X177290000Y-69387500D02*
X177290000Y-72110000D01*
D29*
%TO.N,5v*%
X158120000Y-65000000D02*
X158310000Y-65190000D01*
X151370000Y-128000000D02*
X157870000Y-128000000D01*
X165000000Y-63500000D02*
X163500000Y-65000000D01*
X118355000Y-72550000D02*
X116370000Y-74535000D01*
X116370000Y-74535000D02*
X116370000Y-80250000D01*
X119870000Y-83750000D02*
X116370000Y-80250000D01*
X140210000Y-80090000D02*
X140120000Y-80000000D01*
X140210000Y-83750000D02*
X140210000Y-80090000D01*
X157870000Y-128000000D02*
X158120000Y-128000000D01*
X171950000Y-63500000D02*
X165000000Y-63500000D01*
X158120000Y-128000000D02*
X159220000Y-126900000D01*
X140210000Y-83750000D02*
X119870000Y-83750000D01*
X156620000Y-63500000D02*
X158120000Y-65000000D01*
X159220000Y-126900000D02*
X159220000Y-124500000D01*
X158310000Y-65190000D02*
X158310000Y-66920000D01*
X140120000Y-74975000D02*
X140120000Y-80000000D01*
X163500000Y-65000000D02*
X158120000Y-65000000D01*
X147870000Y-124500000D02*
X151370000Y-128000000D01*
X157870000Y-128000000D02*
X174370000Y-128000000D01*
X174370000Y-128000000D02*
X177870000Y-124500000D01*
X137395000Y-72250000D02*
X140120000Y-74975000D01*
%TO.N,VIN*%
X133545000Y-66000000D02*
X133545000Y-69600000D01*
X164660000Y-72000000D02*
X164660000Y-79572500D01*
X123435000Y-72550000D02*
X123435000Y-72565000D01*
X123370000Y-72630000D02*
X123370000Y-79344286D01*
X123435000Y-72565000D02*
X123370000Y-72630000D01*
X164660000Y-79572500D02*
X164837500Y-79750000D01*
X130595000Y-72550000D02*
X131145000Y-72000000D01*
X123370000Y-79344286D02*
X122464286Y-80250000D01*
X133545000Y-69600000D02*
X131145000Y-72000000D01*
X123435000Y-72550000D02*
X130595000Y-72550000D01*
%TO.N,3v3*%
X116370000Y-95500000D02*
X117370000Y-94500000D01*
X117370000Y-94500000D02*
X124960000Y-94500000D01*
X140120000Y-109840000D02*
X140210000Y-109750000D01*
X140120000Y-115500000D02*
X140120000Y-109840000D01*
X118145000Y-86750000D02*
X117370000Y-86750000D01*
X118620000Y-124475000D02*
X123345000Y-119750000D01*
X115620000Y-88500000D02*
X115620000Y-94750000D01*
X135870000Y-119750000D02*
X140120000Y-115500000D01*
X115620000Y-94750000D02*
X116370000Y-95500000D01*
X117370000Y-86750000D02*
X115620000Y-88500000D01*
X123345000Y-119750000D02*
X135870000Y-119750000D01*
X124960000Y-94500000D02*
X140210000Y-109750000D01*
D31*
%TO.N,IN3*%
X157040000Y-72000000D02*
X157040000Y-77720000D01*
X157040000Y-77720000D02*
X163070000Y-83750000D01*
%TO.N,IN4*%
X160530000Y-83750000D02*
X154500000Y-77720000D01*
X154500000Y-77720000D02*
X154500000Y-72000000D01*
%TO.N,ECHO*%
X170790000Y-114250000D02*
X170790000Y-117750000D01*
X173230000Y-109750000D02*
X170790000Y-112190000D01*
X170790000Y-112190000D02*
X170790000Y-114250000D01*
%TO.N,LF_R_OUT*%
X152910000Y-124460000D02*
X152870000Y-124500000D01*
X152910000Y-109750000D02*
X152910000Y-124460000D01*
D30*
%TO.N,Net-(J3-Pin_2)*%
X176000000Y-65000000D02*
X167850000Y-65000000D01*
X179790000Y-69387500D02*
X179790000Y-68790000D01*
X179790000Y-68790000D02*
X176000000Y-65000000D01*
X167850000Y-65000000D02*
X165930000Y-66920000D01*
%TO.N,Net-(J4-Pin_1)*%
X142587500Y-69387500D02*
X142587500Y-69032500D01*
X142587500Y-69032500D02*
X146870000Y-64750000D01*
X151060000Y-64750000D02*
X153230000Y-66920000D01*
X146870000Y-64750000D02*
X151060000Y-64750000D01*
%TO.N,Net-(J4-Pin_2)*%
X147370000Y-72000000D02*
X151960000Y-72000000D01*
X145087500Y-69387500D02*
X145087500Y-69717500D01*
X145087500Y-69717500D02*
X147370000Y-72000000D01*
D32*
%TO.N,Net-(J5-Pin_2)*%
X127295000Y-62250000D02*
X131045000Y-66000000D01*
X118395000Y-65225000D02*
X121370000Y-62250000D01*
X118395000Y-66025000D02*
X118395000Y-65225000D01*
X121370000Y-62250000D02*
X127295000Y-62250000D01*
D31*
%TO.N,Net-(U2-EnB)*%
X161790000Y-63500000D02*
X161790000Y-63290000D01*
X159500000Y-61000000D02*
X156100000Y-61000000D01*
X156100000Y-61000000D02*
X154800000Y-62300000D01*
X161790000Y-63290000D02*
X159500000Y-61000000D01*
X154800000Y-65950000D02*
X155770000Y-66920000D01*
X154800000Y-62300000D02*
X154800000Y-65950000D01*
%TO.N,Net-(U2-EnA)*%
X164120000Y-69750000D02*
X162120000Y-71750000D01*
X172237500Y-66920000D02*
X171700000Y-66920000D01*
X162120000Y-71750000D02*
X161870000Y-71750000D01*
X171700000Y-66920000D02*
X168870000Y-69750000D01*
X161870000Y-71750000D02*
X162120000Y-72000000D01*
X168870000Y-69750000D02*
X164120000Y-69750000D01*
%TO.N,Net-(J2-Pin_7)*%
X130120000Y-124500000D02*
X130120000Y-126620000D01*
X138870000Y-126380000D02*
X138870000Y-124500000D01*
X130120000Y-126620000D02*
X131250000Y-127750000D01*
X137500000Y-127750000D02*
X138870000Y-126380000D01*
X131250000Y-127750000D02*
X137500000Y-127750000D01*
%TO.N,Net-(J9-Pin_2)*%
X180880000Y-114200000D02*
X172870000Y-122210000D01*
X172870000Y-122210000D02*
X172870000Y-124500000D01*
%TD*%
M02*
