%TF.GenerationSoftware,KiCad,Pcbnew,9.0.7*%
%TF.CreationDate,2026-02-25T20:58:53+00:00*%
%TF.ProjectId,Warehouse Robot Schematic NEW.pdf,57617265-686f-4757-9365-20526f626f74,rev?*%
%TF.SameCoordinates,Original*%
%TF.FileFunction,Soldermask,Bot*%
%TF.FilePolarity,Negative*%
%FSLAX46Y46*%
G04 Gerber Fmt 4.6, Leading zero omitted, Abs format (unit mm)*
G04 Created by KiCad (PCBNEW 9.0.7) date 2026-02-25 20:58:53*
%MOMM*%
%LPD*%
G01*
G04 APERTURE LIST*
G04 Aperture macros list*
%AMRoundRect*
0 Rectangle with rounded corners*
0 $1 Rounding radius*
0 $2 $3 $4 $5 $6 $7 $8 $9 X,Y pos of 4 corners*
0 Add a 4 corners polygon primitive as box body*
4,1,4,$2,$3,$4,$5,$6,$7,$8,$9,$2,$3,0*
0 Add four circle primitives for the rounded corners*
1,1,$1+$1,$2,$3*
1,1,$1+$1,$4,$5*
1,1,$1+$1,$6,$7*
1,1,$1+$1,$8,$9*
0 Add four rect primitives between the rounded corners*
20,1,$1+$1,$2,$3,$4,$5,0*
20,1,$1+$1,$4,$5,$6,$7,0*
20,1,$1+$1,$6,$7,$8,$9,0*
20,1,$1+$1,$8,$9,$2,$3,0*%
G04 Aperture macros list end*
%ADD10C,1.600000*%
%ADD11C,1.400000*%
%ADD12C,1.200000*%
%ADD13RoundRect,0.250000X-0.750000X0.600000X-0.750000X-0.600000X0.750000X-0.600000X0.750000X0.600000X0*%
%ADD14O,2.000000X1.700000*%
%ADD15R,1.800000X1.800000*%
%ADD16C,1.800000*%
%ADD17RoundRect,0.250000X-0.600000X-0.725000X0.600000X-0.725000X0.600000X0.725000X-0.600000X0.725000X0*%
%ADD18O,1.700000X1.950000*%
%ADD19C,2.800000*%
%ADD20RoundRect,0.250000X-0.600000X-0.750000X0.600000X-0.750000X0.600000X0.750000X-0.600000X0.750000X0*%
%ADD21O,1.700000X2.000000*%
%ADD22R,1.700000X1.700000*%
%ADD23C,1.700000*%
%ADD24RoundRect,0.250000X0.600000X0.750000X-0.600000X0.750000X-0.600000X-0.750000X0.600000X-0.750000X0*%
%ADD25R,1.905000X2.000000*%
%ADD26O,1.905000X2.000000*%
%ADD27R,2.000000X2.000000*%
%ADD28C,2.000000*%
G04 APERTURE END LIST*
D10*
%TO.C,R4*%
X171880000Y-63400000D03*
X161720000Y-63400000D03*
%TD*%
%TO.C,C6*%
X131145000Y-72000000D03*
X131145000Y-74500000D03*
%TD*%
%TO.C,R3*%
X172200000Y-77080000D03*
X172200000Y-66920000D03*
%TD*%
D11*
%TO.C,C5*%
X137395000Y-72250000D03*
X137395000Y-74750000D03*
%TD*%
D12*
%TO.C,J12*%
X116145000Y-85150000D03*
D13*
X118145000Y-86750000D03*
D14*
X118145000Y-89250000D03*
%TD*%
D15*
%TO.C,U2*%
X168470000Y-66920000D03*
D16*
X167200000Y-72000000D03*
X165930000Y-66920000D03*
X164660000Y-72000000D03*
X163390000Y-66920000D03*
X162120000Y-72000000D03*
X160850000Y-66920000D03*
X159580000Y-72000000D03*
X158310000Y-66920000D03*
X157040000Y-72000000D03*
X155770000Y-66920000D03*
X154500000Y-72000000D03*
X153230000Y-66920000D03*
X151960000Y-72000000D03*
X150690000Y-66920000D03*
%TD*%
D11*
%TO.C,C3*%
X140120000Y-80000000D03*
X142620000Y-80000000D03*
%TD*%
%TO.C,C4*%
X162337500Y-79750000D03*
X164837500Y-79750000D03*
%TD*%
D12*
%TO.C,J9*%
X168770000Y-126500000D03*
D17*
X170370000Y-124500000D03*
D18*
X172870000Y-124500000D03*
X175370000Y-124500000D03*
X177870000Y-124500000D03*
%TD*%
D19*
%TO.C,TP4*%
X128870000Y-80250000D03*
%TD*%
%TO.C,TP2*%
X116370000Y-80250000D03*
%TD*%
D10*
%TO.C,R2*%
X170720000Y-117800000D03*
X180880000Y-117800000D03*
%TD*%
D12*
%TO.C,J8*%
X137270000Y-126500000D03*
D20*
X138870000Y-124500000D03*
D21*
X141370000Y-124500000D03*
%TD*%
D19*
%TO.C,TP3*%
X122464286Y-80250000D03*
%TD*%
D12*
%TO.C,J3*%
X175690000Y-71387500D03*
D20*
X177290000Y-69387500D03*
D21*
X179790000Y-69387500D03*
%TD*%
D11*
%TO.C,C7*%
X140150000Y-113600000D03*
X142650000Y-113600000D03*
%TD*%
D22*
%TO.C,J2*%
X175770000Y-109750000D03*
D23*
X173230000Y-109750000D03*
X170690000Y-109750000D03*
X168150000Y-109750000D03*
X165610000Y-109750000D03*
X163070000Y-109750000D03*
X160530000Y-109750000D03*
X157990000Y-109750000D03*
X155450000Y-109750000D03*
X152910000Y-109750000D03*
X150370000Y-109750000D03*
X147830000Y-109750000D03*
X145290000Y-109750000D03*
X142750000Y-109750000D03*
X140210000Y-109750000D03*
%TD*%
D12*
%TO.C,J5*%
X122495000Y-64025000D03*
D24*
X120895000Y-66025000D03*
D21*
X118395000Y-66025000D03*
%TD*%
D12*
%TO.C,J13*%
X117020000Y-126475000D03*
D17*
X118620000Y-124475000D03*
D18*
X121120000Y-124475000D03*
X123620000Y-124475000D03*
%TD*%
D12*
%TO.C,J7*%
X128520000Y-126500000D03*
D20*
X130120000Y-124500000D03*
D21*
X132620000Y-124500000D03*
%TD*%
D25*
%TO.C,U1*%
X123435000Y-72550000D03*
D26*
X120895000Y-72550000D03*
X118355000Y-72550000D03*
%TD*%
D12*
%TO.C,J4*%
X140987500Y-71387500D03*
D20*
X142587500Y-69387500D03*
D21*
X145087500Y-69387500D03*
%TD*%
D12*
%TO.C,J11*%
X146270000Y-126500000D03*
D17*
X147870000Y-124500000D03*
D18*
X150370000Y-124500000D03*
X152870000Y-124500000D03*
%TD*%
D12*
%TO.C,J6*%
X135145000Y-64000000D03*
D24*
X133545000Y-66000000D03*
D21*
X131045000Y-66000000D03*
%TD*%
D22*
%TO.C,J1*%
X175770000Y-83750000D03*
D23*
X173230000Y-83750000D03*
X170690000Y-83750000D03*
X168150000Y-83750000D03*
X165610000Y-83750000D03*
X163070000Y-83750000D03*
X160530000Y-83750000D03*
X157990000Y-83750000D03*
X155450000Y-83750000D03*
X152910000Y-83750000D03*
X150370000Y-83750000D03*
X147830000Y-83750000D03*
X145290000Y-83750000D03*
X142750000Y-83750000D03*
X140210000Y-83750000D03*
%TD*%
D12*
%TO.C,J10*%
X157620000Y-126500000D03*
D17*
X159220000Y-124500000D03*
D18*
X161720000Y-124500000D03*
X164220000Y-124500000D03*
%TD*%
D19*
%TO.C,TP1*%
X116370000Y-95500000D03*
%TD*%
D10*
%TO.C,R1*%
X180880000Y-114200000D03*
X170720000Y-114200000D03*
%TD*%
D11*
%TO.C,C2*%
X159120000Y-63500000D03*
X156620000Y-63500000D03*
%TD*%
D27*
%TO.C,BZ1*%
X122370000Y-106700000D03*
D28*
X122370000Y-114300000D03*
%TD*%
M02*
